<?xml version="1.0" encoding="UTF-8" standalone="no"?>
<svg xmlns="http://www.w3.org/2000/svg" width="4020" height="2200" viewBox="0 0 4020 2200">
<style>
    .bg { fill:#ffffff; }
    .frame { fill:#f7f7f7; stroke:#111; stroke-width:3; }
    .divider { stroke:#111; stroke-width:3; }
    .apt { fill:#dff3ff; stroke:#1a1a1a; stroke-width:2; }
    .apt:hover { stroke-width:3; }
    .label { font-family: Arial, Helvetica, sans-serif; fill:#111; font-size:28px; font-weight:700; }
    .small { font-family: Arial, Helvetica, sans-serif; fill:#111; font-size:18px; font-weight:600; }
    .tiny { font-family: Arial, Helvetica, sans-serif; fill:#111; font-size:15px; font-weight:700; }
</style>
<rect x="0" y="0" width="4020" height="2200" class="bg" />
<text x="2010.0" y="70" class="label" text-anchor="middle">Блок B03 • 15 этажей • левое/правое крыло по 5 квартир/этаж</text>
<text x="2010.0" y="110" class="small" text-anchor="middle">ID: apt_f01_a01 ... apt_f15_a10</text>
<rect x="60" y="200" width="3900" height="1965" class="frame" rx="16" ry="16" />
<line x1="2010.0" y1="220.0" x2="2010.0" y2="2160.0" class="divider" />
<text x="2010.0" y="278.6666666666667" class="small" text-anchor="middle" dominant-baseline="middle">15</text>
<rect x="100.0" y="220.0" width="350.0" height="117.33333333333334" class="apt" rx="10" ry="10" id="apt_f15_a01" />
<text x="275.0" y="278.6666666666667" class="tiny" text-anchor="middle" dominant-baseline="middle">1 ком. квартира класса В-48.83м2(141кв)</text>
<rect x="470.0" y="220.0" width="350.0" height="117.33333333333334" class="apt" rx="10" ry="10" id="apt_f15_a02" />
<text x="645.0" y="278.6666666666667" class="tiny" text-anchor="middle" dominant-baseline="middle">2 ком. квартира класса Б-73.22м2(142кв)</text>
<rect x="840.0" y="220.0" width="350.0" height="117.33333333333334" class="apt" rx="10" ry="10" id="apt_f15_a03" />
<text x="1015.0" y="278.6666666666667" class="tiny" text-anchor="middle" dominant-baseline="middle">1 ком. квартира класса Б-48.22м2(143кв)</text>
<rect x="1210.0" y="220.0" width="350.0" height="117.33333333333334" class="apt" rx="10" ry="10" id="apt_f15_a04" />
<text x="1385.0" y="278.6666666666667" class="tiny" text-anchor="middle" dominant-baseline="middle">1 ком. квартира класса А-53.12м2(144кв)</text>
<rect x="1580.0" y="220.0" width="350.0" height="117.33333333333334" class="apt" rx="10" ry="10" id="apt_f15_a05" />
<text x="1755.0" y="278.6666666666667" class="tiny" text-anchor="middle" dominant-baseline="middle">1 ком. квартира класса А-46.89м2(145кв)</text>
<rect x="2090.0" y="220.0" width="350.0" height="117.33333333333334" class="apt" rx="10" ry="10" id="apt_f15_a06" />
<text x="2265.0" y="278.6666666666667" class="tiny" text-anchor="middle" dominant-baseline="middle">1 ком. квартира класса В-48.83м2(146кв)</text>
<rect x="2460.0" y="220.0" width="350.0" height="117.33333333333334" class="apt" rx="10" ry="10" id="apt_f15_a07" />
<text x="2635.0" y="278.6666666666667" class="tiny" text-anchor="middle" dominant-baseline="middle">2 ком. квартира класса Б-73.22м2(147кв)</text>
<rect x="2830.0" y="220.0" width="350.0" height="117.33333333333334" class="apt" rx="10" ry="10" id="apt_f15_a08" />
<text x="3005.0" y="278.6666666666667" class="tiny" text-anchor="middle" dominant-baseline="middle">1 ком. квартира класса Б-48.22м2(148кв)</text>
<rect x="3200.0" y="220.0" width="350.0" height="117.33333333333334" class="apt" rx="10" ry="10" id="apt_f15_a09" />
<text x="3375.0" y="278.6666666666667" class="tiny" text-anchor="middle" dominant-baseline="middle">1 ком. квартира класса А-53.12м2(149кв)</text>
<rect x="3570.0" y="220.0" width="350.0" height="117.33333333333334" class="apt" rx="10" ry="10" id="apt_f15_a10" />
<text x="3745.0" y="278.6666666666667" class="tiny" text-anchor="middle" dominant-baseline="middle">1 ком. квартира класса А-46.89м2(150кв)</text>
<text x="2010.0" y="408.00000000000006" class="small" text-anchor="middle" dominant-baseline="middle">14</text>
<rect x="100.0" y="349.33333333333337" width="350.0" height="117.33333333333334" class="apt" rx="10" ry="10" id="apt_f14_a01" />
<text x="275.0" y="408.00000000000006" class="tiny" text-anchor="middle" dominant-baseline="middle">1 ком. квартира класса В-48.83м2(131кв)</text>
<rect x="470.0" y="349.33333333333337" width="350.0" height="117.33333333333334" class="apt" rx="10" ry="10" id="apt_f14_a02" />
<text x="645.0" y="408.00000000000006" class="tiny" text-anchor="middle" dominant-baseline="middle">2 ком. квартира класса Б-73.22м2(132кв)</text>
<rect x="840.0" y="349.33333333333337" width="350.0" height="117.33333333333334" class="apt" rx="10" ry="10" id="apt_f14_a03" />
<text x="1015.0" y="408.00000000000006" class="tiny" text-anchor="middle" dominant-baseline="middle">1 ком. квартира класса Б-48.22м2(133кв)</text>
<rect x="1210.0" y="349.33333333333337" width="350.0" height="117.33333333333334" class="apt" rx="10" ry="10" id="apt_f14_a04" />
<text x="1385.0" y="408.00000000000006" class="tiny" text-anchor="middle" dominant-baseline="middle">1 ком. квартира класса А-53.12м2(134кв)</text>
<rect x="1580.0" y="349.33333333333337" width="350.0" height="117.33333333333334" class="apt" rx="10" ry="10" id="apt_f14_a05" />
<text x="1755.0" y="408.00000000000006" class="tiny" text-anchor="middle" dominant-baseline="middle">1 ком. квартира класса А-46.89м2(135кв)</text>
<rect x="2090.0" y="349.33333333333337" width="350.0" height="117.33333333333334" class="apt" rx="10" ry="10" id="apt_f14_a06" />
<text x="2265.0" y="408.00000000000006" class="tiny" text-anchor="middle" dominant-baseline="middle">1 ком. квартира класса В-48.83м2(136кв)</text>
<rect x="2460.0" y="349.33333333333337" width="350.0" height="117.33333333333334" class="apt" rx="10" ry="10" id="apt_f14_a07" />
<text x="2635.0" y="408.00000000000006" class="tiny" text-anchor="middle" dominant-baseline="middle">2 ком. квартира класса Б-73.22м2(137кв)</text>
<rect x="2830.0" y="349.33333333333337" width="350.0" height="117.33333333333334" class="apt" rx="10" ry="10" id="apt_f14_a08" />
<text x="3005.0" y="408.00000000000006" class="tiny" text-anchor="middle" dominant-baseline="middle">1 ком. квартира класса Б-48.22м2(138кв)</text>
<rect x="3200.0" y="349.33333333333337" width="350.0" height="117.33333333333334" class="apt" rx="10" ry="10" id="apt_f14_a09" />
<text x="3375.0" y="408.00000000000006" class="tiny" text-anchor="middle" dominant-baseline="middle">1 ком. квартира класса А-53.12м2(139кв)</text>
<rect x="3570.0" y="349.33333333333337" width="350.0" height="117.33333333333334" class="apt" rx="10" ry="10" id="apt_f14_a10" />
<text x="3745.0" y="408.00000000000006" class="tiny" text-anchor="middle" dominant-baseline="middle">1 ком. квартира класса А-46.89м2(140кв)</text>
<text x="2010.0" y="537.3333333333334" class="small" text-anchor="middle" dominant-baseline="middle">13</text>
<rect x="100.0" y="478.6666666666667" width="350.0" height="117.33333333333334" class="apt" rx="10" ry="10" id="apt_f13_a01" />
<text x="275.0" y="537.3333333333334" class="tiny" text-anchor="middle" dominant-baseline="middle">1 ком. квартира класса В-48.83м2(121кв)</text>
<rect x="470.0" y="478.6666666666667" width="350.0" height="117.33333333333334" class="apt" rx="10" ry="10" id="apt_f13_a02" />
<text x="645.0" y="537.3333333333334" class="tiny" text-anchor="middle" dominant-baseline="middle">2 ком. квартира класса Б-73.22м2(122кв)</text>
<rect x="840.0" y="478.6666666666667" width="350.0" height="117.33333333333334" class="apt" rx="10" ry="10" id="apt_f13_a03" />
<text x="1015.0" y="537.3333333333334" class="tiny" text-anchor="middle" dominant-baseline="middle">1 ком. квартира класса Б-48.22м2(123кв)</text>
<rect x="1210.0" y="478.6666666666667" width="350.0" height="117.33333333333334" class="apt" rx="10" ry="10" id="apt_f13_a04" />
<text x="1385.0" y="537.3333333333334" class="tiny" text-anchor="middle" dominant-baseline="middle">1 ком. квартира класса А-53.12м2(124кв)</text>
<rect x="1580.0" y="478.6666666666667" width="350.0" height="117.33333333333334" class="apt" rx="10" ry="10" id="apt_f13_a05" />
<text x="1755.0" y="537.3333333333334" class="tiny" text-anchor="middle" dominant-baseline="middle">1 ком. квартира класса А-46.89м2(125кв)</text>
<rect x="2090.0" y="478.6666666666667" width="350.0" height="117.33333333333334" class="apt" rx="10" ry="10" id="apt_f13_a06" />
<text x="2265.0" y="537.3333333333334" class="tiny" text-anchor="middle" dominant-baseline="middle">1 ком. квартира класса В-48.83м2(126кв)</text>
<rect x="2460.0" y="478.6666666666667" width="350.0" height="117.33333333333334" class="apt" rx="10" ry="10" id="apt_f13_a07" />
<text x="2635.0" y="537.3333333333334" class="tiny" text-anchor="middle" dominant-baseline="middle">2 ком. квартира класса Б-73.22м2(127кв)</text>
<rect x="2830.0" y="478.6666666666667" width="350.0" height="117.33333333333334" class="apt" rx="10" ry="10" id="apt_f13_a08" />
<text x="3005.0" y="537.3333333333334" class="tiny" text-anchor="middle" dominant-baseline="middle">1 ком. квартира класса Б-48.22м2(128кв)</text>
<rect x="3200.0" y="478.6666666666667" width="350.0" height="117.33333333333334" class="apt" rx="10" ry="10" id="apt_f13_a09" />
<text x="3375.0" y="537.3333333333334" class="tiny" text-anchor="middle" dominant-baseline="middle">1 ком. квартира класса А-53.12м2(129кв)</text>
<rect x="3570.0" y="478.6666666666667" width="350.0" height="117.33333333333334" class="apt" rx="10" ry="10" id="apt_f13_a10" />
<text x="3745.0" y="537.3333333333334" class="tiny" text-anchor="middle" dominant-baseline="middle">1 ком. квартира класса А-46.89м2(130кв)</text>
<text x="2010.0" y="666.6666666666666" class="small" text-anchor="middle" dominant-baseline="middle">12</text>
<rect x="100.0" y="608.0" width="350.0" height="117.33333333333334" class="apt" rx="10" ry="10" id="apt_f12_a01" />
<text x="275.0" y="666.6666666666666" class="tiny" text-anchor="middle" dominant-baseline="middle">1 ком. квартира класса В-48.83м2(111кв)</text>
<rect x="470.0" y="608.0" width="350.0" height="117.33333333333334" class="apt" rx="10" ry="10" id="apt_f12_a02" />
<text x="645.0" y="666.6666666666666" class="tiny" text-anchor="middle" dominant-baseline="middle">2 ком. квартира класса Б-73.22м2(112кв)</text>
<rect x="840.0" y="608.0" width="350.0" height="117.33333333333334" class="apt" rx="10" ry="10" id="apt_f12_a03" />
<text x="1015.0" y="666.6666666666666" class="tiny" text-anchor="middle" dominant-baseline="middle">1 ком. квартира класса Б-48.22м2(113кв)</text>
<rect x="1210.0" y="608.0" width="350.0" height="117.33333333333334" class="apt" rx="10" ry="10" id="apt_f12_a04" />
<text x="1385.0" y="666.6666666666666" class="tiny" text-anchor="middle" dominant-baseline="middle">1 ком. квартира класса А-53.12м2(114кв)</text>
<rect x="1580.0" y="608.0" width="350.0" height="117.33333333333334" class="apt" rx="10" ry="10" id="apt_f12_a05" />
<text x="1755.0" y="666.6666666666666" class="tiny" text-anchor="middle" dominant-baseline="middle">1 ком. квартира класса А-46.89м2(115кв)</text>
<rect x="2090.0" y="608.0" width="350.0" height="117.33333333333334" class="apt" rx="10" ry="10" id="apt_f12_a06" />
<text x="2265.0" y="666.6666666666666" class="tiny" text-anchor="middle" dominant-baseline="middle">1 ком. квартира класса В-48.83м2(116кв)</text>
<rect x="2460.0" y="608.0" width="350.0" height="117.33333333333334" class="apt" rx="10" ry="10" id="apt_f12_a07" />
<text x="2635.0" y="666.6666666666666" class="tiny" text-anchor="middle" dominant-baseline="middle">2 ком. квартира класса Б-73.22м2(117кв)</text>
<rect x="2830.0" y="608.0" width="350.0" height="117.33333333333334" class="apt" rx="10" ry="10" id="apt_f12_a08" />
<text x="3005.0" y="666.6666666666666" class="tiny" text-anchor="middle" dominant-baseline="middle">1 ком. квартира класса Б-48.22м2(118кв)</text>
<rect x="3200.0" y="608.0" width="350.0" height="117.33333333333334" class="apt" rx="10" ry="10" id="apt_f12_a09" />
<text x="3375.0" y="666.6666666666666" class="tiny" text-anchor="middle" dominant-baseline="middle">1 ком. квартира класса А-53.12м2(119кв)</text>
<rect x="3570.0" y="608.0" width="350.0" height="117.33333333333334" class="apt" rx="10" ry="10" id="apt_f12_a10" />
<text x="3745.0" y="666.6666666666666" class="tiny" text-anchor="middle" dominant-baseline="middle">1 ком. квартира класса А-46.89м2(120кв)</text>
<text x="2010.0" y="796.0" class="small" text-anchor="middle" dominant-baseline="middle">11</text>
<rect x="100.0" y="737.3333333333334" width="350.0" height="117.33333333333334" class="apt" rx="10" ry="10" id="apt_f11_a01" />
<text x="275.0" y="796.0" class="tiny" text-anchor="middle" dominant-baseline="middle">1 ком. квартира класса В-48.83м2(101кв)</text>
<rect x="470.0" y="737.3333333333334" width="350.0" height="117.33333333333334" class="apt" rx="10" ry="10" id="apt_f11_a02" />
<text x="645.0" y="796.0" class="tiny" text-anchor="middle" dominant-baseline="middle">2 ком. квартира класса Б-73.22м2(102кв)</text>
<rect x="840.0" y="737.3333333333334" width="350.0" height="117.33333333333334" class="apt" rx="10" ry="10" id="apt_f11_a03" />
<text x="1015.0" y="796.0" class="tiny" text-anchor="middle" dominant-baseline="middle">1 ком. квартира класса Б-48.22м2(103кв)</text>
<rect x="1210.0" y="737.3333333333334" width="350.0" height="117.33333333333334" class="apt" rx="10" ry="10" id="apt_f11_a04" />
<text x="1385.0" y="796.0" class="tiny" text-anchor="middle" dominant-baseline="middle">1 ком. квартира класса А-53.12м2(104кв)</text>
<rect x="1580.0" y="737.3333333333334" width="350.0" height="117.33333333333334" class="apt" rx="10" ry="10" id="apt_f11_a05" />
<text x="1755.0" y="796.0" class="tiny" text-anchor="middle" dominant-baseline="middle">1 ком. квартира класса А-46.89м2(105кв)</text>
<rect x="2090.0" y="737.3333333333334" width="350.0" height="117.33333333333334" class="apt" rx="10" ry="10" id="apt_f11_a06" />
<text x="2265.0" y="796.0" class="tiny" text-anchor="middle" dominant-baseline="middle">1 ком. квартира класса В-48.83м2(106кв)</text>
<rect x="2460.0" y="737.3333333333334" width="350.0" height="117.33333333333334" class="apt" rx="10" ry="10" id="apt_f11_a07" />
<text x="2635.0" y="796.0" class="tiny" text-anchor="middle" dominant-baseline="middle">2 ком. квартира класса Б-73.22м2(107кв)</text>
<rect x="2830.0" y="737.3333333333334" width="350.0" height="117.33333333333334" class="apt" rx="10" ry="10" id="apt_f11_a08" />
<text x="3005.0" y="796.0" class="tiny" text-anchor="middle" dominant-baseline="middle">1 ком. квартира класса Б-48.22м2(108кв)</text>
<rect x="3200.0" y="737.3333333333334" width="350.0" height="117.33333333333334" class="apt" rx="10" ry="10" id="apt_f11_a09" />
<text x="3375.0" y="796.0" class="tiny" text-anchor="middle" dominant-baseline="middle">1 ком. квартира класса А-53.12м2(109кв)</text>
<rect x="3570.0" y="737.3333333333334" width="350.0" height="117.33333333333334" class="apt" rx="10" ry="10" id="apt_f11_a10" />
<text x="3745.0" y="796.0" class="tiny" text-anchor="middle" dominant-baseline="middle">1 ком. квартира класса А-46.89м2(110кв)</text>
<text x="2010.0" y="925.3333333333334" class="small" text-anchor="middle" dominant-baseline="middle">10</text>
<rect x="100.0" y="866.6666666666667" width="350.0" height="117.33333333333334" class="apt" rx="10" ry="10" id="apt_f10_a01" />
<text x="275.0" y="925.3333333333334" class="tiny" text-anchor="middle" dominant-baseline="middle">1 ком. квартира класса В-48.83м2(91кв)</text>
<rect x="470.0" y="866.6666666666667" width="350.0" height="117.33333333333334" class="apt" rx="10" ry="10" id="apt_f10_a02" />
<text x="645.0" y="925.3333333333334" class="tiny" text-anchor="middle" dominant-baseline="middle">2 ком. квартира класса Б-73.22м2(92кв)</text>
<rect x="840.0" y="866.6666666666667" width="350.0" height="117.33333333333334" class="apt" rx="10" ry="10" id="apt_f10_a03" />
<text x="1015.0" y="925.3333333333334" class="tiny" text-anchor="middle" dominant-baseline="middle">1 ком. квартира класса Б-48.22м2(93кв)</text>
<rect x="1210.0" y="866.6666666666667" width="350.0" height="117.33333333333334" class="apt" rx="10" ry="10" id="apt_f10_a04" />
<text x="1385.0" y="925.3333333333334" class="tiny" text-anchor="middle" dominant-baseline="middle">1 ком. квартира класса А-53.12м2(94кв)</text>
<rect x="1580.0" y="866.6666666666667" width="350.0" height="117.33333333333334" class="apt" rx="10" ry="10" id="apt_f10_a05" />
<text x="1755.0" y="925.3333333333334" class="tiny" text-anchor="middle" dominant-baseline="middle">1 ком. квартира класса А-46.89м2(95кв)</text>
<rect x="2090.0" y="866.6666666666667" width="350.0" height="117.33333333333334" class="apt" rx="10" ry="10" id="apt_f10_a06" />
<text x="2265.0" y="925.3333333333334" class="tiny" text-anchor="middle" dominant-baseline="middle">1 ком. квартира класса В-48.83м2(96кв)</text>
<rect x="2460.0" y="866.6666666666667" width="350.0" height="117.33333333333334" class="apt" rx="10" ry="10" id="apt_f10_a07" />
<text x="2635.0" y="925.3333333333334" class="tiny" text-anchor="middle" dominant-baseline="middle">2 ком. квартира класса Б-73.22м2(97кв)</text>
<rect x="2830.0" y="866.6666666666667" width="350.0" height="117.33333333333334" class="apt" rx="10" ry="10" id="apt_f10_a08" />
<text x="3005.0" y="925.3333333333334" class="tiny" text-anchor="middle" dominant-baseline="middle">1 ком. квартира класса Б-48.22м2(98кв)</text>
<rect x="3200.0" y="866.6666666666667" width="350.0" height="117.33333333333334" class="apt" rx="10" ry="10" id="apt_f10_a09" />
<text x="3375.0" y="925.3333333333334" class="tiny" text-anchor="middle" dominant-baseline="middle">1 ком. квартира класса А-53.12м2(99кв)</text>
<rect x="3570.0" y="866.6666666666667" width="350.0" height="117.33333333333334" class="apt" rx="10" ry="10" id="apt_f10_a10" />
<text x="3745.0" y="925.3333333333334" class="tiny" text-anchor="middle" dominant-baseline="middle">1 ком. квартира класса А-46.89м2(100кв)</text>
<text x="2010.0" y="1054.6666666666667" class="small" text-anchor="middle" dominant-baseline="middle">9</text>
<rect x="100.0" y="996.0" width="350.0" height="117.33333333333334" class="apt" rx="10" ry="10" id="apt_f09_a01" />
<text x="275.0" y="1054.6666666666667" class="tiny" text-anchor="middle" dominant-baseline="middle">1 ком. квартира класса В-48.83м2(81кв)</text>
<rect x="470.0" y="996.0" width="350.0" height="117.33333333333334" class="apt" rx="10" ry="10" id="apt_f09_a02" />
<text x="645.0" y="1054.6666666666667" class="tiny" text-anchor="middle" dominant-baseline="middle">2 ком. квартира класса Б-73.22м2(82кв)</text>
<rect x="840.0" y="996.0" width="350.0" height="117.33333333333334" class="apt" rx="10" ry="10" id="apt_f09_a03" />
<text x="1015.0" y="1054.6666666666667" class="tiny" text-anchor="middle" dominant-baseline="middle">1 ком. квартира класса Б-48.22м2(83кв)</text>
<rect x="1210.0" y="996.0" width="350.0" height="117.33333333333334" class="apt" rx="10" ry="10" id="apt_f09_a04" />
<text x="1385.0" y="1054.6666666666667" class="tiny" text-anchor="middle" dominant-baseline="middle">1 ком. квартира класса А-53.12м2(84кв)</text>
<rect x="1580.0" y="996.0" width="350.0" height="117.33333333333334" class="apt" rx="10" ry="10" id="apt_f09_a05" />
<text x="1755.0" y="1054.6666666666667" class="tiny" text-anchor="middle" dominant-baseline="middle">1 ком. квартира класса А-46.89м2(85кв)</text>
<rect x="2090.0" y="996.0" width="350.0" height="117.33333333333334" class="apt" rx="10" ry="10" id="apt_f09_a06" />
<text x="2265.0" y="1054.6666666666667" class="tiny" text-anchor="middle" dominant-baseline="middle">1 ком. квартира класса В-48.83м2(86кв)</text>
<rect x="2460.0" y="996.0" width="350.0" height="117.33333333333334" class="apt" rx="10" ry="10" id="apt_f09_a07" />
<text x="2635.0" y="1054.6666666666667" class="tiny" text-anchor="middle" dominant-baseline="middle">2 ком. квартира класса Б-73.22м2(87кв)</text>
<rect x="2830.0" y="996.0" width="350.0" height="117.33333333333334" class="apt" rx="10" ry="10" id="apt_f09_a08" />
<text x="3005.0" y="1054.6666666666667" class="tiny" text-anchor="middle" dominant-baseline="middle">1 ком. квартира класса Б-48.22м2(88кв)</text>
<rect x="3200.0" y="996.0" width="350.0" height="117.33333333333334" class="apt" rx="10" ry="10" id="apt_f09_a09" />
<text x="3375.0" y="1054.6666666666667" class="tiny" text-anchor="middle" dominant-baseline="middle">1 ком. квартира класса А-53.12м2(89кв)</text>
<rect x="3570.0" y="996.0" width="350.0" height="117.33333333333334" class="apt" rx="10" ry="10" id="apt_f09_a10" />
<text x="3745.0" y="1054.6666666666667" class="tiny" text-anchor="middle" dominant-baseline="middle">1 ком. квартира класса А-46.89м2(90кв)</text>
<text x="2010.0" y="1184.0000000000002" class="small" text-anchor="middle" dominant-baseline="middle">8</text>
<rect x="100.0" y="1125.3333333333335" width="350.0" height="117.33333333333334" class="apt" rx="10" ry="10" id="apt_f08_a01" />
<text x="275.0" y="1184.0000000000002" class="tiny" text-anchor="middle" dominant-baseline="middle">1 ком. квартира класса В-48.83м2(71кв)</text>
<rect x="470.0" y="1125.3333333333335" width="350.0" height="117.33333333333334" class="apt" rx="10" ry="10" id="apt_f08_a02" />
<text x="645.0" y="1184.0000000000002" class="tiny" text-anchor="middle" dominant-baseline="middle">2 ком. квартира класса Б-73.22м2(72кв)</text>
<rect x="840.0" y="1125.3333333333335" width="350.0" height="117.33333333333334" class="apt" rx="10" ry="10" id="apt_f08_a03" />
<text x="1015.0" y="1184.0000000000002" class="tiny" text-anchor="middle" dominant-baseline="middle">1 ком. квартира класса Б-48.22м2(73кв)</text>
<rect x="1210.0" y="1125.3333333333335" width="350.0" height="117.33333333333334" class="apt" rx="10" ry="10" id="apt_f08_a04" />
<text x="1385.0" y="1184.0000000000002" class="tiny" text-anchor="middle" dominant-baseline="middle">1 ком. квартира класса А-53.12м2(74кв)</text>
<rect x="1580.0" y="1125.3333333333335" width="350.0" height="117.33333333333334" class="apt" rx="10" ry="10" id="apt_f08_a05" />
<text x="1755.0" y="1184.0000000000002" class="tiny" text-anchor="middle" dominant-baseline="middle">1 ком. квартира класса А-46.89м2(75кв)</text>
<rect x="2090.0" y="1125.3333333333335" width="350.0" height="117.33333333333334" class="apt" rx="10" ry="10" id="apt_f08_a06" />
<text x="2265.0" y="1184.0000000000002" class="tiny" text-anchor="middle" dominant-baseline="middle">1 ком. квартира класса В-48.83м2(76кв)</text>
<rect x="2460.0" y="1125.3333333333335" width="350.0" height="117.33333333333334" class="apt" rx="10" ry="10" id="apt_f08_a07" />
<text x="2635.0" y="1184.0000000000002" class="tiny" text-anchor="middle" dominant-baseline="middle">2 ком. квартира класса Б-73.22м2(77кв)</text>
<rect x="2830.0" y="1125.3333333333335" width="350.0" height="117.33333333333334" class="apt" rx="10" ry="10" id="apt_f08_a08" />
<text x="3005.0" y="1184.0000000000002" class="tiny" text-anchor="middle" dominant-baseline="middle">1 ком. квартира класса Б-48.22м2(78кв)</text>
<rect x="3200.0" y="1125.3333333333335" width="350.0" height="117.33333333333334" class="apt" rx="10" ry="10" id="apt_f08_a09" />
<text x="3375.0" y="1184.0000000000002" class="tiny" text-anchor="middle" dominant-baseline="middle">1 ком. квартира класса А-53.12м2(79кв)</text>
<rect x="3570.0" y="1125.3333333333335" width="350.0" height="117.33333333333334" class="apt" rx="10" ry="10" id="apt_f08_a10" />
<text x="3745.0" y="1184.0000000000002" class="tiny" text-anchor="middle" dominant-baseline="middle">1 ком. квартира класса А-46.89м2(80кв)</text>
<text x="2010.0" y="1313.3333333333335" class="small" text-anchor="middle" dominant-baseline="middle">7</text>
<rect x="100.0" y="1254.6666666666667" width="350.0" height="117.33333333333334" class="apt" rx="10" ry="10" id="apt_f07_a01" />
<text x="275.0" y="1313.3333333333335" class="tiny" text-anchor="middle" dominant-baseline="middle">1 ком. квартира класса В-48.83м2(61кв)</text>
<rect x="470.0" y="1254.6666666666667" width="350.0" height="117.33333333333334" class="apt" rx="10" ry="10" id="apt_f07_a02" />
<text x="645.0" y="1313.3333333333335" class="tiny" text-anchor="middle" dominant-baseline="middle">2 ком. квартира класса Б-73.22м2(62кв)</text>
<rect x="840.0" y="1254.6666666666667" width="350.0" height="117.33333333333334" class="apt" rx="10" ry="10" id="apt_f07_a03" />
<text x="1015.0" y="1313.3333333333335" class="tiny" text-anchor="middle" dominant-baseline="middle">1 ком. квартира класса Б-48.22м2(63кв)</text>
<rect x="1210.0" y="1254.6666666666667" width="350.0" height="117.33333333333334" class="apt" rx="10" ry="10" id="apt_f07_a04" />
<text x="1385.0" y="1313.3333333333335" class="tiny" text-anchor="middle" dominant-baseline="middle">1 ком. квартира класса А-53.12м2(64кв)</text>
<rect x="1580.0" y="1254.6666666666667" width="350.0" height="117.33333333333334" class="apt" rx="10" ry="10" id="apt_f07_a05" />
<text x="1755.0" y="1313.3333333333335" class="tiny" text-anchor="middle" dominant-baseline="middle">1 ком. квартира класса А-46.89м2(65кв)</text>
<rect x="2090.0" y="1254.6666666666667" width="350.0" height="117.33333333333334" class="apt" rx="10" ry="10" id="apt_f07_a06" />
<text x="2265.0" y="1313.3333333333335" class="tiny" text-anchor="middle" dominant-baseline="middle">1 ком. квартира класса В-48.83м2(66кв)</text>
<rect x="2460.0" y="1254.6666666666667" width="350.0" height="117.33333333333334" class="apt" rx="10" ry="10" id="apt_f07_a07" />
<text x="2635.0" y="1313.3333333333335" class="tiny" text-anchor="middle" dominant-baseline="middle">2 ком. квартира класса Б-73.22м2(67кв)</text>
<rect x="2830.0" y="1254.6666666666667" width="350.0" height="117.33333333333334" class="apt" rx="10" ry="10" id="apt_f07_a08" />
<text x="3005.0" y="1313.3333333333335" class="tiny" text-anchor="middle" dominant-baseline="middle">1 ком. квартира класса Б-48.22м2(68кв)</text>
<rect x="3200.0" y="1254.6666666666667" width="350.0" height="117.33333333333334" class="apt" rx="10" ry="10" id="apt_f07_a09" />
<text x="3375.0" y="1313.3333333333335" class="tiny" text-anchor="middle" dominant-baseline="middle">1 ком. квартира класса А-53.12м2(69кв)</text>
<rect x="3570.0" y="1254.6666666666667" width="350.0" height="117.33333333333334" class="apt" rx="10" ry="10" id="apt_f07_a10" />
<text x="3745.0" y="1313.3333333333335" class="tiny" text-anchor="middle" dominant-baseline="middle">1 ком. квартира класса А-46.89м2(70кв)</text>
<text x="2010.0" y="1442.6666666666667" class="small" text-anchor="middle" dominant-baseline="middle">6</text>
<rect x="100.0" y="1384.0" width="350.0" height="117.33333333333334" class="apt" rx="10" ry="10" id="apt_f06_a01" />
<text x="275.0" y="1442.6666666666667" class="tiny" text-anchor="middle" dominant-baseline="middle">1 ком. квартира класса В-48.83м2(51кв)</text>
<rect x="470.0" y="1384.0" width="350.0" height="117.33333333333334" class="apt" rx="10" ry="10" id="apt_f06_a02" />
<text x="645.0" y="1442.6666666666667" class="tiny" text-anchor="middle" dominant-baseline="middle">2 ком. квартира класса Б-73.22м2(52кв)</text>
<rect x="840.0" y="1384.0" width="350.0" height="117.33333333333334" class="apt" rx="10" ry="10" id="apt_f06_a03" />
<text x="1015.0" y="1442.6666666666667" class="tiny" text-anchor="middle" dominant-baseline="middle">1 ком. квартира класса Б-48.22м2(53кв)</text>
<rect x="1210.0" y="1384.0" width="350.0" height="117.33333333333334" class="apt" rx="10" ry="10" id="apt_f06_a04" />
<text x="1385.0" y="1442.6666666666667" class="tiny" text-anchor="middle" dominant-baseline="middle">1 ком. квартира класса А-53.12м2(54кв)</text>
<rect x="1580.0" y="1384.0" width="350.0" height="117.33333333333334" class="apt" rx="10" ry="10" id="apt_f06_a05" />
<text x="1755.0" y="1442.6666666666667" class="tiny" text-anchor="middle" dominant-baseline="middle">1 ком. квартира класса А-46.89м2(55кв)</text>
<rect x="2090.0" y="1384.0" width="350.0" height="117.33333333333334" class="apt" rx="10" ry="10" id="apt_f06_a06" />
<text x="2265.0" y="1442.6666666666667" class="tiny" text-anchor="middle" dominant-baseline="middle">1 ком. квартира класса В-48.83м2(56кв)</text>
<rect x="2460.0" y="1384.0" width="350.0" height="117.33333333333334" class="apt" rx="10" ry="10" id="apt_f06_a07" />
<text x="2635.0" y="1442.6666666666667" class="tiny" text-anchor="middle" dominant-baseline="middle">2 ком. квартира класса Б-73.22м2(57кв)</text>
<rect x="2830.0" y="1384.0" width="350.0" height="117.33333333333334" class="apt" rx="10" ry="10" id="apt_f06_a08" />
<text x="3005.0" y="1442.6666666666667" class="tiny" text-anchor="middle" dominant-baseline="middle">1 ком. квартира класса Б-48.22м2(58кв)</text>
<rect x="3200.0" y="1384.0" width="350.0" height="117.33333333333334" class="apt" rx="10" ry="10" id="apt_f06_a09" />
<text x="3375.0" y="1442.6666666666667" class="tiny" text-anchor="middle" dominant-baseline="middle">1 ком. квартира класса А-53.12м2(59кв)</text>
<rect x="3570.0" y="1384.0" width="350.0" height="117.33333333333334" class="apt" rx="10" ry="10" id="apt_f06_a10" />
<text x="3745.0" y="1442.6666666666667" class="tiny" text-anchor="middle" dominant-baseline="middle">1 ком. квартира класса А-46.89м2(60кв)</text>
<text x="2010.0" y="1572.0000000000002" class="small" text-anchor="middle" dominant-baseline="middle">5</text>
<rect x="100.0" y="1513.3333333333335" width="350.0" height="117.33333333333334" class="apt" rx="10" ry="10" id="apt_f05_a01" />
<text x="275.0" y="1572.0000000000002" class="tiny" text-anchor="middle" dominant-baseline="middle">1 ком. квартира класса В-48.83м2(41кв)</text>
<rect x="470.0" y="1513.3333333333335" width="350.0" height="117.33333333333334" class="apt" rx="10" ry="10" id="apt_f05_a02" />
<text x="645.0" y="1572.0000000000002" class="tiny" text-anchor="middle" dominant-baseline="middle">2 ком. квартира класса Б-73.22м2(42кв)</text>
<rect x="840.0" y="1513.3333333333335" width="350.0" height="117.33333333333334" class="apt" rx="10" ry="10" id="apt_f05_a03" />
<text x="1015.0" y="1572.0000000000002" class="tiny" text-anchor="middle" dominant-baseline="middle">1 ком. квартира класса Б-48.22м2(43кв)</text>
<rect x="1210.0" y="1513.3333333333335" width="350.0" height="117.33333333333334" class="apt" rx="10" ry="10" id="apt_f05_a04" />
<text x="1385.0" y="1572.0000000000002" class="tiny" text-anchor="middle" dominant-baseline="middle">1 ком. квартира класса А-53.12м2(44кв)</text>
<rect x="1580.0" y="1513.3333333333335" width="350.0" height="117.33333333333334" class="apt" rx="10" ry="10" id="apt_f05_a05" />
<text x="1755.0" y="1572.0000000000002" class="tiny" text-anchor="middle" dominant-baseline="middle">1 ком. квартира класса А-46.89м2(45кв)</text>
<rect x="2090.0" y="1513.3333333333335" width="350.0" height="117.33333333333334" class="apt" rx="10" ry="10" id="apt_f05_a06" />
<text x="2265.0" y="1572.0000000000002" class="tiny" text-anchor="middle" dominant-baseline="middle">1 ком. квартира класса В-48.83м2(46кв)</text>
<rect x="2460.0" y="1513.3333333333335" width="350.0" height="117.33333333333334" class="apt" rx="10" ry="10" id="apt_f05_a07" />
<text x="2635.0" y="1572.0000000000002" class="tiny" text-anchor="middle" dominant-baseline="middle">2 ком. квартира класса Б-73.22м2(47кв)</text>
<rect x="2830.0" y="1513.3333333333335" width="350.0" height="117.33333333333334" class="apt" rx="10" ry="10" id="apt_f05_a08" />
<text x="3005.0" y="1572.0000000000002" class="tiny" text-anchor="middle" dominant-baseline="middle">1 ком. квартира класса Б-48.22м2(48кв)</text>
<rect x="3200.0" y="1513.3333333333335" width="350.0" height="117.33333333333334" class="apt" rx="10" ry="10" id="apt_f05_a09" />
<text x="3375.0" y="1572.0000000000002" class="tiny" text-anchor="middle" dominant-baseline="middle">1 ком. квартира класса А-53.12м2(49кв)</text>
<rect x="3570.0" y="1513.3333333333335" width="350.0" height="117.33333333333334" class="apt" rx="10" ry="10" id="apt_f05_a10" />
<text x="3745.0" y="1572.0000000000002" class="tiny" text-anchor="middle" dominant-baseline="middle">1 ком. квартира класса А-46.89м2(50кв)</text>
<text x="2010.0" y="1701.3333333333335" class="small" text-anchor="middle" dominant-baseline="middle">4</text>
<rect x="100.0" y="1642.6666666666667" width="350.0" height="117.33333333333334" class="apt" rx="10" ry="10" id="apt_f04_a01" />
<text x="275.0" y="1701.3333333333335" class="tiny" text-anchor="middle" dominant-baseline="middle">1 ком. квартира класса В-48.83м2(31кв)</text>
<rect x="470.0" y="1642.6666666666667" width="350.0" height="117.33333333333334" class="apt" rx="10" ry="10" id="apt_f04_a02" />
<text x="645.0" y="1701.3333333333335" class="tiny" text-anchor="middle" dominant-baseline="middle">2 ком. квартира класса Б-73.22м2(32кв)</text>
<rect x="840.0" y="1642.6666666666667" width="350.0" height="117.33333333333334" class="apt" rx="10" ry="10" id="apt_f04_a03" />
<text x="1015.0" y="1701.3333333333335" class="tiny" text-anchor="middle" dominant-baseline="middle">1 ком. квартира класса Б-48.22м2(33кв)</text>
<rect x="1210.0" y="1642.6666666666667" width="350.0" height="117.33333333333334" class="apt" rx="10" ry="10" id="apt_f04_a04" />
<text x="1385.0" y="1701.3333333333335" class="tiny" text-anchor="middle" dominant-baseline="middle">1 ком. квартира класса А-53.12м2(34кв)</text>
<rect x="1580.0" y="1642.6666666666667" width="350.0" height="117.33333333333334" class="apt" rx="10" ry="10" id="apt_f04_a05" />
<text x="1755.0" y="1701.3333333333335" class="tiny" text-anchor="middle" dominant-baseline="middle">1 ком. квартира класса А-46.89м2(35кв)</text>
<rect x="2090.0" y="1642.6666666666667" width="350.0" height="117.33333333333334" class="apt" rx="10" ry="10" id="apt_f04_a06" />
<text x="2265.0" y="1701.3333333333335" class="tiny" text-anchor="middle" dominant-baseline="middle">1 ком. квартира класса В-48.83м2(36кв)</text>
<rect x="2460.0" y="1642.6666666666667" width="350.0" height="117.33333333333334" class="apt" rx="10" ry="10" id="apt_f04_a07" />
<text x="2635.0" y="1701.3333333333335" class="tiny" text-anchor="middle" dominant-baseline="middle">2 ком. квартира класса Б-73.22м2(37кв)</text>
<rect x="2830.0" y="1642.6666666666667" width="350.0" height="117.33333333333334" class="apt" rx="10" ry="10" id="apt_f04_a08" />
<text x="3005.0" y="1701.3333333333335" class="tiny" text-anchor="middle" dominant-baseline="middle">1 ком. квартира класса Б-48.22м2(38кв)</text>
<rect x="3200.0" y="1642.6666666666667" width="350.0" height="117.33333333333334" class="apt" rx="10" ry="10" id="apt_f04_a09" />
<text x="3375.0" y="1701.3333333333335" class="tiny" text-anchor="middle" dominant-baseline="middle">1 ком. квартира класса А-53.12м2(39кв)</text>
<rect x="3570.0" y="1642.6666666666667" width="350.0" height="117.33333333333334" class="apt" rx="10" ry="10" id="apt_f04_a10" />
<text x="3745.0" y="1701.3333333333335" class="tiny" text-anchor="middle" dominant-baseline="middle">1 ком. квартира класса А-46.89м2(40кв)</text>
<text x="2010.0" y="1830.6666666666667" class="small" text-anchor="middle" dominant-baseline="middle">3</text>
<rect x="100.0" y="1772.0" width="350.0" height="117.33333333333334" class="apt" rx="10" ry="10" id="apt_f03_a01" />
<text x="275.0" y="1830.6666666666667" class="tiny" text-anchor="middle" dominant-baseline="middle">1 ком. квартира класса В-48.83м2(21кв)</text>
<rect x="470.0" y="1772.0" width="350.0" height="117.33333333333334" class="apt" rx="10" ry="10" id="apt_f03_a02" />
<text x="645.0" y="1830.6666666666667" class="tiny" text-anchor="middle" dominant-baseline="middle">2 ком. квартира класса Б-73.22м2(22кв)</text>
<rect x="840.0" y="1772.0" width="350.0" height="117.33333333333334" class="apt" rx="10" ry="10" id="apt_f03_a03" />
<text x="1015.0" y="1830.6666666666667" class="tiny" text-anchor="middle" dominant-baseline="middle">1 ком. квартира класса Б-48.22м2(23кв)</text>
<rect x="1210.0" y="1772.0" width="350.0" height="117.33333333333334" class="apt" rx="10" ry="10" id="apt_f03_a04" />
<text x="1385.0" y="1830.6666666666667" class="tiny" text-anchor="middle" dominant-baseline="middle">1 ком. квартира класса А-53.12м2(24кв)</text>
<rect x="1580.0" y="1772.0" width="350.0" height="117.33333333333334" class="apt" rx="10" ry="10" id="apt_f03_a05" />
<text x="1755.0" y="1830.6666666666667" class="tiny" text-anchor="middle" dominant-baseline="middle">1 ком. квартира класса А-46.89м2(25кв)</text>
<rect x="2090.0" y="1772.0" width="350.0" height="117.33333333333334" class="apt" rx="10" ry="10" id="apt_f03_a06" />
<text x="2265.0" y="1830.6666666666667" class="tiny" text-anchor="middle" dominant-baseline="middle">1 ком. квартира класса В-48.83м2(26кв)</text>
<rect x="2460.0" y="1772.0" width="350.0" height="117.33333333333334" class="apt" rx="10" ry="10" id="apt_f03_a07" />
<text x="2635.0" y="1830.6666666666667" class="tiny" text-anchor="middle" dominant-baseline="middle">2 ком. квартира класса Б-73.22м2(27кв)</text>
<rect x="2830.0" y="1772.0" width="350.0" height="117.33333333333334" class="apt" rx="10" ry="10" id="apt_f03_a08" />
<text x="3005.0" y="1830.6666666666667" class="tiny" text-anchor="middle" dominant-baseline="middle">1 ком. квартира класса Б-48.22м2(28кв)</text>
<rect x="3200.0" y="1772.0" width="350.0" height="117.33333333333334" class="apt" rx="10" ry="10" id="apt_f03_a09" />
<text x="3375.0" y="1830.6666666666667" class="tiny" text-anchor="middle" dominant-baseline="middle">1 ком. квартира класса А-53.12м2(29кв)</text>
<rect x="3570.0" y="1772.0" width="350.0" height="117.33333333333334" class="apt" rx="10" ry="10" id="apt_f03_a10" />
<text x="3745.0" y="1830.6666666666667" class="tiny" text-anchor="middle" dominant-baseline="middle">1 ком. квартира класса А-46.89м2(30кв)</text>
<text x="2010.0" y="1960.0000000000002" class="small" text-anchor="middle" dominant-baseline="middle">2</text>
<rect x="100.0" y="1901.3333333333335" width="350.0" height="117.33333333333334" class="apt" rx="10" ry="10" id="apt_f02_a01" />
<text x="275.0" y="1960.0000000000002" class="tiny" text-anchor="middle" dominant-baseline="middle">1 ком. квартира класса В-48.83м2(11кв)</text>
<rect x="470.0" y="1901.3333333333335" width="350.0" height="117.33333333333334" class="apt" rx="10" ry="10" id="apt_f02_a02" />
<text x="645.0" y="1960.0000000000002" class="tiny" text-anchor="middle" dominant-baseline="middle">2 ком. квартира класса Б-73.22м2(12кв)</text>
<rect x="840.0" y="1901.3333333333335" width="350.0" height="117.33333333333334" class="apt" rx="10" ry="10" id="apt_f02_a03" />
<text x="1015.0" y="1960.0000000000002" class="tiny" text-anchor="middle" dominant-baseline="middle">1 ком. квартира класса Б-48.22м2(13кв)</text>
<rect x="1210.0" y="1901.3333333333335" width="350.0" height="117.33333333333334" class="apt" rx="10" ry="10" id="apt_f02_a04" />
<text x="1385.0" y="1960.0000000000002" class="tiny" text-anchor="middle" dominant-baseline="middle">1 ком. квартира класса А-53.12м2(14кв)</text>
<rect x="1580.0" y="1901.3333333333335" width="350.0" height="117.33333333333334" class="apt" rx="10" ry="10" id="apt_f02_a05" />
<text x="1755.0" y="1960.0000000000002" class="tiny" text-anchor="middle" dominant-baseline="middle">1 ком. квартира класса А-46.89м2(15кв)</text>
<rect x="2090.0" y="1901.3333333333335" width="350.0" height="117.33333333333334" class="apt" rx="10" ry="10" id="apt_f02_a06" />
<text x="2265.0" y="1960.0000000000002" class="tiny" text-anchor="middle" dominant-baseline="middle">1 ком. квартира класса В-48.83м2(16кв)</text>
<rect x="2460.0" y="1901.3333333333335" width="350.0" height="117.33333333333334" class="apt" rx="10" ry="10" id="apt_f02_a07" />
<text x="2635.0" y="1960.0000000000002" class="tiny" text-anchor="middle" dominant-baseline="middle">2 ком. квартира класса Б-73.22м2(17кв)</text>
<rect x="2830.0" y="1901.3333333333335" width="350.0" height="117.33333333333334" class="apt" rx="10" ry="10" id="apt_f02_a08" />
<text x="3005.0" y="1960.0000000000002" class="tiny" text-anchor="middle" dominant-baseline="middle">1 ком. квартира класса Б-48.22м2(18кв)</text>
<rect x="3200.0" y="1901.3333333333335" width="350.0" height="117.33333333333334" class="apt" rx="10" ry="10" id="apt_f02_a09" />
<text x="3375.0" y="1960.0000000000002" class="tiny" text-anchor="middle" dominant-baseline="middle">1 ком. квартира класса А-53.12м2(19кв)</text>
<rect x="3570.0" y="1901.3333333333335" width="350.0" height="117.33333333333334" class="apt" rx="10" ry="10" id="apt_f02_a10" />
<text x="3745.0" y="1960.0000000000002" class="tiny" text-anchor="middle" dominant-baseline="middle">1 ком. квартира класса А-46.89м2(20кв)</text>
<text x="2010.0" y="2089.3333333333335" class="small" text-anchor="middle" dominant-baseline="middle">1</text>
<rect x="100.0" y="2030.6666666666667" width="350.0" height="117.33333333333334" class="apt" rx="10" ry="10" id="apt_f01_a01" />
<text x="275.0" y="2089.3333333333335" class="tiny" text-anchor="middle" dominant-baseline="middle">1 ком. квартира класса В-48.83м2(1кв)</text>
<rect x="470.0" y="2030.6666666666667" width="350.0" height="117.33333333333334" class="apt" rx="10" ry="10" id="apt_f01_a02" />
<text x="645.0" y="2089.3333333333335" class="tiny" text-anchor="middle" dominant-baseline="middle">2 ком. квартира класса Б-73.22м2(2кв)</text>
<rect x="840.0" y="2030.6666666666667" width="350.0" height="117.33333333333334" class="apt" rx="10" ry="10" id="apt_f01_a03" />
<text x="1015.0" y="2089.3333333333335" class="tiny" text-anchor="middle" dominant-baseline="middle">1 ком. квартира класса Б-48.22м2(3кв)</text>
<rect x="1210.0" y="2030.6666666666667" width="350.0" height="117.33333333333334" class="apt" rx="10" ry="10" id="apt_f01_a04" />
<text x="1385.0" y="2089.3333333333335" class="tiny" text-anchor="middle" dominant-baseline="middle">1 ком. квартира класса А-53.12м2(4кв)</text>
<rect x="1580.0" y="2030.6666666666667" width="350.0" height="117.33333333333334" class="apt" rx="10" ry="10" id="apt_f01_a05" />
<text x="1755.0" y="2089.3333333333335" class="tiny" text-anchor="middle" dominant-baseline="middle">2 ком. квартира класса А-81.02м2(5кв)</text>
<rect x="2090.0" y="2030.6666666666667" width="350.0" height="117.33333333333334" class="apt" rx="10" ry="10" id="apt_f01_a06" />
<text x="2265.0" y="2089.3333333333335" class="tiny" text-anchor="middle" dominant-baseline="middle">1 ком. квартира класса В-48.83м2(6кв)</text>
<rect x="2460.0" y="2030.6666666666667" width="350.0" height="117.33333333333334" class="apt" rx="10" ry="10" id="apt_f01_a07" />
<text x="2635.0" y="2089.3333333333335" class="tiny" text-anchor="middle" dominant-baseline="middle">2 ком. квартира класса Б-73.22м2(7кв)</text>
<rect x="2830.0" y="2030.6666666666667" width="350.0" height="117.33333333333334" class="apt" rx="10" ry="10" id="apt_f01_a08" />
<text x="3005.0" y="2089.3333333333335" class="tiny" text-anchor="middle" dominant-baseline="middle">1 ком. квартира класса Б-48.22м2(8кв)</text>
<rect x="3200.0" y="2030.6666666666667" width="350.0" height="117.33333333333334" class="apt" rx="10" ry="10" id="apt_f01_a09" />
<text x="3375.0" y="2089.3333333333335" class="tiny" text-anchor="middle" dominant-baseline="middle">1 ком. квартира класса А-53.12м2(9кв)</text>
<rect x="3570.0" y="2030.6666666666667" width="350.0" height="117.33333333333334" class="apt" rx="10" ry="10" id="apt_f01_a10" />
<text x="3745.0" y="2089.3333333333335" class="tiny" text-anchor="middle" dominant-baseline="middle">2 ком. квартира класса А-81.02м2(10кв)</text>
</svg>