<?xml version="1.0" encoding="UTF-8"?>
<svg id="Layer_2" data-name="Layer 2" xmlns="http://www.w3.org/2000/svg" viewBox="0 0 2759.34 2175.27">
  <defs>
    <style>
      .cls-1, .cls-2 {
        font-size: 45px;
      }

      .cls-1, .cls-2, .cls-3, .cls-4 {
        font-family: Arial-BoldMT, Arial;
        font-weight: 700;
      }

      .cls-1, .cls-2, .cls-4 {
        fill: #fff;
      }

      .cls-5 {
        fill: #00a651;
        stroke-width: 2px;
      }

      .cls-5, .cls-6 {
        stroke: #1a1a1a;
      }

      .cls-7 {
        fill: #f7f8f8;
        stroke: #131313;
      }

      .cls-7, .cls-6 {
        stroke-width: 3px;
      }

      .cls-6 {
        fill: #ae4e4e;
      }

      .cls-2, .cls-3, .cls-4 {
        isolation: isolate;
      }

      .cls-3 {
        fill: #131313;
        font-size: 55px;
      }

      .cls-8 {
        letter-spacing: -.06em;
      }

      .cls-9 {
        letter-spacing: -.06em;
      }

      .cls-10 {
        letter-spacing: -.01em;
      }

      .cls-4 {
        font-size: 150px;
      }
    </style>
  </defs>
  <g id="Layer_1-2" data-name="Layer 1">
    <g>
      <path class="cls-6" d="M2755.31,236.29H161.77c-5.86,0-3.8-3.71-2.36-6.31L286.48,1.5h2343.3l127.56,229.36c1.25,2.24.06,5.43-2.03,5.43Z"/>
      <text class="cls-4" transform="translate(1222.04 190.7)"><tspan x="0" y="0">Б</tspan><tspan class="cls-10" x="107.81" y="0">л</tspan><tspan x="201.12" y="0">ок 9 </tspan></text>
      <rect class="cls-7" x="157.84" y="233.77" width="2600" height="1940"/>
      <text class="cls-3" transform="translate(0 338.43)"><tspan x="0" y="0">15</tspan></text>
      <text class="cls-3" transform="translate(0 465.83)"><tspan x="0" y="0">14</tspan></text>
      <text class="cls-3" transform="translate(0 593.13)"><tspan x="0" y="0">13</tspan></text>
      <text class="cls-3" transform="translate(0 720.43)"><tspan x="0" y="0">12</tspan></text>
      <text class="cls-3" transform="translate(1 847.83)"><tspan class="cls-8" x="0" y="0">1</tspan><tspan x="27.55" y="0">1</tspan></text>
      <text class="cls-3" transform="translate(0 975.13)"><tspan x="0" y="0">10</tspan></text>
      <text class="cls-3" transform="translate(10 1102.43)"><tspan x="0" y="0">9</tspan></text>
      <text class="cls-3" transform="translate(10 1229.83)"><tspan x="0" y="0">8</tspan></text>
      <text class="cls-3" transform="translate(10 1357.13)"><tspan x="0" y="0">7</tspan></text>
      <text class="cls-3" transform="translate(10 1484.43)"><tspan x="0" y="0">6</tspan></text>
      <text class="cls-3" transform="translate(10 1611.83)"><tspan x="0" y="0">5</tspan></text>
      <text class="cls-3" transform="translate(10 1739.13)"><tspan x="0" y="0">4</tspan></text>
      <text class="cls-3" transform="translate(10 1866.43)"><tspan x="0" y="0">3</tspan></text>
      <text class="cls-3" transform="translate(10 1993.83)"><tspan x="0" y="0">2</tspan></text>
      <text class="cls-3" transform="translate(10 2121.13)"><tspan x="0" y="0">1</tspan></text>
      <rect id="apt_f15_a011151" data-name="apt f15 a011151" class="cls-5" x="179.84" y="2037.07" width="500" height="117.3"/>
      <text class="cls-1" transform="translate(197.94 2116.3)"><tspan x="0" y="0">2 </tspan><tspan class="cls-10" x="37.53" y="0">ко</tspan><tspan x="86.35" y="0">м.75.47м2(1кв)</tspan></text>
      <rect id="apt_f15_a011152" data-name="apt f15 a011152" class="cls-5" x="693.84" y="2036.72" width="500" height="117.3"/>
      <text class="cls-1" transform="translate(711.54 2116.4)"><tspan x="0" y="0">2 </tspan><tspan class="cls-10" x="37.53" y="0">ко</tspan><tspan x="86.35" y="0">м. 81.33м2(2кв)</tspan></text>
      <rect id="apt_f15_a011153" data-name="apt f15 a011153" class="cls-5" x="1207.84" y="2037.35" width="500" height="117.3"/>
      <text class="cls-2" transform="translate(1238.17 2116.3)"><tspan x="0" y="0">2 </tspan><tspan class="cls-10" x="37.53" y="0">ко</tspan><tspan x="86.35" y="0">м.74.49м2(3кв)</tspan></text>
      <rect id="apt_f15_a011154" data-name="apt f15 a011154" class="cls-5" x="1721.84" y="2036.8" width="500" height="117.3"/>
      <text class="cls-2" transform="translate(1738.8 2116.3)"><tspan x="0" y="0">2 </tspan><tspan class="cls-10" x="37.53" y="0">ко</tspan><tspan x="86.35" y="0">м.74.60м2(4кв)</tspan></text>
      <rect id="apt_f15_a011155" data-name="apt f15 a011155" class="cls-5" x="2235.84" y="2036.9" width="500" height="117.3"/>
      <text class="cls-1" transform="translate(2263.25 2112.71)"><tspan x="0" y="0">1 </tspan><tspan class="cls-10" x="37.53" y="0">ко</tspan><tspan x="86.35" y="0">м.45.93м2(5кв)</tspan></text>
      <rect id="apt_f15_a01115" data-name="apt f15 a01115" class="cls-5" x="179.84" y="1909.77" width="500" height="117.3"/>
      <text class="cls-1" transform="translate(197.94 1989)"><tspan x="0" y="0">2 </tspan><tspan class="cls-10" x="37.53" y="0">ко</tspan><tspan x="86.35" y="0">м.75.47м2(6кв)</tspan></text>
      <rect id="apt_f15_a02115" data-name="apt f15 a02115" class="cls-5" x="693.84" y="1909.42" width="500" height="117.3"/>
      <text class="cls-1" transform="translate(711.54 1989.1)"><tspan x="0" y="0">2 </tspan><tspan class="cls-10" x="37.53" y="0">ко</tspan><tspan x="86.35" y="0">м.81.33м2(7кв)</tspan></text>
      <rect id="apt_f15_a03115" data-name="apt f15 a03115" class="cls-5" x="1207.84" y="1910.05" width="500" height="117.3"/>
      <text class="cls-2" transform="translate(1231.04 1989.1)"><tspan x="0" y="0">2 </tspan><tspan class="cls-10" x="37.53" y="0">ко</tspan><tspan x="86.35" y="0">м.74.49м2(8кв)</tspan></text>
      <rect id="apt_f15_a04115" data-name="apt f15 a04115" class="cls-5" x="1721.84" y="1909.5" width="500" height="117.3"/>
      <text class="cls-2" transform="translate(1738.8 1989.1)"><tspan x="0" y="0">2 </tspan><tspan class="cls-10" x="37.53" y="0">ко</tspan><tspan x="86.35" y="0">м.74.60м2(9кв)</tspan></text>
      <rect id="apt_f15_a05215" data-name="apt f15 a05215" class="cls-5" x="2235.84" y="1909.6" width="500" height="117.3"/>
      <text class="cls-1" transform="translate(2263.25 1985.51)"><tspan x="0" y="0">1 </tspan><tspan class="cls-10" x="37.53" y="0">ко</tspan><tspan x="86.35" y="0">м.45.93м2(10кв)</tspan></text>
      <rect id="apt_f15_a01121" data-name="apt f15 a01121" class="cls-5" x="179.84" y="1782.47" width="500" height="117.3"/>
      <text class="cls-1" transform="translate(194.14 1861.7)"><tspan x="0" y="0">2 </tspan><tspan class="cls-10" x="37.53" y="0">ко</tspan><tspan x="86.35" y="0">м.75.47м2(</tspan><tspan class="cls-9" x="318.05" y="0">1</tspan><tspan x="340.6" y="0">1кв)</tspan></text>
      <rect id="apt_f15_a02121" data-name="apt f15 a02121" class="cls-5" x="693.84" y="1782.12" width="500" height="117.3"/>
      <text class="cls-1" transform="translate(707.74 1861.7)"><tspan x="0" y="0">2 </tspan><tspan class="cls-10" x="37.53" y="0">ко</tspan><tspan x="86.35" y="0">м.81.33м2(12кв)</tspan></text>
      <rect id="apt_f15_a03121" data-name="apt f15 a03121" class="cls-5" x="1207.84" y="1782.75" width="500" height="117.3"/>
      <text class="cls-2" transform="translate(1231.04 1861.7)"><tspan x="0" y="0">2 </tspan><tspan class="cls-10" x="37.53" y="0">ко</tspan><tspan x="86.35" y="0">м.74.49м2(13кв)</tspan></text>
      <rect id="apt_f15_a04121" data-name="apt f15 a04121" class="cls-5" x="1721.84" y="1782.3" width="500" height="117.3"/>
      <text class="cls-2" transform="translate(1738.8 1861.7)"><tspan x="0" y="0">2 </tspan><tspan class="cls-10" x="37.53" y="0">ко</tspan><tspan x="86.35" y="0">м.74.60м2(14кв)</tspan></text>
      <rect id="apt_f15_a05221" data-name="apt f15 a05221" class="cls-5" x="2235.84" y="1782.3" width="500" height="117.3"/>
      <text class="cls-1" transform="translate(2258.55 1857.98)"><tspan x="0" y="0">1 </tspan><tspan class="cls-10" x="37.53" y="0">ко</tspan><tspan x="86.35" y="0">м.45.93м2(15кв)</tspan></text>
      <rect id="apt_f15_a01131" data-name="apt f15 a01131" class="cls-5" x="179.84" y="1655.07" width="500" height="117.3"/>
      <text class="cls-1" transform="translate(192.94 1734.3)"><tspan x="0" y="0">2 </tspan><tspan class="cls-10" x="37.53" y="0">ко</tspan><tspan x="86.35" y="0">м.75.47м2(16кв)</tspan></text>
      <rect id="apt_f15_a02131" data-name="apt f15 a02131" class="cls-5" x="693.84" y="1654.72" width="500" height="117.3"/>
      <text class="cls-1" transform="translate(707.74 1734.4)"><tspan x="0" y="0">2 </tspan><tspan class="cls-10" x="37.53" y="0">ко</tspan><tspan x="86.35" y="0">м.81.33м2(17кв)</tspan></text>
      <rect id="apt_f15_a03131" data-name="apt f15 a03131" class="cls-5" x="1207.84" y="1655.35" width="500" height="117.3"/>
      <text class="cls-2" transform="translate(1224.24 1734.3)"><tspan x="0" y="0">2 </tspan><tspan class="cls-10" x="37.53" y="0">ко</tspan><tspan x="86.35" y="0">м.74.49м2(18кв)</tspan></text>
      <rect id="apt_f15_a04131" data-name="apt f15 a04131" class="cls-5" x="1721.84" y="1654.8" width="500" height="117.3"/>
      <text class="cls-2" transform="translate(1738.8 1734.3)"><tspan x="0" y="0">2 </tspan><tspan class="cls-10" x="37.53" y="0">ко</tspan><tspan x="86.35" y="0">м.74.60м2(19кв)</tspan></text>
      <rect id="apt_f15_a05231" data-name="apt f15 a05231" class="cls-5" x="2235.84" y="1654.9" width="500" height="117.3"/>
      <text class="cls-1" transform="translate(2258.55 1732.01)"><tspan x="0" y="0">1 </tspan><tspan class="cls-10" x="37.53" y="0">ко</tspan><tspan x="86.35" y="0">м.45.93м2(20кв)</tspan></text>
      <rect id="apt_f15_a01141" data-name="apt f15 a01141" class="cls-5" x="179.84" y="1527.67" width="500" height="117.3"/>
      <text class="cls-1" transform="translate(191.94 1606.9)"><tspan x="0" y="0">2 </tspan><tspan class="cls-10" x="37.53" y="0">ко</tspan><tspan x="86.35" y="0">м.75.47м2(21кв)</tspan></text>
      <rect id="apt_f15_a02141" data-name="apt f15 a02141" class="cls-5" x="693.84" y="1527.32" width="500" height="117.3"/>
      <text class="cls-1" transform="translate(706.54 1607)"><tspan x="0" y="0">2 </tspan><tspan class="cls-10" x="37.53" y="0">ко</tspan><tspan x="86.35" y="0">м.81.33м2(22кв)</tspan></text>
      <rect id="apt_f15_a03141" data-name="apt f15 a03141" class="cls-5" x="1207.84" y="1527.95" width="500" height="117.3"/>
      <text class="cls-2" transform="translate(1226.04 1607)"><tspan x="0" y="0">2 </tspan><tspan class="cls-10" x="37.53" y="0">ко</tspan><tspan x="86.35" y="0">м.74.49м2(23кв)</tspan></text>
      <rect id="apt_f15_a04141" data-name="apt f15 a04141" class="cls-5" x="1721.84" y="1527.4" width="500" height="117.3"/>
      <text class="cls-2" transform="translate(1738.8 1606.06)"><tspan x="0" y="0">2 </tspan><tspan class="cls-10" x="37.53" y="0">ко</tspan><tspan x="86.35" y="0">м.74.60м2(24кв)</tspan></text>
      <rect id="apt_f15_a05241" data-name="apt f15 a05241" class="cls-5" x="2235.84" y="1527.5" width="500" height="117.3"/>
      <text class="cls-1" transform="translate(2258.55 1602.47)"><tspan x="0" y="0">1 </tspan><tspan class="cls-10" x="37.53" y="0">ко</tspan><tspan x="86.35" y="0">м.45.93м2(25кв)</tspan></text>
      <rect id="apt_f15_a01151" data-name="apt f15 a01151" class="cls-5" x="179.84" y="1400.27" width="500" height="117.3"/>
      <text class="cls-1" transform="translate(191.94 1479.5)"><tspan x="0" y="0">2 </tspan><tspan class="cls-10" x="37.53" y="0">ко</tspan><tspan x="86.35" y="0">м.75.47м2(26кв)</tspan></text>
      <rect id="apt_f15_a02151" data-name="apt f15 a02151" class="cls-5" x="693.84" y="1399.92" width="500" height="117.3"/>
      <text class="cls-1" transform="translate(704.54 1479.6)"><tspan x="0" y="0">2 </tspan><tspan class="cls-10" x="37.53" y="0">ко</tspan><tspan x="86.35" y="0">м.81.33м2(27кв)</tspan></text>
      <rect id="apt_f15_a03151" data-name="apt f15 a03151" class="cls-5" x="1207.84" y="1400.55" width="500" height="117.3"/>
      <text class="cls-2" transform="translate(1225.04 1479.6)"><tspan x="0" y="0">2 </tspan><tspan class="cls-10" x="37.53" y="0">ко</tspan><tspan x="86.35" y="0">м.74.49м2(28кв)</tspan></text>
      <rect id="apt_f15_a04151" data-name="apt f15 a04151" class="cls-5" x="1721.84" y="1400" width="500" height="117.3"/>
      <text class="cls-2" transform="translate(1738.8 1475.81)"><tspan x="0" y="0">2 </tspan><tspan class="cls-10" x="37.53" y="0">ко</tspan><tspan x="86.35" y="0">м.74.60м2(29кв)</tspan></text>
      <rect id="apt_f15_a05251" data-name="apt f15 a05251" class="cls-5" x="2235.84" y="1400.1" width="500" height="117.3"/>
      <text class="cls-1" transform="translate(2258.55 1472.22)"><tspan x="0" y="0">1 </tspan><tspan class="cls-10" x="37.53" y="0">ко</tspan><tspan x="86.35" y="0">м.45.93м2(30кв)</tspan></text>
      <rect id="apt_f15_a01161" data-name="apt f15 a01161" class="cls-5" x="179.84" y="1272.87" width="500" height="117.3"/>
      <text class="cls-1" transform="translate(191.94 1352.1)"><tspan x="0" y="0">2 </tspan><tspan class="cls-10" x="37.53" y="0">ко</tspan><tspan x="86.35" y="0">м.75.47м2(31кв)</tspan></text>
      <rect id="apt_f15_a02161" data-name="apt f15 a02161" class="cls-5" x="693.84" y="1272.52" width="500" height="117.3"/>
      <text class="cls-1" transform="translate(705.54 1352.2)"><tspan x="0" y="0">2 </tspan><tspan class="cls-10" x="37.53" y="0">ко</tspan><tspan x="86.35" y="0">м.81.33м2(32кв)</tspan></text>
      <rect id="apt_f15_a03161" data-name="apt f15 a03161" class="cls-5" x="1207.84" y="1273.15" width="500" height="117.3"/>
      <text class="cls-2" transform="translate(1223.04 1352.2)"><tspan x="0" y="0">2 </tspan><tspan class="cls-10" x="37.53" y="0">ко</tspan><tspan x="86.35" y="0">м.74.49м2(33кв)</tspan></text>
      <rect id="apt_f15_a04161" data-name="apt f15 a04161" class="cls-5" x="1721.84" y="1272.6" width="500" height="117.3"/>
      <text class="cls-2" transform="translate(1738.8 1349.36)"><tspan x="0" y="0">2 </tspan><tspan class="cls-10" x="37.53" y="0">ко</tspan><tspan x="86.35" y="0">м.74.60м2(34кв)</tspan></text>
      <rect id="apt_f15_a05261" data-name="apt f15 a05261" class="cls-5" x="2235.84" y="1272.7" width="500" height="117.3"/>
      <text class="cls-1" transform="translate(2256.25 1343.39)"><tspan x="0" y="0">1 </tspan><tspan class="cls-10" x="37.53" y="0">ко</tspan><tspan x="86.35" y="0">м.45.93м2(35кв)</tspan></text>
      <rect id="apt_f15_a01171" data-name="apt f15 a01171" class="cls-5" x="179.84" y="1145.47" width="500" height="117.3"/>
      <text class="cls-1" transform="translate(190.94 1224.7)"><tspan x="0" y="0">2 </tspan><tspan class="cls-10" x="37.53" y="0">ко</tspan><tspan x="86.35" y="0">м.75.47м2(36кв)</tspan></text>
      <rect id="apt_f15_a02171" data-name="apt f15 a02171" class="cls-5" x="693.84" y="1145.12" width="500" height="117.3"/>
      <text class="cls-1" transform="translate(703.54 1224.8)"><tspan x="0" y="0">2 </tspan><tspan class="cls-10" x="37.53" y="0">ко</tspan><tspan x="86.35" y="0">м.81.33м2(37кв)</tspan></text>
      <rect id="apt_f15_a03171" data-name="apt f15 a03171" class="cls-5" x="1207.84" y="1145.75" width="500" height="117.3"/>
      <text class="cls-2" transform="translate(1224.04 1224.7)"><tspan x="0" y="0">2 </tspan><tspan class="cls-10" x="37.53" y="0">ко</tspan><tspan x="86.35" y="0">м.74.49м2(38кв)</tspan></text>
      <rect id="apt_f15_a04171" data-name="apt f15 a04171" class="cls-5" x="1721.84" y="1145.2" width="500" height="117.3"/>
      <text class="cls-2" transform="translate(1738.8 1224.7)"><tspan x="0" y="0">2 </tspan><tspan class="cls-10" x="37.53" y="0">ко</tspan><tspan x="86.35" y="0">м.74.60м2(39кв)</tspan></text>
      <rect id="apt_f15_a05271" data-name="apt f15 a05271" class="cls-5" x="2235.84" y="1145.3" width="500" height="117.3"/>
      <text class="cls-1" transform="translate(2258.55 1217.42)"><tspan x="0" y="0">1 </tspan><tspan class="cls-10" x="37.53" y="0">ко</tspan><tspan x="86.35" y="0">м.45.93м2(40кв)</tspan></text>
      <rect id="apt_f15_a01181" data-name="apt f15 a01181" class="cls-5" x="179.84" y="1018.07" width="500" height="117.3"/>
      <text class="cls-1" transform="translate(191.94 1097.3)"><tspan x="0" y="0">2 </tspan><tspan class="cls-10" x="37.53" y="0">ко</tspan><tspan x="86.35" y="0">м.75.47м2(41кв)</tspan></text>
      <rect id="apt_f15_a02181" data-name="apt f15 a02181" class="cls-5" x="693.84" y="1017.72" width="500" height="117.3"/>
      <text class="cls-1" transform="translate(701.54 1097.4)"><tspan x="0" y="0">2 </tspan><tspan class="cls-10" x="37.53" y="0">ко</tspan><tspan x="86.35" y="0">м.81.33м2(42кв)</tspan></text>
      <rect id="apt_f15_a03181" data-name="apt f15 a03181" class="cls-5" x="1207.84" y="1018.35" width="500" height="117.3"/>
      <text class="cls-2" transform="translate(1222.04 1097.4)"><tspan x="0" y="0">2 </tspan><tspan class="cls-10" x="37.53" y="0">ко</tspan><tspan x="86.35" y="0">м.74.49м2(43кв)</tspan></text>
      <rect id="apt_f15_a04181" data-name="apt f15 a04181" class="cls-5" x="1721.84" y="1017.8" width="500" height="117.3"/>
      <text class="cls-2" transform="translate(1738.8 1097.4)"><tspan x="0" y="0">2 </tspan><tspan class="cls-10" x="37.53" y="0">ко</tspan><tspan x="86.35" y="0">м.74.60м2(44кв)</tspan></text>
      <rect id="apt_f15_a05281" data-name="apt f15 a05281" class="cls-5" x="2235.84" y="1017.9" width="500" height="117.3"/>
      <text class="cls-1" transform="translate(2257.25 1072.91)"><tspan x="0" y="0">1 </tspan><tspan class="cls-10" x="37.53" y="0">ко</tspan><tspan x="86.35" y="0">м.45.93м2(45кв)</tspan></text>
      <rect id="apt_f15_a01191" data-name="apt f15 a01191" class="cls-5" x="179.84" y="890.67" width="500" height="117.3"/>
      <text class="cls-1" transform="translate(189.94 969.9)"><tspan x="0" y="0">2 </tspan><tspan class="cls-10" x="37.53" y="0">ко</tspan><tspan x="86.35" y="0">м.75.47м2(46кв)</tspan></text>
      <rect id="apt_f15_a02191" data-name="apt f15 a02191" class="cls-5" x="693.84" y="890.32" width="500" height="117.3"/>
      <text class="cls-1" transform="translate(706.54 970)"><tspan x="0" y="0">2 </tspan><tspan class="cls-10" x="37.53" y="0">ко</tspan><tspan x="86.35" y="0">м.81.33м2(47кв)</tspan></text>
      <rect id="apt_f15_a03191" data-name="apt f15 a03191" class="cls-5" x="1207.84" y="890.95" width="500" height="117.3"/>
      <text class="cls-2" transform="translate(1226.04 970)"><tspan x="0" y="0">2 </tspan><tspan class="cls-10" x="37.53" y="0">ко</tspan><tspan x="86.35" y="0">м.74.49м2(48кв)</tspan></text>
      <rect id="apt_f15_a04191" data-name="apt f15 a04191" class="cls-5" x="1721.84" y="890.4" width="500" height="117.3"/>
      <text class="cls-2" transform="translate(1738.8 970)"><tspan x="0" y="0">2 </tspan><tspan class="cls-10" x="37.53" y="0">ко</tspan><tspan x="86.35" y="0">м.74.60м2(49кв)</tspan></text>
      <rect id="apt_f15_a05291" data-name="apt f15 a05291" class="cls-5" x="2235.84" y="890.5" width="500" height="117.3"/>
      <text class="cls-1" transform="translate(2257.25 961.67)"><tspan x="0" y="0">1 </tspan><tspan class="cls-10" x="37.53" y="0">ко</tspan><tspan x="86.35" y="0">м.45.93м2(50кв)</tspan></text>
      <rect id="apt_f15_a011101" data-name="apt f15 a011101" class="cls-5" x="179.84" y="763.27" width="500" height="117.3"/>
      <text class="cls-1" transform="translate(192.94 842.5)"><tspan x="0" y="0">2 </tspan><tspan class="cls-10" x="37.53" y="0">ко</tspan><tspan x="86.35" y="0">м.75.47м2(51кв)</tspan></text>
      <rect id="apt_f15_a021101" data-name="apt f15 a021101" class="cls-5" x="693.84" y="762.92" width="500" height="117.3"/>
      <text class="cls-1" transform="translate(707.54 842.6)"><tspan x="0" y="0">2 </tspan><tspan class="cls-10" x="37.53" y="0">ко</tspan><tspan x="86.35" y="0">м.81.33м2(52кв)</tspan></text>
      <rect id="apt_f15_a031101" data-name="apt f15 a031101" class="cls-5" x="1207.84" y="763.55" width="500" height="117.3"/>
      <text class="cls-2" transform="translate(1228.04 842.6)"><tspan x="0" y="0">2 </tspan><tspan class="cls-10" x="37.53" y="0">ко</tspan><tspan x="86.35" y="0">м.74.49м2(53кв)</tspan></text>
      <rect id="apt_f15_a041101" data-name="apt f15 a041101" class="cls-5" x="1721.84" y="763" width="500" height="117.3"/>
      <text class="cls-2" transform="translate(1738.8 834.53)"><tspan x="0" y="0">2 </tspan><tspan class="cls-10" x="37.53" y="0">ко</tspan><tspan x="86.35" y="0">м.74.60м2(54кв)</tspan></text>
      <rect id="apt_f15_a052101" data-name="apt f15 a052101" class="cls-5" x="2235.84" y="763.1" width="500" height="117.3"/>
      <text class="cls-1" transform="translate(2257.25 830.94)"><tspan x="0" y="0">1 </tspan><tspan class="cls-10" x="37.53" y="0">ко</tspan><tspan x="86.35" y="0">м.45.93м2(55кв)</tspan></text>
      <rect id="apt_f15_a011111" data-name="apt f15 a011111" class="cls-5" x="179.84" y="635.87" width="500" height="117.3"/>
      <text class="cls-1" transform="translate(190.94 716.1)"><tspan x="0" y="0">2 </tspan><tspan class="cls-10" x="37.53" y="0">ко</tspan><tspan x="86.35" y="0">м.75.47м2(56кв)</tspan></text>
      <rect id="apt_f15_a021111" data-name="apt f15 a021111" class="cls-5" x="693.84" y="635.52" width="500" height="117.3"/>
      <text class="cls-1" transform="translate(705.54 715.2)"><tspan x="0" y="0">2 </tspan><tspan class="cls-10" x="37.53" y="0">ко</tspan><tspan x="86.35" y="0">м.81.33м2(57кв)</tspan></text>
      <rect id="apt_f15_a031111" data-name="apt f15 a031111" class="cls-5" x="1207.84" y="636.15" width="500" height="117.3"/>
      <text class="cls-2" transform="translate(1228.04 716.1)"><tspan x="0" y="0">2 </tspan><tspan class="cls-10" x="37.53" y="0">ко</tspan><tspan x="86.35" y="0">м.74.49м2(58кв)</tspan></text>
      <rect id="apt_f15_a041111" data-name="apt f15 a041111" class="cls-5" x="1721.84" y="635.6" width="500" height="117.3"/>
      <text class="cls-2" transform="translate(1738.8 716.1)"><tspan x="0" y="0">2 </tspan><tspan class="cls-10" x="37.53" y="0">ко</tspan><tspan x="86.35" y="0">м.74.60м2(59кв)</tspan></text>
      <rect id="apt_f15_a052111" data-name="apt f15 a052111" class="cls-5" x="2235.84" y="635.7" width="500" height="117.3"/>
      <text class="cls-1" transform="translate(2257.25 712.51)"><tspan x="0" y="0">1 </tspan><tspan class="cls-10" x="37.53" y="0">ко</tspan><tspan x="86.35" y="0">м.45.93м2(60кв)</tspan></text>
      <rect id="apt_f15_a011121" data-name="apt f15 a011121" class="cls-5" x="179.84" y="508.47" width="500" height="117.3"/>
      <text class="cls-1" transform="translate(191.94 587.7)"><tspan x="0" y="0">2 </tspan><tspan class="cls-10" x="37.53" y="0">ко</tspan><tspan x="86.35" y="0">м.75.47м2(61кв)</tspan></text>
      <rect id="apt_f15_a021121" data-name="apt f15 a021121" class="cls-5" x="693.84" y="508.12" width="500" height="117.3"/>
      <text class="cls-1" transform="translate(706.54 587.8)"><tspan x="0" y="0">2 </tspan><tspan class="cls-10" x="37.53" y="0">ко</tspan><tspan x="86.35" y="0">м.81.33м2(62кв)</tspan></text>
      <rect id="apt_f15_a031121" data-name="apt f15 a031121" class="cls-5" x="1207.84" y="508.75" width="500" height="117.3"/>
      <text class="cls-2" transform="translate(1225.04 587.8)"><tspan x="0" y="0">2 </tspan><tspan class="cls-10" x="37.53" y="0">ко</tspan><tspan x="86.35" y="0">м.74.49м2(63кв)</tspan></text>
      <rect id="apt_f15_a041121" data-name="apt f15 a041121" class="cls-5" x="1721.84" y="508.2" width="500" height="117.3"/>
      <text class="cls-2" transform="translate(1738.8 587.8)"><tspan x="0" y="0">2 </tspan><tspan class="cls-10" x="37.53" y="0">ко</tspan><tspan x="86.35" y="0">м.74.60м2(64кв)</tspan></text>
      <rect id="apt_f15_a052121" data-name="apt f15 a052121" class="cls-5" x="2235.84" y="508.3" width="500" height="117.3"/>
      <text class="cls-1" transform="translate(2258.55 584.21)"><tspan x="0" y="0">1 </tspan><tspan class="cls-10" x="37.53" y="0">ко</tspan><tspan x="86.35" y="0">м.45.93м2(65кв)</tspan></text>
      <rect id="apt_f15_a011131" data-name="apt f15 a011131" class="cls-5" x="179.84" y="381.07" width="500" height="117.3"/>
      <text class="cls-1" transform="translate(189.94 460.3)"><tspan x="0" y="0">2 </tspan><tspan class="cls-10" x="37.53" y="0">ко</tspan><tspan x="86.35" y="0">м.75.47м2(66кв)</tspan></text>
      <rect id="apt_f15_a021131" data-name="apt f15 a021131" class="cls-5" x="693.84" y="380.72" width="500" height="117.3"/>
      <text class="cls-1" transform="translate(705.54 460.4)"><tspan x="0" y="0">2 </tspan><tspan class="cls-10" x="37.53" y="0">ко</tspan><tspan x="86.35" y="0">м.81.33м2(67кв)</tspan></text>
      <rect id="apt_f15_a031131" data-name="apt f15 a031131" class="cls-5" x="1207.84" y="381.35" width="500" height="117.3"/>
      <text class="cls-2" transform="translate(1224.04 460.4)"><tspan x="0" y="0">2 </tspan><tspan class="cls-10" x="37.53" y="0">ко</tspan><tspan x="86.35" y="0">м.74.49м2(68кв)</tspan></text>
      <rect id="apt_f15_a041131" data-name="apt f15 a041131" class="cls-5" x="1721.84" y="380.8" width="500" height="117.3"/>
      <text class="cls-2" transform="translate(1738.8 460.4)"><tspan x="0" y="0">2 </tspan><tspan class="cls-10" x="37.53" y="0">ко</tspan><tspan x="86.35" y="0">м.74.60м2(69кв)</tspan></text>
      <rect id="apt_f15_a052131" data-name="apt f15 a052131" class="cls-5" x="2235.84" y="380.9" width="500" height="117.3"/>
      <text class="cls-1" transform="translate(2257.25 456.81)"><tspan x="0" y="0">1 </tspan><tspan class="cls-10" x="37.53" y="0">ко</tspan><tspan x="86.35" y="0">м.45.93м2(70кв)</tspan></text>
      <rect id="apt_f15_a011141" data-name="apt f15 a011141" class="cls-5" x="179.84" y="253.67" width="500" height="117.3"/>
      <text class="cls-1" transform="translate(190.94 332.9)"><tspan x="0" y="0">2 </tspan><tspan class="cls-10" x="37.53" y="0">ко</tspan><tspan x="86.35" y="0">м.75.47м2(71кв)</tspan></text>
      <rect id="apt_f15_a021141" data-name="apt f15 a021141" class="cls-5" x="693.84" y="253.32" width="500" height="117.3"/>
      <text class="cls-1" transform="translate(706.54 333)"><tspan x="0" y="0">2 </tspan><tspan class="cls-10" x="37.53" y="0">ко</tspan><tspan x="86.35" y="0">м.81.33м2(72кв)</tspan></text>
      <rect id="apt_f15_a031141" data-name="apt f15 a031141" class="cls-5" x="1207.84" y="253.95" width="500" height="117.3"/>
      <text class="cls-2" transform="translate(1228.04 333)"><tspan x="0" y="0">2 </tspan><tspan class="cls-10" x="37.53" y="0">ко</tspan><tspan x="86.35" y="0">м.74.49м2(73кв)</tspan></text>
      <rect id="apt_f15_a041141" data-name="apt f15 a041141" class="cls-5" x="1721.84" y="253.4" width="500" height="117.3"/>
      <text class="cls-2" transform="translate(1738.8 333)"><tspan x="0" y="0">2 </tspan><tspan class="cls-10" x="37.53" y="0">ко</tspan><tspan x="86.35" y="0">м.74.60м2(74кв)</tspan></text>
      <rect id="apt_f15_a052141" data-name="apt f15 a052141" class="cls-5" x="2235.84" y="253.5" width="500" height="117.3"/>
      <text class="cls-1" transform="translate(2257.25 329.41)"><tspan x="0" y="0">1 </tspan><tspan class="cls-10" x="37.53" y="0">ко</tspan><tspan x="86.35" y="0">м.45.93м2(75кв)</tspan></text>
    </g>
  </g>
</svg>