<?xml version='1.0' encoding='utf-8'?>
<svg xmlns="http://www.w3.org/2000/svg" id="Layer_2" data-name="Layer 2" viewBox="0 0 3249.31 2252.4">
  <defs>
    <style>
      .cls-1 {
        fill: #00a651;
        stroke-width: 2px;
      }

      .cls-1, .cls-2 {
        stroke: #1a1a1a;
      }

      .cls-3 {
        fill: #f7f8f8;
        stroke: #131313;
      }

      .cls-3, .cls-2 {
        stroke-width: 3px;
      }

      .cls-4 {
        font-size: 200px;
      }

      .cls-4, .cls-5 {
        fill: #fff;
      }

      .cls-4, .cls-5, .cls-6 {
        font-family: Arial-BoldMT, Arial;
        font-weight: 700;
        isolation: isolate;
      }

      .cls-2 {
        fill: #ae4e4e;
      }

      .cls-5 {
        font-size: 45px;
      }

      .cls-6 {
        fill: #131313;
        font-size: 55px;
      }

      .cls-7 {
        letter-spacing: -.06em;
      }

      .cls-8 {
        letter-spacing: -.06em;
      }

      .cls-9 {
        letter-spacing: -.01em;
      }
    </style>
  </defs>
  <g id="Layer_1-2" data-name="Layer 1">
    <g>
      <path class="cls-3" d="M142.84,283.09h3101.3c2.03,0,3.67,1.65,3.67,3.67v1964.14H134.53V291.4c0-4.58,3.72-8.3,8.3-8.3Z" />
      <text class="cls-6" transform="translate(0 403.46)"><tspan x="0" y="0">15</tspan></text>
      <rect id="apt_b02_f15_a01_kv085" class="cls-1" x="151.63" y="317.1" width="500" height="117.3" data-name="apt b02 f15 a1 kv85" />
      <rect id="apt_b02_f15_a02_kv086" class="cls-1" x="665.63" y="317.1" width="500" height="117.3" data-name="apt b02 f15 a2 kv86" />
      <rect id="apt_b02_f15_a03_kv087" class="cls-1" x="1179.63" y="317.1" width="500" height="117.3" data-name="apt b02 f15 a3 kv87" />
      <rect id="apt_b02_f15_a04_kv088" class="cls-1" x="1691.17" y="317.1" width="500" height="117.3" data-name="apt b02 f15 a4 kv88" />
      <rect id="apt_b02_f15_a05_kv089" class="cls-1" x="2207.63" y="317.1" width="500" height="117.3" data-name="apt b02 f15 a5 kv89" />
      <text class="cls-6" transform="translate(0 530.86)"><tspan x="0" y="0">14</tspan></text>
      <rect id="apt_b02_f14_a01_kv079" class="cls-1" x="151.63" y="444.4" width="500" height="117.3" data-name="apt b02 f14 a1 kv79" />
      <rect id="apt_b02_f14_a02_kv080" class="cls-1" x="665.63" y="444.4" width="500" height="117.3" data-name="apt b02 f14 a2 kv80" />
      <rect id="apt_b02_f14_a03_kv081" class="cls-1" x="1179.63" y="444.4" width="500" height="117.3" data-name="apt b02 f14 a3 kv81" />
      <rect id="apt_b02_f14_a04_kv082" class="cls-1" x="1691.17" y="444.4" width="500" height="117.3" data-name="apt b02 f14 a4 kv82" />
      <rect id="apt_b02_f14_a05_kv083" class="cls-1" x="2207.63" y="444.4" width="500" height="117.3" data-name="apt b02 f14 a5 kv83" />
      <text class="cls-6" transform="translate(0 658.16)"><tspan x="0" y="0">13</tspan></text>
      <rect id="apt_b02_f13_a01_kv073" class="cls-1" x="151.63" y="571.7" width="500" height="117.3" data-name="apt b02 f13 a1 kv73" />
      <rect id="apt_b02_f13_a02_kv074" class="cls-1" x="665.63" y="571.7" width="500" height="117.3" data-name="apt b02 f13 a2 kv74" />
      <rect id="apt_b02_f13_a03_kv075" class="cls-1" x="1179.63" y="571.7" width="500" height="117.3" data-name="apt b02 f13 a3 kv75" />
      <rect id="apt_b02_f13_a04_kv076" class="cls-1" x="1691.17" y="571.7" width="500" height="117.3" data-name="apt b02 f13 a4 kv76" />
      <rect id="apt_b02_f13_a05_kv077" class="cls-1" x="2207.63" y="571.7" width="500" height="117.3" data-name="apt b02 f13 a5 kv77" />
      <text class="cls-6" transform="translate(0 785.46)"><tspan x="0" y="0">12</tspan></text>
      <rect id="apt_b02_f12_a01_kv067" class="cls-1" x="151.63" y="699.1" width="500" height="117.3" data-name="apt b02 f12 a1 kv67" />
      <rect id="apt_b02_f12_a02_kv068" class="cls-1" x="665.63" y="699.1" width="500" height="117.3" data-name="apt b02 f12 a2 kv68" />
      <rect id="apt_b02_f12_a03_kv069" class="cls-1" x="1179.63" y="699.1" width="500" height="117.3" data-name="apt b02 f12 a3 kv69" />
      <rect id="apt_b02_f12_a04_kv070" class="cls-1" x="1691.17" y="699.1" width="500" height="117.3" data-name="apt b02 f12 a4 kv70" />
      <rect id="apt_b02_f12_a05_kv071" class="cls-1" x="2207.63" y="699.1" width="500" height="117.3" data-name="apt b02 f12 a5 kv71" />
      <text class="cls-6" transform="translate(1 912.86)"><tspan class="cls-7" x="0" y="0">1</tspan><tspan x="27.55" y="0">1</tspan></text>
      <rect id="apt_b02_f11_a01_kv061" class="cls-1" x="151.63" y="826.4" width="500" height="117.3" data-name="apt b02 f11 a1 kv61" />
      <rect id="apt_b02_f11_a02_kv062" class="cls-1" x="665.63" y="826.4" width="500" height="117.3" data-name="apt b02 f11 a2 kv62" />
      <rect id="apt_b02_f11_a03_kv063" class="cls-1" x="1179.63" y="826.4" width="500" height="117.3" data-name="apt b02 f11 a3 kv63" />
      <rect id="apt_b02_f11_a04_kv064" class="cls-1" x="1691.17" y="826.4" width="500" height="117.3" data-name="apt b02 f11 a4 kv64" />
      <rect id="apt_b02_f11_a05_kv065" class="cls-1" x="2207.63" y="826.4" width="500" height="117.3" data-name="apt b02 f11 a5 kv65" />
      <text class="cls-6" transform="translate(0 1040.16)"><tspan x="0" y="0">10</tspan></text>
      <rect id="apt_b02_f10_a01_kv055" class="cls-1" x="151.63" y="953.7" width="500" height="117.3" data-name="apt b02 f10 a1 kv55" />
      <rect id="apt_b02_f10_a02_kv056" class="cls-1" x="665.63" y="953.7" width="500" height="117.3" data-name="apt b02 f10 a2 kv56" />
      <rect id="apt_b02_f10_a03_kv057" class="cls-1" x="1179.63" y="953.7" width="500" height="117.3" data-name="apt b02 f10 a3 kv57" />
      <rect id="apt_b02_f10_a04_kv058" class="cls-1" x="1691.17" y="953.7" width="500" height="117.3" data-name="apt b02 f10 a4 kv58" />
      <rect id="apt_b02_f09_a04_kv052" class="cls-1" x="1691.17" y="1081.1" width="500" height="117.3" data-name="apt b02 f9 a4 kv52" />
      <rect id="apt_b02_f10_a05_kv059" class="cls-1" x="2207.63" y="953.7" width="500" height="117.3" data-name="apt b02 f10 a5 kv59" />
      <text class="cls-6" transform="translate(10 1167.46)"><tspan x="0" y="0">9</tspan></text>
      <rect id="apt_b02_f09_a01_kv049" class="cls-1" x="151.63" y="1081.1" width="500" height="117.3" data-name="apt b02 f9 a1 kv49" />
      <rect id="apt_b02_f09_a02_kv050" class="cls-1" x="665.63" y="1081.1" width="500" height="117.3" data-name="apt b02 f9 a2 kv50" />
      <rect id="apt_b02_f09_a03_kv051" class="cls-1" x="1179.63" y="1081.1" width="500" height="117.3" data-name="apt b02 f9 a3 kv51" />
      <rect id="apt_b02_f09_a05_kv053" class="cls-1" x="2207.63" y="1081.1" width="500" height="117.3" data-name="apt b02 f9 a5 kv53" />
      <text class="cls-6" transform="translate(10 1294.86)"><tspan x="0" y="0">8</tspan></text>
      <rect id="apt_b02_f08_a01_kv043" class="cls-1" x="151.63" y="1208.4" width="500" height="117.3" data-name="apt b02 f8 a1 kv43" />
      <rect id="apt_b02_f08_a02_kv044" class="cls-1" x="665.63" y="1208.4" width="500" height="117.3" data-name="apt b02 f8 a2 kv44" />
      <rect id="apt_b02_f08_a03_kv045" class="cls-1" x="1179.63" y="1208.4" width="500" height="117.3" data-name="apt b02 f8 a3 kv45" />
      <rect id="apt_b02_f07_a03_kv039" class="cls-1" x="1179.63" y="1335.7" width="500" height="117.3" data-name="apt b02 f7 a3 kv39" />
      <rect id="apt_b02_f08_a04_kv046" class="cls-1" x="1691.17" y="1208.4" width="500" height="117.3" data-name="apt b02 f8 a4 kv46" />
      <rect id="apt_b02_f08_a05_kv047" class="cls-1" x="2207.63" y="1208.4" width="500" height="117.3" data-name="apt b02 f8 a5 kv47" />
      <text class="cls-6" transform="translate(10 1422.16)"><tspan x="0" y="0">7</tspan></text>
      <rect id="apt_b02_f07_a01_kv037" class="cls-1" x="151.63" y="1335.7" width="500" height="117.3" data-name="apt b02 f7 a1 kv37" />
      <rect id="apt_b02_f06_a01_kv031" class="cls-1" x="151.63" y="1463.1" width="500" height="117.3" data-name="apt b02 f6 a1 kv31" />
      <rect id="apt_b02_f07_a02_kv038" class="cls-1" x="665.63" y="1335.7" width="500" height="117.3" data-name="apt b02 f7 a2 kv38" />
      <rect id="apt_b02_f07_a04_kv040" class="cls-1" x="1691.17" y="1335.7" width="500" height="117.3" data-name="apt b02 f7 a4 kv40" />
      <rect id="apt_b02_f07_a05_kv041" class="cls-1" x="2207.63" y="1335.7" width="500" height="117.3" data-name="apt b02 f7 a5 kv41" />
      <text class="cls-6" transform="translate(10 1549.46)"><tspan x="0" y="0">6</tspan></text>
      <rect id="apt_b02_f06_a02_kv032" class="cls-1" x="665.63" y="1463.1" width="500" height="117.3" data-name="apt b02 f6 a2 kv32" />
      <rect id="apt_b02_f06_a03_kv033" class="cls-1" x="1179.63" y="1463.1" width="500" height="117.3" data-name="apt b02 f6 a3 kv33" />
      <rect id="apt_b02_f06_a04_kv034" class="cls-1" x="1691.17" y="1463.1" width="500" height="117.3" data-name="apt b02 f6 a4 kv34" />
      <rect id="apt_b02_f06_a05_kv035" class="cls-1" x="2207.63" y="1463.1" width="500" height="117.3" data-name="apt b02 f6 a5 kv35" />
      <text class="cls-6" transform="translate(10 1676.86)"><tspan x="0" y="0">5</tspan></text>
      <rect id="apt_b02_f05_a01_kv025" class="cls-1" x="151.63" y="1590.4" width="500" height="117.3" data-name="apt b02 f5 a1 kv25" />
      <rect id="apt_b02_f05_a02_kv026" class="cls-1" x="665.63" y="1590.4" width="500" height="117.3" data-name="apt b02 f5 a2 kv26" />
      <rect id="apt_b02_f05_a03_kv027" class="cls-1" x="1179.63" y="1590.4" width="500" height="117.3" data-name="apt b02 f5 a3 kv27" />
      <rect id="apt_b02_f05_a04_kv028" class="cls-1" x="1691.17" y="1590.4" width="500" height="117.3" data-name="apt b02 f5 a4 kv28" />
      <rect id="apt_b02_f05_a05_kv029" class="cls-1" x="2207.63" y="1590.4" width="500" height="117.3" data-name="apt b02 f5 a5 kv29" />
      <text class="cls-6" transform="translate(10 1804.16)"><tspan x="0" y="0">4</tspan></text>
      <rect id="apt_b02_f04_a01_kv019" class="cls-1" x="151.63" y="1717.7" width="500" height="117.3" data-name="apt b02 f4 a1 kv19" />
      <rect id="apt_b02_f04_a02_kv020" class="cls-1" x="665.63" y="1717.7" width="500" height="117.3" data-name="apt b02 f4 a2 kv20" />
      <rect id="apt_b02_f04_a03_kv021" class="cls-1" x="1179.63" y="1717.7" width="500" height="117.3" data-name="apt b02 f4 a3 kv21" />
      <rect id="apt_b02_f04_a04_kv022" class="cls-1" x="1691.17" y="1717.7" width="500" height="117.3" data-name="apt b02 f4 a4 kv22" />
      <rect id="apt_b02_f04_a05_kv023" class="cls-1" x="2207.63" y="1717.7" width="500" height="117.3" data-name="apt b02 f4 a5 kv23" />
      <text class="cls-6" transform="translate(10 1931.46)"><tspan x="0" y="0">3</tspan></text>
      <rect id="apt_b02_f03_a01_kv013" class="cls-1" x="151.63" y="1845.1" width="500" height="117.3" data-name="apt b02 f3 a1 kv13" />
      <rect id="apt_b02_f03_a02_kv014" class="cls-1" x="665.63" y="1845.1" width="500" height="117.3" data-name="apt b02 f3 a2 kv14" />
      <rect id="apt_b02_f02_a02_kv008" class="cls-1" x="665.63" y="1972.4" width="500" height="117.3" data-name="apt b02 f2 a2 kv8" />
      <rect id="apt_b02_f03_a03_kv015" class="cls-1" x="1179.63" y="1845.1" width="500" height="117.3" data-name="apt b02 f3 a3 kv15" />
      <rect id="apt_b02_f02_a03_kv009" class="cls-1" x="1179.63" y="1972.4" width="500" height="117.3" data-name="apt b02 f2 a3 kv9" />
      <rect id="apt_b02_f03_a04_kv016" class="cls-1" x="1691.17" y="1845.1" width="500" height="117.3" data-name="apt b02 f3 a4 kv16" />
      <rect id="apt_b02_f03_a05_kv017" class="cls-1" x="2207.63" y="1845.1" width="500" height="117.3" data-name="apt b02 f3 a5 kv17" />
      <text class="cls-6" transform="translate(10 2058.86)"><tspan x="0" y="0">2</tspan></text>
      <rect id="apt_b02_f02_a01_kv007" class="cls-1" x="151.63" y="1972.4" width="500" height="117.3" data-name="apt b02 f2 a1 kv7" />
      <rect id="apt_b02_f02_a04_kv010" class="cls-1" x="1691.17" y="1972.4" width="500" height="117.3" data-name="apt b02 f2 a4 kv10" />
      <rect id="apt_b02_f02_a05_kv011" class="cls-1" x="2207.63" y="1972.4" width="500" height="117.3" data-name="apt b02 f2 a5 kv11" />
      <text class="cls-6" transform="translate(10 2186.16)"><tspan x="0" y="0">1</tspan></text>
      <rect id="apt_b02_f01_a01_kv001" class="cls-1" x="151.63" y="2099.7" width="500" height="117.3" data-name="apt b02 f1 a1 kv1" />
      <text class="cls-5" transform="translate(179.99 2175.55)"><tspan x="0" y="0">2 </tspan><tspan class="cls-9" x="37.53" y="0">ко</tspan><tspan x="86.35" y="0">м.55.50м2(1кв)</tspan></text>
      <rect id="apt_b02_f01_a02_kv002" class="cls-1" x="665.63" y="2099.7" width="500" height="117.3" data-name="apt b02 f1 a2 kv2" />
      <text class="cls-5" transform="translate(691.88 2174.6)"><tspan x="0" y="0">2 </tspan><tspan class="cls-9" x="37.53" y="0">ко</tspan><tspan x="86.35" y="0">м.91.</tspan><tspan class="cls-7" x="194.7" y="0">1</tspan><tspan x="217.24" y="0">1м2(2кв)</tspan></text>
      <rect id="apt_b02_f01_a03_kv003" class="cls-1" x="1179.63" y="2099.7" width="500" height="117.3" data-name="apt b02 f1 a3 kv3" />
      <text class="cls-5" transform="translate(1192.83 2174.6)"><tspan x="0" y="0">1 </tspan><tspan class="cls-9" x="37.53" y="0">ко</tspan><tspan x="86.35" y="0">м.59.25м2(3кв)</tspan></text>
      <rect id="apt_b02_f01_a04_kv004" class="cls-1" x="1691.17" y="2099.7" width="500" height="117.3" data-name="apt b02 f1 a4 kv4" />
      <text class="cls-5" transform="translate(1717.24 2174.6)"><tspan x="0" y="0">2 </tspan><tspan class="cls-9" x="37.53" y="0">ко</tspan><tspan x="86.35" y="0">м.80.14м2(4кв)</tspan></text>
      <rect id="apt_b02_f01_a05_kv005" class="cls-1" x="2207.63" y="2099.7" width="500" height="117.3" data-name="apt b02 f1 a5 kv5" />
      <text class="cls-5" transform="translate(2234.09 2168.9)"><tspan x="0" y="0">3 </tspan><tspan class="cls-9" x="37.53" y="0">ко</tspan><tspan x="86.35" y="0">м.84.98м2(5кв)</tspan></text>
      <rect id="apt_b02_f15_a06_kv090" class="cls-1" x="2721.63" y="317.1" width="500" height="117.3" data-name="apt b02 f15 a6 kv90" />
      <rect id="apt_b02_f14_a06_kv084" class="cls-1" x="2721.63" y="444.4" width="500" height="117.3" data-name="apt b02 f14 a6 kv84" />
      <rect id="apt_b02_f13_a06_kv078" class="cls-1" x="2721.63" y="571.7" width="500" height="117.3" data-name="apt b02 f13 a6 kv78" />
      <rect id="apt_b02_f12_a06_kv072" class="cls-1" x="2721.63" y="699.1" width="500" height="117.3" data-name="apt b02 f12 a6 kv72" />
      <rect id="apt_b02_f11_a06_kv066" class="cls-1" x="2721.63" y="826.4" width="500" height="117.3" data-name="apt b02 f11 a6 kv66" />
      <rect id="apt_b02_f10_a06_kv060" class="cls-1" x="2721.63" y="953.7" width="500" height="117.3" data-name="apt b02 f10 a6 kv60" />
      <rect id="apt_b02_f09_a06_kv054" class="cls-1" x="2721.63" y="1081.1" width="500" height="117.3" data-name="apt b02 f9 a6 kv54" />
      <rect id="apt_b02_f08_a06_kv048" class="cls-1" x="2721.63" y="1208.4" width="500" height="117.3" data-name="apt b02 f8 a6 kv48" />
      <rect id="apt_b02_f07_a06_kv042" class="cls-1" x="2721.63" y="1335.7" width="500" height="117.3" data-name="apt b02 f7 a6 kv42" />
      <rect id="apt_b02_f06_a06_kv036" class="cls-1" x="2721.63" y="1463.1" width="500" height="117.3" data-name="apt b02 f6 a6 kv36" />
      <rect id="apt_b02_f05_a06_kv030" class="cls-1" x="2721.63" y="1590.4" width="500" height="117.3" data-name="apt b02 f5 a6 kv30" />
      <rect id="apt_b02_f04_a06_kv024" class="cls-1" x="2721.63" y="1717.7" width="500" height="117.3" data-name="apt b02 f4 a6 kv24" />
      <rect id="apt_b02_f03_a06_kv018" class="cls-1" x="2721.63" y="1845.1" width="500" height="117.3" data-name="apt b02 f3 a6 kv18" />
      <rect id="apt_b02_f02_a06_kv012" class="cls-1" x="2721.63" y="1972.4" width="500" height="117.3" data-name="apt b02 f2 a6 kv12" />
      <rect id="apt_b02_f01_a06_kv006" class="cls-1" x="2721.63" y="2099.7" width="500" height="117.3" data-name="apt b02 f1 a6 kv6" />
      <text class="cls-5" transform="translate(2753.34 2167.47)"><tspan x="0" y="0">2 </tspan><tspan class="cls-9" x="37.53" y="0">ко</tspan><tspan x="86.35" y="0">м.82.</tspan><tspan class="cls-7" x="194.7" y="0">1</tspan><tspan x="217.24" y="0">1м2(6кв)</tspan></text>
      <text class="cls-5" transform="translate(179.99 2046.25)"><tspan x="0" y="0">2 </tspan><tspan class="cls-9" x="37.53" y="0">ко</tspan><tspan x="86.35" y="0">м.55.50м2(7кв)</tspan></text>
      <text class="cls-5" transform="translate(691.88 2046.25)"><tspan x="0" y="0">2 </tspan><tspan class="cls-9" x="37.53" y="0">ко</tspan><tspan x="86.35" y="0">м.91.</tspan><tspan class="cls-7" x="194.7" y="0">1</tspan><tspan x="217.24" y="0">1м2(8кв)</tspan></text>
      <text class="cls-5" transform="translate(1192.83 2046.25)"><tspan x="0" y="0">1 </tspan><tspan class="cls-9" x="37.53" y="0">ко</tspan><tspan x="86.35" y="0">м.59.25м2(9кв)</tspan></text>
      <text class="cls-5" transform="translate(1717.24 2046.25)"><tspan x="0" y="0">2 </tspan><tspan class="cls-9" x="37.53" y="0">ко</tspan><tspan x="86.35" y="0">м.80.14м2(10кв)</tspan></text>
      <text class="cls-5" transform="translate(2234.09 2046.25)"><tspan x="0" y="0">3 </tspan><tspan class="cls-9" x="37.53" y="0">ко</tspan><tspan x="86.35" y="0">м.84.98м2(</tspan><tspan class="cls-8" x="318.05" y="0">1</tspan><tspan x="340.6" y="0">1кв)</tspan></text>
      <text class="cls-5" transform="translate(2749.04 2040.07)"><tspan x="0" y="0">2 </tspan><tspan class="cls-9" x="37.53" y="0">ко</tspan><tspan x="86.35" y="0">м.82.</tspan><tspan class="cls-7" x="194.7" y="0">1</tspan><tspan x="217.24" y="0">1м2(12кв)</tspan></text>
      <text class="cls-5" transform="translate(179.99 1918.85)"><tspan x="0" y="0">2 </tspan><tspan class="cls-9" x="37.53" y="0">ко</tspan><tspan x="86.35" y="0">м.55.50м2(13кв)</tspan></text>
      <text class="cls-5" transform="translate(691.88 1918.85)"><tspan x="0" y="0">2 </tspan><tspan class="cls-9" x="37.53" y="0">ко</tspan><tspan x="86.35" y="0">м.91.</tspan><tspan class="cls-7" x="194.7" y="0">1</tspan><tspan x="217.24" y="0">1м2(14кв)</tspan></text>
      <text class="cls-5" transform="translate(1192.83 1918.85)"><tspan x="0" y="0">1 </tspan><tspan class="cls-9" x="37.53" y="0">ко</tspan><tspan x="86.35" y="0">м.59.25м2(15кв)</tspan></text>
      <text class="cls-5" transform="translate(1717.24 1920.75)"><tspan x="0" y="0">2 </tspan><tspan class="cls-9" x="37.53" y="0">ко</tspan><tspan x="86.35" y="0">м.80.14м2(16кв)</tspan></text>
      <text class="cls-5" transform="translate(2234.09 1920.75)"><tspan x="0" y="0">3 </tspan><tspan class="cls-9" x="37.53" y="0">ко</tspan><tspan x="86.35" y="0">м.84.98м2(17кв)</tspan></text>
      <text class="cls-5" transform="translate(2753.34 1919.32)"><tspan x="0" y="0">2 </tspan><tspan class="cls-9" x="37.53" y="0">ко</tspan><tspan x="86.35" y="0">м.82.</tspan><tspan class="cls-7" x="194.7" y="0">1</tspan><tspan x="217.24" y="0">1м2(18кв)</tspan></text>
      <text class="cls-5" transform="translate(179.99 1793.92)"><tspan x="0" y="0">2 </tspan><tspan class="cls-9" x="37.53" y="0">ко</tspan><tspan x="86.35" y="0">м.55.50м2(19кв)</tspan></text>
      <text class="cls-5" transform="translate(691.88 1796.3)"><tspan x="0" y="0">2 </tspan><tspan class="cls-9" x="37.53" y="0">ко</tspan><tspan x="86.35" y="0">м.91.</tspan><tspan class="cls-7" x="194.7" y="0">1</tspan><tspan x="217.24" y="0">1м2(20кв)</tspan></text>
      <text class="cls-5" transform="translate(1192.83 1796.3)"><tspan x="0" y="0">1 </tspan><tspan class="cls-9" x="37.53" y="0">ко</tspan><tspan x="86.35" y="0">м.59.25м2(21кв)</tspan></text>
      <text class="cls-5" transform="translate(1717.24 1794.4)"><tspan x="0" y="0">2 </tspan><tspan class="cls-9" x="37.53" y="0">ко</tspan><tspan x="86.35" y="0">м.80.14м2(22кв)</tspan></text>
      <text class="cls-5" transform="translate(2234.09 1794.4)"><tspan x="0" y="0">3 </tspan><tspan class="cls-9" x="37.53" y="0">ко</tspan><tspan x="86.35" y="0">м.84.98м2(23кв)</tspan></text>
      <text class="cls-5" transform="translate(2749.04 1792.97)"><tspan x="0" y="0">2 </tspan><tspan class="cls-9" x="37.53" y="0">ко</tspan><tspan x="86.35" y="0">м.82.</tspan><tspan class="cls-7" x="194.7" y="0">1</tspan><tspan x="217.24" y="0">1м2(24кв)</tspan></text>
      <text class="cls-5" transform="translate(179.99 1667)"><tspan x="0" y="0">2 </tspan><tspan class="cls-9" x="37.53" y="0">ко</tspan><tspan x="86.35" y="0">м.55.50м2(25кв)</tspan></text>
      <text class="cls-5" transform="translate(691.88 1666.05)"><tspan x="0" y="0">2 </tspan><tspan class="cls-9" x="37.53" y="0">ко</tspan><tspan x="86.35" y="0">м.91.</tspan><tspan class="cls-7" x="194.7" y="0">1</tspan><tspan x="217.24" y="0">1м2(26кв)</tspan></text>
      <text class="cls-5" transform="translate(1192.83 1666.05)"><tspan x="0" y="0">1 </tspan><tspan class="cls-9" x="37.53" y="0">ко</tspan><tspan x="86.35" y="0">м.59.25м2(27кв)</tspan></text>
      <text class="cls-5" transform="translate(1717.24 1665.1)"><tspan x="0" y="0">2 </tspan><tspan class="cls-9" x="37.53" y="0">ко</tspan><tspan x="86.35" y="0">м.80.14м2(28кв)</tspan></text>
      <text class="cls-5" transform="translate(2234.09 1665.1)"><tspan x="0" y="0">3 </tspan><tspan class="cls-9" x="37.53" y="0">ко</tspan><tspan x="86.35" y="0">м.84.98м2(29кв)</tspan></text>
      <text class="cls-5" transform="translate(2749.04 1663.67)"><tspan x="0" y="0">2 </tspan><tspan class="cls-9" x="37.53" y="0">ко</tspan><tspan x="86.35" y="0">м.82.</tspan><tspan class="cls-7" x="194.7" y="0">1</tspan><tspan x="217.24" y="0">1м2(30кв)</tspan></text>
      <text class="cls-5" transform="translate(179.99 1536.27)"><tspan x="0" y="0">2 </tspan><tspan class="cls-9" x="37.53" y="0">ко</tspan><tspan x="86.35" y="0">м.55.50м2(31кв)</tspan></text>
      <text class="cls-5" transform="translate(691.88 1537.7)"><tspan x="0" y="0">2 </tspan><tspan class="cls-9" x="37.53" y="0">ко</tspan><tspan x="86.35" y="0">м.91.</tspan><tspan class="cls-7" x="194.7" y="0">1</tspan><tspan x="217.24" y="0">1м2(32кв)</tspan></text>
      <text class="cls-5" transform="translate(1192.83 1537.7)"><tspan x="0" y="0">1 </tspan><tspan class="cls-9" x="37.53" y="0">ко</tspan><tspan x="86.35" y="0">м.59.25м2(33кв)</tspan></text>
      <text class="cls-5" transform="translate(1717.24 1537.7)"><tspan x="0" y="0">2 </tspan><tspan class="cls-9" x="37.53" y="0">ко</tspan><tspan x="86.35" y="0">м.80.14м2(34кв)</tspan></text>
      <text class="cls-5" transform="translate(2234.09 1537.7)"><tspan x="0" y="0">3 </tspan><tspan class="cls-9" x="37.53" y="0">ко</tspan><tspan x="86.35" y="0">м.84.98м2(35кв)</tspan></text>
      <text class="cls-5" transform="translate(2749.04 1536.27)"><tspan x="0" y="0">2 </tspan><tspan class="cls-9" x="37.53" y="0">ко</tspan><tspan x="86.35" y="0">м.82.</tspan><tspan class="cls-7" x="194.7" y="0">1</tspan><tspan x="217.24" y="0">1м2(36кв)</tspan></text>
      <text class="cls-5" transform="translate(179.99 1411.35)"><tspan x="0" y="0">2 </tspan><tspan class="cls-9" x="37.53" y="0">ко</tspan><tspan x="86.35" y="0">м.55.50м2(37кв)</tspan></text>
      <text class="cls-5" transform="translate(691.88 1411.35)"><tspan x="0" y="0">2 </tspan><tspan class="cls-9" x="37.53" y="0">ко</tspan><tspan x="86.35" y="0">м.91.</tspan><tspan class="cls-7" x="194.7" y="0">1</tspan><tspan x="217.24" y="0">1м2(38кв)</tspan></text>
      <text class="cls-5" transform="translate(1192.83 1411.35)"><tspan x="0" y="0">1 </tspan><tspan class="cls-9" x="37.53" y="0">ко</tspan><tspan x="86.35" y="0">м.59.25м2(39кв)</tspan></text>
      <text class="cls-5" transform="translate(1717.24 1411.35)"><tspan x="0" y="0">2 </tspan><tspan class="cls-9" x="37.53" y="0">ко</tspan><tspan x="86.35" y="0">м.80.14м2(40кв)</tspan></text>
      <text class="cls-5" transform="translate(2234.09 1411.35)"><tspan x="0" y="0">3 </tspan><tspan class="cls-9" x="37.53" y="0">ко</tspan><tspan x="86.35" y="0">м.84.98м2(41кв)</tspan></text>
      <text class="cls-5" transform="translate(2749.04 1409.92)"><tspan x="0" y="0">2 </tspan><tspan class="cls-9" x="37.53" y="0">ко</tspan><tspan x="86.35" y="0">м.82.</tspan><tspan class="cls-7" x="194.7" y="0">1</tspan><tspan x="217.24" y="0">1м2(42кв)</tspan></text>
      <text class="cls-5" transform="translate(179.99 1283.95)"><tspan x="0" y="0">2 </tspan><tspan class="cls-9" x="37.53" y="0">ко</tspan><tspan x="86.35" y="0">м.55.50м2(43кв)</tspan></text>
      <text class="cls-5" transform="translate(691.88 1283)"><tspan x="0" y="0">2 </tspan><tspan class="cls-9" x="37.53" y="0">ко</tspan><tspan x="86.35" y="0">м.91.</tspan><tspan class="cls-7" x="194.7" y="0">1</tspan><tspan x="217.24" y="0">1м2(44кв)</tspan></text>
      <text class="cls-5" transform="translate(1192.83 1283)"><tspan x="0" y="0">1 </tspan><tspan class="cls-9" x="37.53" y="0">ко</tspan><tspan x="86.35" y="0">м.59.25м2(45кв)</tspan></text>
      <text class="cls-5" transform="translate(1717.24 1283.95)"><tspan x="0" y="0">2 </tspan><tspan class="cls-9" x="37.53" y="0">ко</tspan><tspan x="86.35" y="0">м.80.14м2(46кв)</tspan></text>
      <text class="cls-5" transform="translate(2234.09 1283.95)"><tspan x="0" y="0">3 </tspan><tspan class="cls-9" x="37.53" y="0">ко</tspan><tspan x="86.35" y="0">м.84.98м2(47кв)</tspan></text>
      <text class="cls-5" transform="translate(2749.04 1282.52)"><tspan x="0" y="0">2 </tspan><tspan class="cls-9" x="37.53" y="0">ко</tspan><tspan x="86.35" y="0">м.82.</tspan><tspan class="cls-7" x="194.7" y="0">1</tspan><tspan x="217.24" y="0">1м2(48кв)</tspan></text>
      <text class="cls-5" transform="translate(179.99 1157.5)"><tspan x="0" y="0">2 </tspan><tspan class="cls-9" x="37.53" y="0">ко</tspan><tspan x="86.35" y="0">м.55.50м2(49кв)</tspan></text>
      <text class="cls-5" transform="translate(691.88 1157.5)"><tspan x="0" y="0">2 </tspan><tspan class="cls-9" x="37.53" y="0">ко</tspan><tspan x="86.35" y="0">м.91.</tspan><tspan class="cls-7" x="194.7" y="0">1</tspan><tspan x="217.24" y="0">1м2(50кв)</tspan></text>
      <text class="cls-5" transform="translate(1192.83 1157.5)"><tspan x="0" y="0">1 </tspan><tspan class="cls-9" x="37.53" y="0">ко</tspan><tspan x="86.35" y="0">м.59.25м2(51кв)</tspan></text>
      <text class="cls-5" transform="translate(1717.24 1154.65)"><tspan x="0" y="0">2 </tspan><tspan class="cls-9" x="37.53" y="0">ко</tspan><tspan x="86.35" y="0">м.80.14м2(52кв)</tspan></text>
      <text class="cls-5" transform="translate(2234.09 1154.65)"><tspan x="0" y="0">3 </tspan><tspan class="cls-9" x="37.53" y="0">ко</tspan><tspan x="86.35" y="0">м.84.98м2(53кв)</tspan></text>
      <text class="cls-5" transform="translate(2749.04 1153.22)"><tspan x="0" y="0">2 </tspan><tspan class="cls-9" x="37.53" y="0">ко</tspan><tspan x="86.35" y="0">м.82.</tspan><tspan class="cls-7" x="194.7" y="0">1</tspan><tspan x="217.24" y="0">1м2(54кв)</tspan></text>
      <text class="cls-5" transform="translate(179.99 1029.72)"><tspan x="0" y="0">2 </tspan><tspan class="cls-9" x="37.53" y="0">ко</tspan><tspan x="86.35" y="0">м.55.50м2(55кв)</tspan></text>
      <text class="cls-5" transform="translate(691.88 1029.72)"><tspan x="0" y="0">2 </tspan><tspan class="cls-9" x="37.53" y="0">ко</tspan><tspan x="86.35" y="0">м.91.</tspan><tspan class="cls-7" x="194.7" y="0">1</tspan><tspan x="217.24" y="0">1м2(56кв)</tspan></text>
      <text class="cls-5" transform="translate(1192.83 1029.72)"><tspan x="0" y="0">1 </tspan><tspan class="cls-9" x="37.53" y="0">ко</tspan><tspan x="86.35" y="0">м.59.25м2(57кв)</tspan></text>
      <text class="cls-5" transform="translate(1717.24 1026.4)"><tspan x="0" y="0">2 </tspan><tspan class="cls-9" x="37.53" y="0">ко</tspan><tspan x="86.35" y="0">м.80.14м2(58кв)</tspan></text>
      <text class="cls-5" transform="translate(2234.09 1026.4)"><tspan x="0" y="0">3 </tspan><tspan class="cls-9" x="37.53" y="0">ко</tspan><tspan x="86.35" y="0">м.84.98м2(59кв)</tspan></text>
      <text class="cls-5" transform="translate(2749.04 1024.97)"><tspan x="0" y="0">2 </tspan><tspan class="cls-9" x="37.53" y="0">ко</tspan><tspan x="86.35" y="0">м.82.</tspan><tspan class="cls-7" x="194.7" y="0">1</tspan><tspan x="217.24" y="0">1м2(60кв)</tspan></text>
      <text class="cls-5" transform="translate(179.99 900.9)"><tspan x="0" y="0">2 </tspan><tspan class="cls-9" x="37.53" y="0">ко</tspan><tspan x="86.35" y="0">м.55.50м2(61кв)</tspan></text>
      <text class="cls-5" transform="translate(691.88 900.9)"><tspan x="0" y="0">2 </tspan><tspan class="cls-9" x="37.53" y="0">ко</tspan><tspan x="86.35" y="0">м.91.</tspan><tspan class="cls-7" x="194.7" y="0">1</tspan><tspan x="217.24" y="0">1м2(62кв)</tspan></text>
      <text class="cls-5" transform="translate(1192.83 900.9)"><tspan x="0" y="0">1 </tspan><tspan class="cls-9" x="37.53" y="0">ко</tspan><tspan x="86.35" y="0">м.59.25м2(63кв)</tspan></text>
      <text class="cls-5" transform="translate(1717.24 900.9)"><tspan x="0" y="0">2 </tspan><tspan class="cls-9" x="37.53" y="0">ко</tspan><tspan x="86.35" y="0">м.80.14м2(64кв)</tspan></text>
      <text class="cls-5" transform="translate(2230.34 900.9)"><tspan x="0" y="0">3 </tspan><tspan class="cls-9" x="37.53" y="0">ко</tspan><tspan x="86.35" y="0">м.84.98м2(65кв)</tspan></text>
      <text class="cls-5" transform="translate(2749.04 899.47)"><tspan x="0" y="0">2 </tspan><tspan class="cls-9" x="37.53" y="0">ко</tspan><tspan x="86.35" y="0">м.82.</tspan><tspan class="cls-7" x="194.7" y="0">1</tspan><tspan x="217.24" y="0">1м2(66кв)</tspan></text>
      <text class="cls-5" transform="translate(179.99 773.5)"><tspan x="0" y="0">2 </tspan><tspan class="cls-9" x="37.53" y="0">ко</tspan><tspan x="86.35" y="0">м.55.50м2(67кв)</tspan></text>
      <text class="cls-5" transform="translate(691.88 773.5)"><tspan x="0" y="0">2 </tspan><tspan class="cls-9" x="37.53" y="0">ко</tspan><tspan x="86.35" y="0">м.91.</tspan><tspan class="cls-7" x="194.7" y="0">1</tspan><tspan x="217.24" y="0">1м2(68кв)</tspan></text>
      <text class="cls-5" transform="translate(1192.83 773.5)"><tspan x="0" y="0">1 </tspan><tspan class="cls-9" x="37.53" y="0">ко</tspan><tspan x="86.35" y="0">м.59.25м2(69кв)</tspan></text>
      <text class="cls-5" transform="translate(1717.23 773.5)"><tspan x="0" y="0">2 </tspan><tspan class="cls-9" x="37.53" y="0">ко</tspan><tspan x="86.35" y="0">м.80.14м2(70кв)</tspan></text>
      <text class="cls-5" transform="translate(2230.34 773.5)"><tspan x="0" y="0">3 </tspan><tspan class="cls-9" x="37.53" y="0">ко</tspan><tspan x="86.35" y="0">м.84.98м2(71кв)</tspan></text>
      <text class="cls-5" transform="translate(2749.04 772.07)"><tspan x="0" y="0">2 </tspan><tspan class="cls-9" x="37.53" y="0">ко</tspan><tspan x="86.35" y="0">м.82.</tspan><tspan class="cls-7" x="194.7" y="0">1</tspan><tspan x="217.24" y="0">1м2(72кв)</tspan></text>
      <text class="cls-5" transform="translate(179.99 650.48)"><tspan x="0" y="0">2 </tspan><tspan class="cls-9" x="37.53" y="0">ко</tspan><tspan x="86.35" y="0">м.55.50м2(73кв)</tspan></text>
      <text class="cls-5" transform="translate(691.88 650.48)"><tspan x="0" y="0">2 </tspan><tspan class="cls-9" x="37.53" y="0">ко</tspan><tspan x="86.35" y="0">м.91.</tspan><tspan class="cls-7" x="194.7" y="0">1</tspan><tspan x="217.24" y="0">1м2(74кв)</tspan></text>
      <text class="cls-5" transform="translate(1192.83 650.48)"><tspan x="0" y="0">1 </tspan><tspan class="cls-9" x="37.53" y="0">ко</tspan><tspan x="86.35" y="0">м.59.25м2(75кв)</tspan></text>
      <text class="cls-5" transform="translate(1717.23 650.48)"><tspan x="0" y="0">2 </tspan><tspan class="cls-9" x="37.53" y="0">ко</tspan><tspan x="86.35" y="0">м.80.14м2(76кв)</tspan></text>
      <text class="cls-5" transform="translate(2230.34 650.48)"><tspan x="0" y="0">3 </tspan><tspan class="cls-9" x="37.53" y="0">ко</tspan><tspan x="86.35" y="0">м.84.98м2(77кв)</tspan></text>
      <text class="cls-5" transform="translate(2749.04 649.05)"><tspan x="0" y="0">2 </tspan><tspan class="cls-9" x="37.53" y="0">ко</tspan><tspan x="86.35" y="0">м.82.</tspan><tspan class="cls-7" x="194.7" y="0">1</tspan><tspan x="217.24" y="0">1м2(78кв)</tspan></text>
      <text class="cls-5" transform="translate(179.99 521.65)"><tspan x="0" y="0">2 </tspan><tspan class="cls-9" x="37.53" y="0">ко</tspan><tspan x="86.35" y="0">м.55.50м2(79кв)</tspan></text>
      <text class="cls-5" transform="translate(691.88 521.65)"><tspan x="0" y="0">2 </tspan><tspan class="cls-9" x="37.53" y="0">ко</tspan><tspan x="86.35" y="0">м.91.</tspan><tspan class="cls-7" x="194.7" y="0">1</tspan><tspan x="217.24" y="0">1м2(80кв)</tspan></text>
      <text class="cls-5" transform="translate(1192.83 521.65)"><tspan x="0" y="0">1 </tspan><tspan class="cls-9" x="37.53" y="0">ко</tspan><tspan x="86.35" y="0">м.59.25м2(81кв)</tspan></text>
      <text class="cls-5" transform="translate(1717.23 521.65)"><tspan x="0" y="0">2 </tspan><tspan class="cls-9" x="37.53" y="0">ко</tspan><tspan x="86.35" y="0">м.80.14м2(82кв)</tspan></text>
      <text class="cls-5" transform="translate(2230.34 521.65)"><tspan x="0" y="0">3 </tspan><tspan class="cls-9" x="37.53" y="0">ко</tspan><tspan x="86.35" y="0">м.84.98м2(83кв)</tspan></text>
      <text class="cls-5" transform="translate(2749.04 520.23)"><tspan x="0" y="0">2 </tspan><tspan class="cls-9" x="37.53" y="0">ко</tspan><tspan x="86.35" y="0">м.82.</tspan><tspan class="cls-7" x="194.7" y="0">1</tspan><tspan x="217.24" y="0">1м2(84кв)</tspan></text>
      <text class="cls-5" transform="translate(179.99 403.46)"><tspan x="0" y="0">2 </tspan><tspan class="cls-9" x="37.53" y="0">ко</tspan><tspan x="86.35" y="0">м.55.50м2(85кв)</tspan></text>
      <text class="cls-5" transform="translate(691.88 401.85)"><tspan x="0" y="0">2 </tspan><tspan class="cls-9" x="37.53" y="0">ко</tspan><tspan x="86.35" y="0">м.91.</tspan><tspan class="cls-7" x="194.7" y="0">1</tspan><tspan x="217.24" y="0">1м2(86кв)</tspan></text>
      <text class="cls-5" transform="translate(1192.83 401.85)"><tspan x="0" y="0">1 </tspan><tspan class="cls-9" x="37.53" y="0">ко</tspan><tspan x="86.35" y="0">м.59.25м2(87кв)</tspan></text>
      <text class="cls-5" transform="translate(1717.23 401.85)"><tspan x="0" y="0">2 </tspan><tspan class="cls-9" x="37.53" y="0">ко</tspan><tspan x="86.35" y="0">м.80.14м2(88кв)</tspan></text>
      <text class="cls-5" transform="translate(2230.34 401.85)"><tspan x="0" y="0">3 </tspan><tspan class="cls-9" x="37.53" y="0">ко</tspan><tspan x="86.35" y="0">м.84.98м2(89кв)</tspan></text>
      <text class="cls-5" transform="translate(2749.04 400.43)"><tspan x="0" y="0">2 </tspan><tspan class="cls-9" x="37.53" y="0">ко</tspan><tspan x="86.35" y="0">м.82.</tspan><tspan class="cls-7" x="194.7" y="0">1</tspan><tspan x="217.24" y="0">1м2(90кв)</tspan></text>
      <path class="cls-2" d="M3246.62,281.99H137.19L281.12,1.5h2822.75l143.4,279.43c.25.48-.1,1.06-.65,1.06Z" />
      <text class="cls-4" transform="translate(1347.37 204.54)"><tspan x="0" y="0">Б</tspan><tspan class="cls-9" x="143.75" y="0">л</tspan><tspan x="268.16" y="0">ок 2</tspan></text>
    </g>
  </g>
</svg>