<?xml version="1.0" encoding="UTF-8" standalone="no"?>
<svg xmlns="http://www.w3.org/2000/svg" width="1920" height="1080" viewBox="0 0 1920 1080">
<style>
    .bg { fill:#ffffff; }
    .block { fill:#e9f7ef; stroke:#111; stroke-width:3; }
    .title { font-family: Arial, Helvetica, sans-serif; fill:#111; font-size:42px; font-weight:800; }
    .label { font-family: Arial, Helvetica, sans-serif; fill:#111; font-size:24px; font-weight:800; }
    .hint { font-family: Arial, Helvetica, sans-serif; fill:#333; font-size:18px; font-weight:600; }
</style>
<rect x="0" y="0" width="1920" height="1080" class="bg" />
<text x="960.0" y="60" class="title" text-anchor="middle">Схема 11 блоков</text>
<text x="960.0" y="100" class="hint" text-anchor="middle">Блоки b01..b11 (клик по квартирe внутри блок-схем)</text>
<rect x="80.0" y="140.0" width="417.5" height="286.6666666666667" class="block" rx="18" ry="18" id="blk_b01" />
<text x="288.75" y="283.33333333333337" class="label" text-anchor="middle" dominant-baseline="middle">B01</text>
<rect x="527.5" y="140.0" width="417.5" height="286.6666666666667" class="block" rx="18" ry="18" id="blk_b02" />
<text x="736.25" y="283.33333333333337" class="label" text-anchor="middle" dominant-baseline="middle">B02</text>
<rect x="975.0" y="140.0" width="417.5" height="286.6666666666667" class="block" rx="18" ry="18" id="blk_b03" />
<text x="1183.75" y="283.33333333333337" class="label" text-anchor="middle" dominant-baseline="middle">B03</text>
<rect x="1422.5" y="140.0" width="417.5" height="286.6666666666667" class="block" rx="18" ry="18" id="blk_b04" />
<text x="1631.25" y="283.33333333333337" class="label" text-anchor="middle" dominant-baseline="middle">B04</text>
<rect x="80.0" y="456.6666666666667" width="417.5" height="286.6666666666667" class="block" rx="18" ry="18" id="blk_b05" />
<text x="288.75" y="600.0" class="label" text-anchor="middle" dominant-baseline="middle">B05</text>
<rect x="527.5" y="456.6666666666667" width="417.5" height="286.6666666666667" class="block" rx="18" ry="18" id="blk_b06" />
<text x="736.25" y="600.0" class="label" text-anchor="middle" dominant-baseline="middle">B06</text>
<rect x="975.0" y="456.6666666666667" width="417.5" height="286.6666666666667" class="block" rx="18" ry="18" id="blk_b07" />
<text x="1183.75" y="600.0" class="label" text-anchor="middle" dominant-baseline="middle">B07</text>
<rect x="1422.5" y="456.6666666666667" width="417.5" height="286.6666666666667" class="block" rx="18" ry="18" id="blk_b08" />
<text x="1631.25" y="600.0" class="label" text-anchor="middle" dominant-baseline="middle">B08</text>
<rect x="80.0" y="773.3333333333334" width="417.5" height="286.6666666666667" class="block" rx="18" ry="18" id="blk_b09" />
<text x="288.75" y="916.6666666666667" class="label" text-anchor="middle" dominant-baseline="middle">B09</text>
<rect x="527.5" y="773.3333333333334" width="417.5" height="286.6666666666667" class="block" rx="18" ry="18" id="blk_b10" />
<text x="736.25" y="916.6666666666667" class="label" text-anchor="middle" dominant-baseline="middle">B10</text>
<rect x="975.0" y="773.3333333333334" width="417.5" height="286.6666666666667" class="block" rx="18" ry="18" id="blk_b11" />
<text x="1183.75" y="916.6666666666667" class="label" text-anchor="middle" dominant-baseline="middle">B11</text>
</svg>
