<?xml version="1.0" encoding="UTF-8" standalone="no"?>
<svg xmlns="http://www.w3.org/2000/svg" width="2800" height="2200" viewBox="0 0 2800 2200">
<style>
    .bg { fill:#ffffff; }
    .frame { fill:#f7f7f7; stroke:#111; stroke-width:3; }
    .apt { fill:#dff3ff; stroke:#1a1a1a; stroke-width:2; }
    .apt:hover { stroke-width:3; }
    .label { font-family: Arial, Helvetica, sans-serif; fill:#111; font-size:28px; font-weight:700; }
    .small { font-family: Arial, Helvetica, sans-serif; fill:#111; font-size:18px; font-weight:600; }
    .tiny { font-family: Arial, Helvetica, sans-serif; fill:#111; font-size:15px; font-weight:700; }
</style>
<rect x="0" y="0" width="2800" height="2200" class="bg" />
<text x="1400.0" y="70" class="label" text-anchor="middle">Блок B05 • 15 этажей • 7 квартир/этаж</text>
<text x="1400.0" y="110" class="small" text-anchor="middle">ID квартир: apt_f01_a01 ... apt_f15_a07</text>
<rect x="60" y="200" width="2650" height="1965" class="frame" rx="16" ry="16" />
<text x="52" y="278.6666666666667" class="small" text-anchor="end" dominant-baseline="middle">15</text>
<rect x="100.0" y="220.0" width="350.0" height="117.33333333333334" class="apt" rx="10" ry="10" id="apt_f15_a01" />
<text x="275.0" y="278.6666666666667" class="tiny" text-anchor="middle" dominant-baseline="middle">2 ком. квартира со ст А-91.11м2(99кв)</text>
<rect x="470.0" y="220.0" width="350.0" height="117.33333333333334" class="apt" rx="10" ry="10" id="apt_f15_a02" />
<text x="645.0" y="278.6666666666667" class="tiny" text-anchor="middle" dominant-baseline="middle">2 ком. квартира класса Г-55.50м2(100кв)</text>
<rect x="840.0" y="220.0" width="350.0" height="117.33333333333334" class="apt" rx="10" ry="10" id="apt_f15_a03" />
<text x="1015.0" y="278.6666666666667" class="tiny" text-anchor="middle" dominant-baseline="middle">2 ком. квартира со ст Б-82.11м2(101кв)</text>
<rect x="1210.0" y="220.0" width="350.0" height="117.33333333333334" class="apt" rx="10" ry="10" id="apt_f15_a04" />
<text x="1385.0" y="278.6666666666667" class="tiny" text-anchor="middle" dominant-baseline="middle">3 ком. квартира класса А-84.98м2(102кв)</text>
<rect x="1580.0" y="220.0" width="350.0" height="117.33333333333334" class="apt" rx="10" ry="10" id="apt_f15_a05" />
<text x="1755.0" y="278.6666666666667" class="tiny" text-anchor="middle" dominant-baseline="middle">2 ком. квартира класса В-80.14м2(103кв)</text>
<rect x="1950.0" y="220.0" width="350.0" height="117.33333333333334" class="apt" rx="10" ry="10" id="apt_f15_a06" />
<text x="2125.0" y="278.6666666666667" class="tiny" text-anchor="middle" dominant-baseline="middle">1 ком. квартира со ст Г-59.25м2(104кв)</text>
<rect x="2320.0" y="220.0" width="350.0" height="117.33333333333334" class="apt" rx="10" ry="10" id="apt_f15_a07" />
<text x="2495.0" y="278.6666666666667" class="tiny" text-anchor="middle" dominant-baseline="middle">1 ком. квартира со ст Г-59.25м2(105кв)</text>
<text x="52" y="408.00000000000006" class="small" text-anchor="end" dominant-baseline="middle">14</text>
<rect x="100.0" y="349.33333333333337" width="350.0" height="117.33333333333334" class="apt" rx="10" ry="10" id="apt_f14_a01" />
<text x="275.0" y="408.00000000000006" class="tiny" text-anchor="middle" dominant-baseline="middle">2 ком. квартира со ст А-91.11м2(92кв)</text>
<rect x="470.0" y="349.33333333333337" width="350.0" height="117.33333333333334" class="apt" rx="10" ry="10" id="apt_f14_a02" />
<text x="645.0" y="408.00000000000006" class="tiny" text-anchor="middle" dominant-baseline="middle">2 ком. квартира класса Г-55.50м2(93кв)</text>
<rect x="840.0" y="349.33333333333337" width="350.0" height="117.33333333333334" class="apt" rx="10" ry="10" id="apt_f14_a03" />
<text x="1015.0" y="408.00000000000006" class="tiny" text-anchor="middle" dominant-baseline="middle">2 ком. квартира со ст Б-82.11м2(94кв)</text>
<rect x="1210.0" y="349.33333333333337" width="350.0" height="117.33333333333334" class="apt" rx="10" ry="10" id="apt_f14_a04" />
<text x="1385.0" y="408.00000000000006" class="tiny" text-anchor="middle" dominant-baseline="middle">3 ком. квартира класса А-84.98м2(95кв)</text>
<rect x="1580.0" y="349.33333333333337" width="350.0" height="117.33333333333334" class="apt" rx="10" ry="10" id="apt_f14_a05" />
<text x="1755.0" y="408.00000000000006" class="tiny" text-anchor="middle" dominant-baseline="middle">2 ком. квартира класса В-80.14м2(96кв)</text>
<rect x="1950.0" y="349.33333333333337" width="350.0" height="117.33333333333334" class="apt" rx="10" ry="10" id="apt_f14_a06" />
<text x="2125.0" y="408.00000000000006" class="tiny" text-anchor="middle" dominant-baseline="middle">1 ком. квартира со ст Г-59.25м2(97кв)</text>
<rect x="2320.0" y="349.33333333333337" width="350.0" height="117.33333333333334" class="apt" rx="10" ry="10" id="apt_f14_a07" />
<text x="2495.0" y="408.00000000000006" class="tiny" text-anchor="middle" dominant-baseline="middle">1 ком. квартира со ст Г-59.25м2(98кв)</text>
<text x="52" y="537.3333333333334" class="small" text-anchor="end" dominant-baseline="middle">13</text>
<rect x="100.0" y="478.6666666666667" width="350.0" height="117.33333333333334" class="apt" rx="10" ry="10" id="apt_f13_a01" />
<text x="275.0" y="537.3333333333334" class="tiny" text-anchor="middle" dominant-baseline="middle">2 ком. квартира со ст А-91.11м2(85кв)</text>
<rect x="470.0" y="478.6666666666667" width="350.0" height="117.33333333333334" class="apt" rx="10" ry="10" id="apt_f13_a02" />
<text x="645.0" y="537.3333333333334" class="tiny" text-anchor="middle" dominant-baseline="middle">2 ком. квартира класса Г-55.50м2(86кв)</text>
<rect x="840.0" y="478.6666666666667" width="350.0" height="117.33333333333334" class="apt" rx="10" ry="10" id="apt_f13_a03" />
<text x="1015.0" y="537.3333333333334" class="tiny" text-anchor="middle" dominant-baseline="middle">2 ком. квартира со ст Б-82.11м2(87кв)</text>
<rect x="1210.0" y="478.6666666666667" width="350.0" height="117.33333333333334" class="apt" rx="10" ry="10" id="apt_f13_a04" />
<text x="1385.0" y="537.3333333333334" class="tiny" text-anchor="middle" dominant-baseline="middle">3 ком. квартира класса А-84.98м2(88кв)</text>
<rect x="1580.0" y="478.6666666666667" width="350.0" height="117.33333333333334" class="apt" rx="10" ry="10" id="apt_f13_a05" />
<text x="1755.0" y="537.3333333333334" class="tiny" text-anchor="middle" dominant-baseline="middle">2 ком. квартира класса В-80.14м2(89кв)</text>
<rect x="1950.0" y="478.6666666666667" width="350.0" height="117.33333333333334" class="apt" rx="10" ry="10" id="apt_f13_a06" />
<text x="2125.0" y="537.3333333333334" class="tiny" text-anchor="middle" dominant-baseline="middle">1 ком. квартира со ст Г-59.25м2(90кв)</text>
<rect x="2320.0" y="478.6666666666667" width="350.0" height="117.33333333333334" class="apt" rx="10" ry="10" id="apt_f13_a07" />
<text x="2495.0" y="537.3333333333334" class="tiny" text-anchor="middle" dominant-baseline="middle">1 ком. квартира со ст Г-59.25м2(91кв)</text>
<text x="52" y="666.6666666666666" class="small" text-anchor="end" dominant-baseline="middle">12</text>
<rect x="100.0" y="608.0" width="350.0" height="117.33333333333334" class="apt" rx="10" ry="10" id="apt_f12_a01" />
<text x="275.0" y="666.6666666666666" class="tiny" text-anchor="middle" dominant-baseline="middle">2 ком. квартира со ст А-91.11м2(78кв)</text>
<rect x="470.0" y="608.0" width="350.0" height="117.33333333333334" class="apt" rx="10" ry="10" id="apt_f12_a02" />
<text x="645.0" y="666.6666666666666" class="tiny" text-anchor="middle" dominant-baseline="middle">2 ком. квартира класса Г-55.50м2(79кв)</text>
<rect x="840.0" y="608.0" width="350.0" height="117.33333333333334" class="apt" rx="10" ry="10" id="apt_f12_a03" />
<text x="1015.0" y="666.6666666666666" class="tiny" text-anchor="middle" dominant-baseline="middle">2 ком. квартира со ст Б-82.11м2(80кв)</text>
<rect x="1210.0" y="608.0" width="350.0" height="117.33333333333334" class="apt" rx="10" ry="10" id="apt_f12_a04" />
<text x="1385.0" y="666.6666666666666" class="tiny" text-anchor="middle" dominant-baseline="middle">3 ком. квартира класса А-84.98м2(81кв)</text>
<rect x="1580.0" y="608.0" width="350.0" height="117.33333333333334" class="apt" rx="10" ry="10" id="apt_f12_a05" />
<text x="1755.0" y="666.6666666666666" class="tiny" text-anchor="middle" dominant-baseline="middle">2 ком. квартира класса В-80.14м2(82кв)</text>
<rect x="1950.0" y="608.0" width="350.0" height="117.33333333333334" class="apt" rx="10" ry="10" id="apt_f12_a06" />
<text x="2125.0" y="666.6666666666666" class="tiny" text-anchor="middle" dominant-baseline="middle">1 ком. квартира со ст Г-59.25м2(83кв)</text>
<rect x="2320.0" y="608.0" width="350.0" height="117.33333333333334" class="apt" rx="10" ry="10" id="apt_f12_a07" />
<text x="2495.0" y="666.6666666666666" class="tiny" text-anchor="middle" dominant-baseline="middle">1 ком. квартира со ст Г-59.25м2(84кв)</text>
<text x="52" y="796.0" class="small" text-anchor="end" dominant-baseline="middle">11</text>
<rect x="100.0" y="737.3333333333334" width="350.0" height="117.33333333333334" class="apt" rx="10" ry="10" id="apt_f11_a01" />
<text x="275.0" y="796.0" class="tiny" text-anchor="middle" dominant-baseline="middle">2 ком. квартира со ст А-91.11м2(71кв)</text>
<rect x="470.0" y="737.3333333333334" width="350.0" height="117.33333333333334" class="apt" rx="10" ry="10" id="apt_f11_a02" />
<text x="645.0" y="796.0" class="tiny" text-anchor="middle" dominant-baseline="middle">2 ком. квартира класса Г-55.50м2(72кв)</text>
<rect x="840.0" y="737.3333333333334" width="350.0" height="117.33333333333334" class="apt" rx="10" ry="10" id="apt_f11_a03" />
<text x="1015.0" y="796.0" class="tiny" text-anchor="middle" dominant-baseline="middle">2 ком. квартира со ст Б-82.11м2(73кв)</text>
<rect x="1210.0" y="737.3333333333334" width="350.0" height="117.33333333333334" class="apt" rx="10" ry="10" id="apt_f11_a04" />
<text x="1385.0" y="796.0" class="tiny" text-anchor="middle" dominant-baseline="middle">3 ком. квартира класса А-84.98м2(74кв)</text>
<rect x="1580.0" y="737.3333333333334" width="350.0" height="117.33333333333334" class="apt" rx="10" ry="10" id="apt_f11_a05" />
<text x="1755.0" y="796.0" class="tiny" text-anchor="middle" dominant-baseline="middle">2 ком. квартира класса В-80.14м2(75кв)</text>
<rect x="1950.0" y="737.3333333333334" width="350.0" height="117.33333333333334" class="apt" rx="10" ry="10" id="apt_f11_a06" />
<text x="2125.0" y="796.0" class="tiny" text-anchor="middle" dominant-baseline="middle">1 ком. квартира со ст Г-59.25м2(76кв)</text>
<rect x="2320.0" y="737.3333333333334" width="350.0" height="117.33333333333334" class="apt" rx="10" ry="10" id="apt_f11_a07" />
<text x="2495.0" y="796.0" class="tiny" text-anchor="middle" dominant-baseline="middle">1 ком. квартира со ст Г-59.25м2(77кв)</text>
<text x="52" y="925.3333333333334" class="small" text-anchor="end" dominant-baseline="middle">10</text>
<rect x="100.0" y="866.6666666666667" width="350.0" height="117.33333333333334" class="apt" rx="10" ry="10" id="apt_f10_a01" />
<text x="275.0" y="925.3333333333334" class="tiny" text-anchor="middle" dominant-baseline="middle">2 ком. квартира со ст А-91.11м2(64кв)</text>
<rect x="470.0" y="866.6666666666667" width="350.0" height="117.33333333333334" class="apt" rx="10" ry="10" id="apt_f10_a02" />
<text x="645.0" y="925.3333333333334" class="tiny" text-anchor="middle" dominant-baseline="middle">2 ком. квартира класса Г-55.50м2(65кв)</text>
<rect x="840.0" y="866.6666666666667" width="350.0" height="117.33333333333334" class="apt" rx="10" ry="10" id="apt_f10_a03" />
<text x="1015.0" y="925.3333333333334" class="tiny" text-anchor="middle" dominant-baseline="middle">2 ком. квартира со ст Б-82.11м2(66кв)</text>
<rect x="1210.0" y="866.6666666666667" width="350.0" height="117.33333333333334" class="apt" rx="10" ry="10" id="apt_f10_a04" />
<text x="1385.0" y="925.3333333333334" class="tiny" text-anchor="middle" dominant-baseline="middle">3 ком. квартира класса А-84.98м2(67кв)</text>
<rect x="1580.0" y="866.6666666666667" width="350.0" height="117.33333333333334" class="apt" rx="10" ry="10" id="apt_f10_a05" />
<text x="1755.0" y="925.3333333333334" class="tiny" text-anchor="middle" dominant-baseline="middle">2 ком. квартира класса В-80.14м2(68кв)</text>
<rect x="1950.0" y="866.6666666666667" width="350.0" height="117.33333333333334" class="apt" rx="10" ry="10" id="apt_f10_a06" />
<text x="2125.0" y="925.3333333333334" class="tiny" text-anchor="middle" dominant-baseline="middle">1 ком. квартира со ст Г-59.25м2(69кв)</text>
<rect x="2320.0" y="866.6666666666667" width="350.0" height="117.33333333333334" class="apt" rx="10" ry="10" id="apt_f10_a07" />
<text x="2495.0" y="925.3333333333334" class="tiny" text-anchor="middle" dominant-baseline="middle">1 ком. квартира со ст Г-59.25м2(70кв)</text>
<text x="52" y="1054.6666666666667" class="small" text-anchor="end" dominant-baseline="middle">9</text>
<rect x="100.0" y="996.0" width="350.0" height="117.33333333333334" class="apt" rx="10" ry="10" id="apt_f09_a01" />
<text x="275.0" y="1054.6666666666667" class="tiny" text-anchor="middle" dominant-baseline="middle">2 ком. квартира со ст А-91.11м2(57кв)</text>
<rect x="470.0" y="996.0" width="350.0" height="117.33333333333334" class="apt" rx="10" ry="10" id="apt_f09_a02" />
<text x="645.0" y="1054.6666666666667" class="tiny" text-anchor="middle" dominant-baseline="middle">2 ком. квартира класса Г-55.50м2(58кв)</text>
<rect x="840.0" y="996.0" width="350.0" height="117.33333333333334" class="apt" rx="10" ry="10" id="apt_f09_a03" />
<text x="1015.0" y="1054.6666666666667" class="tiny" text-anchor="middle" dominant-baseline="middle">2 ком. квартира со ст Б-82.11м2(59кв)</text>
<rect x="1210.0" y="996.0" width="350.0" height="117.33333333333334" class="apt" rx="10" ry="10" id="apt_f09_a04" />
<text x="1385.0" y="1054.6666666666667" class="tiny" text-anchor="middle" dominant-baseline="middle">3 ком. квартира класса А-84.98м2(60кв)</text>
<rect x="1580.0" y="996.0" width="350.0" height="117.33333333333334" class="apt" rx="10" ry="10" id="apt_f09_a05" />
<text x="1755.0" y="1054.6666666666667" class="tiny" text-anchor="middle" dominant-baseline="middle">2 ком. квартира класса В-80.14м2(61кв)</text>
<rect x="1950.0" y="996.0" width="350.0" height="117.33333333333334" class="apt" rx="10" ry="10" id="apt_f09_a06" />
<text x="2125.0" y="1054.6666666666667" class="tiny" text-anchor="middle" dominant-baseline="middle">1 ком. квартира со ст Г-59.25м2(62кв)</text>
<rect x="2320.0" y="996.0" width="350.0" height="117.33333333333334" class="apt" rx="10" ry="10" id="apt_f09_a07" />
<text x="2495.0" y="1054.6666666666667" class="tiny" text-anchor="middle" dominant-baseline="middle">1 ком. квартира со ст Г-59.25м2(63кв)</text>
<text x="52" y="1184.0000000000002" class="small" text-anchor="end" dominant-baseline="middle">8</text>
<rect x="100.0" y="1125.3333333333335" width="350.0" height="117.33333333333334" class="apt" rx="10" ry="10" id="apt_f08_a01" />
<text x="275.0" y="1184.0000000000002" class="tiny" text-anchor="middle" dominant-baseline="middle">2 ком. квартира со ст А-91.11м2(50кв)</text>
<rect x="470.0" y="1125.3333333333335" width="350.0" height="117.33333333333334" class="apt" rx="10" ry="10" id="apt_f08_a02" />
<text x="645.0" y="1184.0000000000002" class="tiny" text-anchor="middle" dominant-baseline="middle">2 ком. квартира класса Г-55.50м2(51кв)</text>
<rect x="840.0" y="1125.3333333333335" width="350.0" height="117.33333333333334" class="apt" rx="10" ry="10" id="apt_f08_a03" />
<text x="1015.0" y="1184.0000000000002" class="tiny" text-anchor="middle" dominant-baseline="middle">2 ком. квартира со ст Б-82.11м2(52кв)</text>
<rect x="1210.0" y="1125.3333333333335" width="350.0" height="117.33333333333334" class="apt" rx="10" ry="10" id="apt_f08_a04" />
<text x="1385.0" y="1184.0000000000002" class="tiny" text-anchor="middle" dominant-baseline="middle">3 ком. квартира класса А-84.98м2(53кв)</text>
<rect x="1580.0" y="1125.3333333333335" width="350.0" height="117.33333333333334" class="apt" rx="10" ry="10" id="apt_f08_a05" />
<text x="1755.0" y="1184.0000000000002" class="tiny" text-anchor="middle" dominant-baseline="middle">2 ком. квартира класса В-80.14м2(54кв)</text>
<rect x="1950.0" y="1125.3333333333335" width="350.0" height="117.33333333333334" class="apt" rx="10" ry="10" id="apt_f08_a06" />
<text x="2125.0" y="1184.0000000000002" class="tiny" text-anchor="middle" dominant-baseline="middle">1 ком. квартира со ст Г-59.25м2(55кв)</text>
<rect x="2320.0" y="1125.3333333333335" width="350.0" height="117.33333333333334" class="apt" rx="10" ry="10" id="apt_f08_a07" />
<text x="2495.0" y="1184.0000000000002" class="tiny" text-anchor="middle" dominant-baseline="middle">1 ком. квартира со ст Г-59.25м2(56кв)</text>
<text x="52" y="1313.3333333333335" class="small" text-anchor="end" dominant-baseline="middle">7</text>
<rect x="100.0" y="1254.6666666666667" width="350.0" height="117.33333333333334" class="apt" rx="10" ry="10" id="apt_f07_a01" />
<text x="275.0" y="1313.3333333333335" class="tiny" text-anchor="middle" dominant-baseline="middle">2 ком. квартира со ст А-91.11м2(43кв)</text>
<rect x="470.0" y="1254.6666666666667" width="350.0" height="117.33333333333334" class="apt" rx="10" ry="10" id="apt_f07_a02" />
<text x="645.0" y="1313.3333333333335" class="tiny" text-anchor="middle" dominant-baseline="middle">2 ком. квартира класса Г-55.50м2(44кв)</text>
<rect x="840.0" y="1254.6666666666667" width="350.0" height="117.33333333333334" class="apt" rx="10" ry="10" id="apt_f07_a03" />
<text x="1015.0" y="1313.3333333333335" class="tiny" text-anchor="middle" dominant-baseline="middle">2 ком. квартира со ст Б-82.11м2(45кв)</text>
<rect x="1210.0" y="1254.6666666666667" width="350.0" height="117.33333333333334" class="apt" rx="10" ry="10" id="apt_f07_a04" />
<text x="1385.0" y="1313.3333333333335" class="tiny" text-anchor="middle" dominant-baseline="middle">3 ком. квартира класса А-84.98м2(46кв)</text>
<rect x="1580.0" y="1254.6666666666667" width="350.0" height="117.33333333333334" class="apt" rx="10" ry="10" id="apt_f07_a05" />
<text x="1755.0" y="1313.3333333333335" class="tiny" text-anchor="middle" dominant-baseline="middle">2 ком. квартира класса В-80.14м2(47кв)</text>
<rect x="1950.0" y="1254.6666666666667" width="350.0" height="117.33333333333334" class="apt" rx="10" ry="10" id="apt_f07_a06" />
<text x="2125.0" y="1313.3333333333335" class="tiny" text-anchor="middle" dominant-baseline="middle">1 ком. квартира со ст Г-59.25м2(48кв)</text>
<rect x="2320.0" y="1254.6666666666667" width="350.0" height="117.33333333333334" class="apt" rx="10" ry="10" id="apt_f07_a07" />
<text x="2495.0" y="1313.3333333333335" class="tiny" text-anchor="middle" dominant-baseline="middle">1 ком. квартира со ст Г-59.25м2(49кв)</text>
<text x="52" y="1442.6666666666667" class="small" text-anchor="end" dominant-baseline="middle">6</text>
<rect x="100.0" y="1384.0" width="350.0" height="117.33333333333334" class="apt" rx="10" ry="10" id="apt_f06_a01" />
<text x="275.0" y="1442.6666666666667" class="tiny" text-anchor="middle" dominant-baseline="middle">2 ком. квартира со ст А-91.11м2(36кв)</text>
<rect x="470.0" y="1384.0" width="350.0" height="117.33333333333334" class="apt" rx="10" ry="10" id="apt_f06_a02" />
<text x="645.0" y="1442.6666666666667" class="tiny" text-anchor="middle" dominant-baseline="middle">2 ком. квартира класса Г-55.50м2(37кв)</text>
<rect x="840.0" y="1384.0" width="350.0" height="117.33333333333334" class="apt" rx="10" ry="10" id="apt_f06_a03" />
<text x="1015.0" y="1442.6666666666667" class="tiny" text-anchor="middle" dominant-baseline="middle">2 ком. квартира со ст Б-82.11м2(38кв)</text>
<rect x="1210.0" y="1384.0" width="350.0" height="117.33333333333334" class="apt" rx="10" ry="10" id="apt_f06_a04" />
<text x="1385.0" y="1442.6666666666667" class="tiny" text-anchor="middle" dominant-baseline="middle">3 ком. квартира класса А-84.98м2(39кв)</text>
<rect x="1580.0" y="1384.0" width="350.0" height="117.33333333333334" class="apt" rx="10" ry="10" id="apt_f06_a05" />
<text x="1755.0" y="1442.6666666666667" class="tiny" text-anchor="middle" dominant-baseline="middle">2 ком. квартира класса В-80.14м2(40кв)</text>
<rect x="1950.0" y="1384.0" width="350.0" height="117.33333333333334" class="apt" rx="10" ry="10" id="apt_f06_a06" />
<text x="2125.0" y="1442.6666666666667" class="tiny" text-anchor="middle" dominant-baseline="middle">1 ком. квартира со ст Г-59.25м2(41кв)</text>
<rect x="2320.0" y="1384.0" width="350.0" height="117.33333333333334" class="apt" rx="10" ry="10" id="apt_f06_a07" />
<text x="2495.0" y="1442.6666666666667" class="tiny" text-anchor="middle" dominant-baseline="middle">1 ком. квартира со ст Г-59.25м2(42кв)</text>
<text x="52" y="1572.0000000000002" class="small" text-anchor="end" dominant-baseline="middle">5</text>
<rect x="100.0" y="1513.3333333333335" width="350.0" height="117.33333333333334" class="apt" rx="10" ry="10" id="apt_f05_a01" />
<text x="275.0" y="1572.0000000000002" class="tiny" text-anchor="middle" dominant-baseline="middle">2 ком. квартира со ст А-91.11м2(29кв)</text>
<rect x="470.0" y="1513.3333333333335" width="350.0" height="117.33333333333334" class="apt" rx="10" ry="10" id="apt_f05_a02" />
<text x="645.0" y="1572.0000000000002" class="tiny" text-anchor="middle" dominant-baseline="middle">2 ком. квартира класса Г-55.50м2(30кв)</text>
<rect x="840.0" y="1513.3333333333335" width="350.0" height="117.33333333333334" class="apt" rx="10" ry="10" id="apt_f05_a03" />
<text x="1015.0" y="1572.0000000000002" class="tiny" text-anchor="middle" dominant-baseline="middle">2 ком. квартира со ст Б-82.11м2(31кв)</text>
<rect x="1210.0" y="1513.3333333333335" width="350.0" height="117.33333333333334" class="apt" rx="10" ry="10" id="apt_f05_a04" />
<text x="1385.0" y="1572.0000000000002" class="tiny" text-anchor="middle" dominant-baseline="middle">3 ком. квартира класса А-84.98м2(32кв)</text>
<rect x="1580.0" y="1513.3333333333335" width="350.0" height="117.33333333333334" class="apt" rx="10" ry="10" id="apt_f05_a05" />
<text x="1755.0" y="1572.0000000000002" class="tiny" text-anchor="middle" dominant-baseline="middle">2 ком. квартира класса В-80.14м2(33кв)</text>
<rect x="1950.0" y="1513.3333333333335" width="350.0" height="117.33333333333334" class="apt" rx="10" ry="10" id="apt_f05_a06" />
<text x="2125.0" y="1572.0000000000002" class="tiny" text-anchor="middle" dominant-baseline="middle">1 ком. квартира со ст Г-59.25м2(34кв)</text>
<rect x="2320.0" y="1513.3333333333335" width="350.0" height="117.33333333333334" class="apt" rx="10" ry="10" id="apt_f05_a07" />
<text x="2495.0" y="1572.0000000000002" class="tiny" text-anchor="middle" dominant-baseline="middle">1 ком. квартира со ст Г-59.25м2(35кв)</text>
<text x="52" y="1701.3333333333335" class="small" text-anchor="end" dominant-baseline="middle">4</text>
<rect x="100.0" y="1642.6666666666667" width="350.0" height="117.33333333333334" class="apt" rx="10" ry="10" id="apt_f04_a01" />
<text x="275.0" y="1701.3333333333335" class="tiny" text-anchor="middle" dominant-baseline="middle">2 ком. квартира со ст А-91.11м2(22кв)</text>
<rect x="470.0" y="1642.6666666666667" width="350.0" height="117.33333333333334" class="apt" rx="10" ry="10" id="apt_f04_a02" />
<text x="645.0" y="1701.3333333333335" class="tiny" text-anchor="middle" dominant-baseline="middle">2 ком. квартира класса Г-55.50м2(23кв)</text>
<rect x="840.0" y="1642.6666666666667" width="350.0" height="117.33333333333334" class="apt" rx="10" ry="10" id="apt_f04_a03" />
<text x="1015.0" y="1701.3333333333335" class="tiny" text-anchor="middle" dominant-baseline="middle">2 ком. квартира со ст Б-82.11м2(24кв)</text>
<rect x="1210.0" y="1642.6666666666667" width="350.0" height="117.33333333333334" class="apt" rx="10" ry="10" id="apt_f04_a04" />
<text x="1385.0" y="1701.3333333333335" class="tiny" text-anchor="middle" dominant-baseline="middle">3 ком. квартира класса А-84.98м2(25кв)</text>
<rect x="1580.0" y="1642.6666666666667" width="350.0" height="117.33333333333334" class="apt" rx="10" ry="10" id="apt_f04_a05" />
<text x="1755.0" y="1701.3333333333335" class="tiny" text-anchor="middle" dominant-baseline="middle">2 ком. квартира класса В-80.14м2(26кв)</text>
<rect x="1950.0" y="1642.6666666666667" width="350.0" height="117.33333333333334" class="apt" rx="10" ry="10" id="apt_f04_a06" />
<text x="2125.0" y="1701.3333333333335" class="tiny" text-anchor="middle" dominant-baseline="middle">1 ком. квартира со ст Г-59.25м2(27кв)</text>
<rect x="2320.0" y="1642.6666666666667" width="350.0" height="117.33333333333334" class="apt" rx="10" ry="10" id="apt_f04_a07" />
<text x="2495.0" y="1701.3333333333335" class="tiny" text-anchor="middle" dominant-baseline="middle">1 ком. квартира со ст Г-59.25м2(28кв)</text>
<text x="52" y="1830.6666666666667" class="small" text-anchor="end" dominant-baseline="middle">3</text>
<rect x="100.0" y="1772.0" width="350.0" height="117.33333333333334" class="apt" rx="10" ry="10" id="apt_f03_a01" />
<text x="275.0" y="1830.6666666666667" class="tiny" text-anchor="middle" dominant-baseline="middle">2 ком. квартира со ст А-91.11м2(15кв)</text>
<rect x="470.0" y="1772.0" width="350.0" height="117.33333333333334" class="apt" rx="10" ry="10" id="apt_f03_a02" />
<text x="645.0" y="1830.6666666666667" class="tiny" text-anchor="middle" dominant-baseline="middle">2 ком. квартира класса Г-55.50м2(16кв)</text>
<rect x="840.0" y="1772.0" width="350.0" height="117.33333333333334" class="apt" rx="10" ry="10" id="apt_f03_a03" />
<text x="1015.0" y="1830.6666666666667" class="tiny" text-anchor="middle" dominant-baseline="middle">2 ком. квартира со ст Б-82.11м2(17кв)</text>
<rect x="1210.0" y="1772.0" width="350.0" height="117.33333333333334" class="apt" rx="10" ry="10" id="apt_f03_a04" />
<text x="1385.0" y="1830.6666666666667" class="tiny" text-anchor="middle" dominant-baseline="middle">3 ком. квартира класса А-84.98м2(18кв)</text>
<rect x="1580.0" y="1772.0" width="350.0" height="117.33333333333334" class="apt" rx="10" ry="10" id="apt_f03_a05" />
<text x="1755.0" y="1830.6666666666667" class="tiny" text-anchor="middle" dominant-baseline="middle">2 ком. квартира класса В-80.14м2(19кв)</text>
<rect x="1950.0" y="1772.0" width="350.0" height="117.33333333333334" class="apt" rx="10" ry="10" id="apt_f03_a06" />
<text x="2125.0" y="1830.6666666666667" class="tiny" text-anchor="middle" dominant-baseline="middle">1 ком. квартира со ст Г-59.25м2(20кв)</text>
<rect x="2320.0" y="1772.0" width="350.0" height="117.33333333333334" class="apt" rx="10" ry="10" id="apt_f03_a07" />
<text x="2495.0" y="1830.6666666666667" class="tiny" text-anchor="middle" dominant-baseline="middle">1 ком. квартира со ст Г-59.25м2(21кв)</text>
<text x="52" y="1960.0000000000002" class="small" text-anchor="end" dominant-baseline="middle">2</text>
<rect x="100.0" y="1901.3333333333335" width="350.0" height="117.33333333333334" class="apt" rx="10" ry="10" id="apt_f02_a01" />
<text x="275.0" y="1960.0000000000002" class="tiny" text-anchor="middle" dominant-baseline="middle">2 ком. квартира со ст А-91.11м2(8кв)</text>
<rect x="470.0" y="1901.3333333333335" width="350.0" height="117.33333333333334" class="apt" rx="10" ry="10" id="apt_f02_a02" />
<text x="645.0" y="1960.0000000000002" class="tiny" text-anchor="middle" dominant-baseline="middle">2 ком. квартира класса Г-55.50м2(9кв)</text>
<rect x="840.0" y="1901.3333333333335" width="350.0" height="117.33333333333334" class="apt" rx="10" ry="10" id="apt_f02_a03" />
<text x="1015.0" y="1960.0000000000002" class="tiny" text-anchor="middle" dominant-baseline="middle">2 ком. квартира со ст Б-82.11м2(10кв)</text>
<rect x="1210.0" y="1901.3333333333335" width="350.0" height="117.33333333333334" class="apt" rx="10" ry="10" id="apt_f02_a04" />
<text x="1385.0" y="1960.0000000000002" class="tiny" text-anchor="middle" dominant-baseline="middle">3 ком. квартира класса А-84.98м2(11кв)</text>
<rect x="1580.0" y="1901.3333333333335" width="350.0" height="117.33333333333334" class="apt" rx="10" ry="10" id="apt_f02_a05" />
<text x="1755.0" y="1960.0000000000002" class="tiny" text-anchor="middle" dominant-baseline="middle">2 ком. квартира класса В-80.14м2(12кв)</text>
<rect x="1950.0" y="1901.3333333333335" width="350.0" height="117.33333333333334" class="apt" rx="10" ry="10" id="apt_f02_a06" />
<text x="2125.0" y="1960.0000000000002" class="tiny" text-anchor="middle" dominant-baseline="middle">1 ком. квартира со ст Г-59.25м2(13кв)</text>
<rect x="2320.0" y="1901.3333333333335" width="350.0" height="117.33333333333334" class="apt" rx="10" ry="10" id="apt_f02_a07" />
<text x="2495.0" y="1960.0000000000002" class="tiny" text-anchor="middle" dominant-baseline="middle">1 ком. квартира со ст Г-59.25м2(14кв)</text>
<text x="52" y="2089.3333333333335" class="small" text-anchor="end" dominant-baseline="middle">1</text>
<rect x="100.0" y="2030.6666666666667" width="350.0" height="117.33333333333334" class="apt" rx="10" ry="10" id="apt_f01_a01" />
<text x="275.0" y="2089.3333333333335" class="tiny" text-anchor="middle" dominant-baseline="middle">2 ком. квартира со ст А-91.11м2(1кв)</text>
<rect x="470.0" y="2030.6666666666667" width="350.0" height="117.33333333333334" class="apt" rx="10" ry="10" id="apt_f01_a02" />
<text x="645.0" y="2089.3333333333335" class="tiny" text-anchor="middle" dominant-baseline="middle">2 ком. квартира класса Г-55.50м2(2кв)</text>
<rect x="840.0" y="2030.6666666666667" width="350.0" height="117.33333333333334" class="apt" rx="10" ry="10" id="apt_f01_a03" />
<text x="1015.0" y="2089.3333333333335" class="tiny" text-anchor="middle" dominant-baseline="middle">2 ком. квартира со ст Б-82.11м2(3кв)</text>
<rect x="1210.0" y="2030.6666666666667" width="350.0" height="117.33333333333334" class="apt" rx="10" ry="10" id="apt_f01_a04" />
<text x="1385.0" y="2089.3333333333335" class="tiny" text-anchor="middle" dominant-baseline="middle">3 ком. квартира класса А-84.98м2(4кв)</text>
<rect x="1580.0" y="2030.6666666666667" width="350.0" height="117.33333333333334" class="apt" rx="10" ry="10" id="apt_f01_a05" />
<text x="1755.0" y="2089.3333333333335" class="tiny" text-anchor="middle" dominant-baseline="middle">2 ком. квартира класса В-80.14м2(5кв)</text>
<rect x="1950.0" y="2030.6666666666667" width="350.0" height="117.33333333333334" class="apt" rx="10" ry="10" id="apt_f01_a06" />
<text x="2125.0" y="2089.3333333333335" class="tiny" text-anchor="middle" dominant-baseline="middle">1 ком. квартира со ст Г-59.25м2(6кв)</text>
<rect x="2320.0" y="2030.6666666666667" width="350.0" height="117.33333333333334" class="apt" rx="10" ry="10" id="apt_f01_a07" />
<text x="2495.0" y="2089.3333333333335" class="tiny" text-anchor="middle" dominant-baseline="middle">1 ком. квартира со ст Г-59.25м2(7кв)</text>
</svg>