<?xml version="1.0" encoding="UTF-8"?>
<svg id="Layer_2" data-name="Layer 2" xmlns="http://www.w3.org/2000/svg" viewBox="0 0 2752.58 2200.65">
  <defs>
    <style>
      .cls-1 {
        fill: #00a651;
        stroke-width: 2px;
      }

      .cls-1, .cls-2 {
        stroke: #1a1a1a;
      }

      .cls-3 {
        fill: #f7f8f8;
        stroke: #131313;
      }

      .cls-3, .cls-2 {
        stroke-width: 3px;
      }

      .cls-2 {
        fill: #ae4e4e;
      }

      .cls-4 {
        font-size: 45px;
      }

      .cls-4, .cls-5, .cls-6 {
        font-family: Arial-BoldMT, Arial;
        font-weight: 700;
        isolation: isolate;
      }

      .cls-4, .cls-6 {
        fill: #fff;
      }

      .cls-5 {
        fill: #131313;
        font-size: 55px;
      }

      .cls-7 {
        letter-spacing: -.06em;
      }

      .cls-8 {
        letter-spacing: -.06em;
      }

      .cls-9 {
        letter-spacing: -.01em;
      }

      .cls-6 {
        font-size: 150px;
      }
    </style>
  </defs>
  <g id="Layer_1-2" data-name="Layer 1">
    <g>
      <path class="cls-2" d="M2748.54,236.29H155c-5.86,0-3.8-3.71-2.36-6.31L279.71,1.5h2343.3l127.56,229.36c1.25,2.24.06,5.43-2.03,5.43Z"/>
      <text class="cls-6" transform="translate(1158.83 169.21)"><tspan x="0" y="0">Б</tspan><tspan class="cls-9" x="107.81" y="0">л</tspan><tspan x="201.12" y="0">ок 8 </tspan></text>
      <rect class="cls-3" x="151.08" y="236.29" width="2600" height="1962.86"/>
      <text class="cls-5" transform="translate(0 345.97)"><tspan x="0" y="0">15</tspan></text>
      <text class="cls-5" transform="translate(0 473.37)"><tspan x="0" y="0">14</tspan></text>
      <text class="cls-5" transform="translate(0 600.67)"><tspan x="0" y="0">13</tspan></text>
      <text class="cls-5" transform="translate(0 727.97)"><tspan x="0" y="0">12</tspan></text>
      <text class="cls-5" transform="translate(1 855.37)"><tspan class="cls-7" x="0" y="0">1</tspan><tspan x="27.55" y="0">1</tspan></text>
      <text class="cls-5" transform="translate(0 982.67)"><tspan x="0" y="0">10</tspan></text>
      <text class="cls-5" transform="translate(10 1109.97)"><tspan x="0" y="0">9</tspan></text>
      <text class="cls-5" transform="translate(10 1237.37)"><tspan x="0" y="0">8</tspan></text>
      <text class="cls-5" transform="translate(10 1364.67)"><tspan x="0" y="0">7</tspan></text>
      <text class="cls-5" transform="translate(10 1491.97)"><tspan x="0" y="0">6</tspan></text>
      <text class="cls-5" transform="translate(10 1619.37)"><tspan x="0" y="0">5</tspan></text>
      <text class="cls-5" transform="translate(10 1746.67)"><tspan x="0" y="0">4</tspan></text>
      <text class="cls-5" transform="translate(10 1873.97)"><tspan x="0" y="0">3</tspan></text>
      <text class="cls-5" transform="translate(10 2001.37)"><tspan x="0" y="0">2</tspan></text>
      <text class="cls-5" transform="translate(10 2128.67)"><tspan x="0" y="0">1</tspan></text>
      <rect id="uuid-ce20ae7d-be1d-4a45-ae10-e5cb03b8b6822" class="cls-1" x="2226.83" y="2056.9" width="500" height="117.3"/>
      <text class="cls-4" transform="translate(2255.11 2131.98)"><tspan x="0" y="0">2 </tspan><tspan class="cls-9" x="37.53" y="0">ко</tspan><tspan x="86.35" y="0">м.75.47м2(5кв)</tspan></text>
      <rect id="uuid-6360f669-01c5-45b2-8740-860b0ad1d9102" class="cls-1" x="1713.95" y="2057.05" width="500" height="117.3"/>
      <text class="cls-4" transform="translate(1740.53 2128.03)"><tspan x="0" y="0">2 </tspan><tspan class="cls-9" x="37.53" y="0">ко</tspan><tspan x="86.35" y="0">м. 81.33м2(4кв)</tspan></text>
      <rect id="uuid-9ac471e8-d300-4408-aef1-3294629d6e832" class="cls-1" x="1201.08" y="2056.9" width="500" height="117.3"/>
      <text class="cls-4" transform="translate(1217.53 2126.59)"><tspan x="0" y="0">2 </tspan><tspan class="cls-9" x="37.53" y="0">ко</tspan><tspan x="86.35" y="0">м.74.49м2(3кв)</tspan></text>
      <rect id="uuid-5c9dfcca-3bd1-4a06-830c-c9fa66cbde2d2" class="cls-1" x="684.83" y="2056.9" width="500" height="117.3"/>
      <text class="cls-4" transform="translate(719.25 2134.49)"><tspan x="0" y="0">2 </tspan><tspan class="cls-9" x="37.53" y="0">ко</tspan><tspan x="86.35" y="0">м.74.60м2(2кв)</tspan></text>
      <rect id="uuid-e20d0fad-f78f-43ac-a310-ffaf37284a452" class="cls-1" x="170.83" y="2057" width="500" height="117.3"/>
      <text class="cls-4" transform="translate(192.03 2134.49)"><tspan x="0" y="0">1 </tspan><tspan class="cls-9" x="37.53" y="0">ко</tspan><tspan x="86.35" y="0">м.45.93м2(1кв)</tspan></text>
      <rect id="apt_f15_a01116" data-name="apt f15 a01116" class="cls-1" x="2226.83" y="1929.6" width="500" height="117.3"/>
      <text class="cls-4" transform="translate(2245.13 1988.22)"><tspan x="0" y="0">2 </tspan><tspan class="cls-9" x="37.53" y="0">ко</tspan><tspan x="86.35" y="0">м.75.47м2(10кв)</tspan></text>
      <rect id="apt_f15_a02116" data-name="apt f15 a02116" class="cls-1" x="1713.95" y="1929.75" width="500" height="117.3"/>
      <text class="cls-4" transform="translate(1740.53 1992.18)"><tspan x="0" y="0">2 </tspan><tspan class="cls-9" x="37.53" y="0">ко</tspan><tspan x="86.35" y="0">м. 81.33м2(9кв)</tspan></text>
      <rect id="apt_f15_a03116" data-name="apt f15 a03116" class="cls-1" x="1201.08" y="1929.6" width="500" height="117.3"/>
      <text class="cls-4" transform="translate(1217.53 1993.62)"><tspan x="0" y="0">2 </tspan><tspan class="cls-9" x="37.53" y="0">ко</tspan><tspan x="86.35" y="0">м.74.49м2(8кв)</tspan></text>
      <rect id="apt_f15_a04116" data-name="apt f15 a04116" class="cls-1" x="684.83" y="1929.6" width="500" height="117.3"/>
      <text class="cls-4" transform="translate(719.25 1996.35)"><tspan x="0" y="0">2 </tspan><tspan class="cls-9" x="37.53" y="0">ко</tspan><tspan x="86.35" y="0">м.74.60м2(7кв)</tspan></text>
      <rect id="apt_f15_a05216" data-name="apt f15 a05216" class="cls-1" x="170.83" y="1929.7" width="500" height="117.3"/>
      <text class="cls-4" transform="translate(187.33 1996.35)"><tspan x="0" y="0">1 </tspan><tspan class="cls-9" x="37.53" y="0">ко</tspan><tspan x="86.35" y="0">м.45.93м2(6кв)</tspan></text>
      <rect id="apt_f15_a01122" data-name="apt f15 a01122" class="cls-1" x="2226.83" y="1802.3" width="500" height="117.3"/>
      <text class="cls-4" transform="translate(2241.33 1860.92)"><tspan x="0" y="0">2 </tspan><tspan class="cls-9" x="37.53" y="0">ко</tspan><tspan x="86.35" y="0">м.75.47м2(15кв)</tspan></text>
      <rect id="apt_f15_a02122" data-name="apt f15 a02122" class="cls-1" x="1713.95" y="1802.45" width="500" height="117.3"/>
      <text class="cls-4" transform="translate(1736.73 1864.78)"><tspan x="0" y="0">2 </tspan><tspan class="cls-9" x="37.53" y="0">ко</tspan><tspan x="86.35" y="0">м. 81.33м2(14кв)</tspan></text>
      <rect id="apt_f15_a03122" data-name="apt f15 a03122" class="cls-1" x="1201.08" y="1802.3" width="500" height="117.3"/>
      <text class="cls-4" transform="translate(1212.73 1866.32)"><tspan x="0" y="0">2 </tspan><tspan class="cls-9" x="37.53" y="0">ко</tspan><tspan x="86.35" y="0">м.74.49м2(13кв)</tspan></text>
      <rect id="apt_f15_a04122" data-name="apt f15 a04122" class="cls-1" x="684.83" y="1802.4" width="500" height="117.3"/>
      <text class="cls-4" transform="translate(715.45 1869.05)"><tspan x="0" y="0">2 </tspan><tspan class="cls-9" x="37.53" y="0">ко</tspan><tspan x="86.35" y="0">м.74.60м2(12кв)</tspan></text>
      <rect id="apt_f15_a05222" data-name="apt f15 a05222" class="cls-1" x="170.83" y="1802.4" width="500" height="117.3"/>
      <text class="cls-4" transform="translate(187.33 1869.05)"><tspan x="0" y="0">1 </tspan><tspan class="cls-9" x="37.53" y="0">ко</tspan><tspan x="86.35" y="0">м.45.93м2(</tspan><tspan class="cls-8" x="318.05" y="0">1</tspan><tspan x="340.6" y="0">1кв)</tspan></text>
      <rect id="apt_f15_a01132" data-name="apt f15 a01132" class="cls-1" x="2226.83" y="1674.9" width="500" height="117.3"/>
      <text class="cls-4" transform="translate(2240.13 1733.52)"><tspan x="0" y="0">2 </tspan><tspan class="cls-9" x="37.53" y="0">ко</tspan><tspan x="86.35" y="0">м.75.47м2(20кв)</tspan></text>
      <rect id="apt_f15_a02132" data-name="apt f15 a02132" class="cls-1" x="1713.95" y="1675.05" width="500" height="117.3"/>
      <text class="cls-4" transform="translate(1736.73 1737.48)"><tspan x="0" y="0">2 </tspan><tspan class="cls-9" x="37.53" y="0">ко</tspan><tspan x="86.35" y="0">м. 81.33м2(18кв)</tspan></text>
      <rect id="apt_f15_a03132" data-name="apt f15 a03132" class="cls-1" x="1201.08" y="1674.9" width="500" height="117.3"/>
      <text class="cls-4" transform="translate(1210.73 1738.92)"><tspan x="0" y="0">2 </tspan><tspan class="cls-9" x="37.53" y="0">ко</tspan><tspan x="86.35" y="0">м.74.49м2(18кв)</tspan></text>
      <rect id="apt_f15_a04132" data-name="apt f15 a04132" class="cls-1" x="684.83" y="1674.9" width="500" height="117.3"/>
      <text class="cls-4" transform="translate(715.45 1741.65)"><tspan x="0" y="0">2 </tspan><tspan class="cls-9" x="37.53" y="0">ко</tspan><tspan x="86.35" y="0">м.74.60м2(17кв)</tspan></text>
      <rect id="apt_f15_a05232" data-name="apt f15 a05232" class="cls-1" x="170.83" y="1675" width="500" height="117.3"/>
      <text class="cls-4" transform="translate(187.33 1741.65)"><tspan x="0" y="0">1 </tspan><tspan class="cls-9" x="37.53" y="0">ко</tspan><tspan x="86.35" y="0">м.45.93м2(16кв)</tspan></text>
      <rect id="apt_f15_a01142" data-name="apt f15 a01142" class="cls-1" x="2226.83" y="1547.5" width="500" height="117.3"/>
      <text class="cls-4" transform="translate(2239.13 1606.12)"><tspan x="0" y="0">2 </tspan><tspan class="cls-9" x="37.53" y="0">ко</tspan><tspan x="86.35" y="0">м.75.47м2(25кв)</tspan></text>
      <rect id="apt_f15_a02142" data-name="apt f15 a02142" class="cls-1" x="1713.95" y="1547.65" width="500" height="117.3"/>
      <text class="cls-4" transform="translate(1735.53 1610.08)"><tspan x="0" y="0">2 </tspan><tspan class="cls-9" x="37.53" y="0">ко</tspan><tspan x="86.35" y="0">м. 81.33м2(24кв)</tspan></text>
      <rect id="apt_f15_a03142" data-name="apt f15 a03142" class="cls-1" x="1201.08" y="1547.5" width="500" height="117.3"/>
      <text class="cls-4" transform="translate(1211.53 1611.52)"><tspan x="0" y="0">2 </tspan><tspan class="cls-9" x="37.53" y="0">ко</tspan><tspan x="86.35" y="0">м.74.49м2(23кв)</tspan></text>
      <rect id="apt_f15_a04142" data-name="apt f15 a04142" class="cls-1" x="684.83" y="1547.5" width="500" height="117.3"/>
      <text class="cls-4" transform="translate(714.25 1614.26)"><tspan x="0" y="0">2 </tspan><tspan class="cls-9" x="37.53" y="0">ко</tspan><tspan x="86.35" y="0">м.74.60м2(22кв)</tspan></text>
      <rect id="apt_f15_a05242" data-name="apt f15 a05242" class="cls-1" x="170.83" y="1547.6" width="500" height="117.3"/>
      <text class="cls-4" transform="translate(186.03 1614.26)"><tspan x="0" y="0">1 </tspan><tspan class="cls-9" x="37.53" y="0">ко</tspan><tspan x="86.35" y="0">м.45.93м2(21кв)</tspan></text>
      <rect id="apt_f15_a01152" data-name="apt f15 a01152" class="cls-1" x="2226.83" y="1420.1" width="500" height="117.3"/>
      <text class="cls-4" transform="translate(2239.13 1478.72)"><tspan x="0" y="0">2 </tspan><tspan class="cls-9" x="37.53" y="0">ко</tspan><tspan x="86.35" y="0">м.75.47м2(30кв)</tspan></text>
      <rect id="apt_f15_a02152" data-name="apt f15 a02152" class="cls-1" x="1713.95" y="1420.25" width="500" height="117.3"/>
      <text class="cls-4" transform="translate(1733.53 1482.68)"><tspan x="0" y="0">2 </tspan><tspan class="cls-9" x="37.53" y="0">ко</tspan><tspan x="86.35" y="0">м. 81.33м2(29кв)</tspan></text>
      <rect id="apt_f15_a03152" data-name="apt f15 a03152" class="cls-1" x="1201.08" y="1420.1" width="500" height="117.3"/>
      <text class="cls-4" transform="translate(1211.53 1484.12)"><tspan x="0" y="0">2 </tspan><tspan class="cls-9" x="37.53" y="0">ко</tspan><tspan x="86.35" y="0">м.74.49м2(28кв)</tspan></text>
      <rect id="apt_f15_a04152" data-name="apt f15 a04152" class="cls-1" x="684.83" y="1420.1" width="500" height="117.3"/>
      <text class="cls-4" transform="translate(713.25 1486.85)"><tspan x="0" y="0">2 </tspan><tspan class="cls-9" x="37.53" y="0">ко</tspan><tspan x="86.35" y="0">м.74.60м2(27кв)</tspan></text>
      <rect id="apt_f15_a05252" data-name="apt f15 a05252" class="cls-1" x="170.83" y="1420.2" width="500" height="117.3"/>
      <text class="cls-4" transform="translate(185.03 1486.85)"><tspan x="0" y="0">1 </tspan><tspan class="cls-9" x="37.53" y="0">ко</tspan><tspan x="86.35" y="0">м.45.93м2(26кв)</tspan></text>
      <rect id="apt_f15_a01162" data-name="apt f15 a01162" class="cls-1" x="2226.83" y="1292.7" width="500" height="117.3"/>
      <text class="cls-4" transform="translate(2239.13 1351.32)"><tspan x="0" y="0">2 </tspan><tspan class="cls-9" x="37.53" y="0">ко</tspan><tspan x="86.35" y="0">м.75.47м2(35кв)</tspan></text>
      <rect id="apt_f15_a02162" data-name="apt f15 a02162" class="cls-1" x="1713.95" y="1292.85" width="500" height="117.3"/>
      <text class="cls-4" transform="translate(1734.53 1355.28)"><tspan x="0" y="0">2 </tspan><tspan class="cls-9" x="37.53" y="0">ко</tspan><tspan x="86.35" y="0">м. 81.33м2(34кв)</tspan></text>
      <rect id="apt_f15_a03162" data-name="apt f15 a03162" class="cls-1" x="1201.08" y="1292.7" width="500" height="117.3"/>
      <text class="cls-4" transform="translate(1209.53 1356.72)"><tspan x="0" y="0">2 </tspan><tspan class="cls-9" x="37.53" y="0">ко</tspan><tspan x="86.35" y="0">м.74.49м2(33кв)</tspan></text>
      <rect id="apt_f15_a04162" data-name="apt f15 a04162" class="cls-1" x="684.83" y="1292.7" width="500" height="117.3"/>
      <text class="cls-4" transform="translate(711.25 1359.45)"><tspan x="0" y="0">2 </tspan><tspan class="cls-9" x="37.53" y="0">ко</tspan><tspan x="86.35" y="0">м.74.60м2(32кв)</tspan></text>
      <rect id="apt_f15_a05262" data-name="apt f15 a05262" class="cls-1" x="170.83" y="1292.8" width="500" height="117.3"/>
      <text class="cls-4" transform="translate(185.03 1359.45)"><tspan x="0" y="0">1 </tspan><tspan class="cls-9" x="37.53" y="0">ко</tspan><tspan x="86.35" y="0">м.45.93м2(31кв)</tspan></text>
      <rect id="apt_f15_a01172" data-name="apt f15 a01172" class="cls-1" x="2226.83" y="1165.3" width="500" height="117.3"/>
      <text class="cls-4" transform="translate(2238.13 1223.92)"><tspan x="0" y="0">2 </tspan><tspan class="cls-9" x="37.53" y="0">ко</tspan><tspan x="86.35" y="0">м.75.47м2(40кв)</tspan></text>
      <rect id="apt_f15_a02172" data-name="apt f15 a02172" class="cls-1" x="1713.95" y="1165.45" width="500" height="117.3"/>
      <text class="cls-4" transform="translate(1732.53 1227.88)"><tspan x="0" y="0">2 </tspan><tspan class="cls-9" x="37.53" y="0">ко</tspan><tspan x="86.35" y="0">м. 81.33м2(39кв)</tspan></text>
      <rect id="apt_f15_a03172" data-name="apt f15 a03172" class="cls-1" x="1201.08" y="1165.3" width="500" height="117.3"/>
      <text class="cls-4" transform="translate(1210.53 1229.32)"><tspan x="0" y="0">2 </tspan><tspan class="cls-9" x="37.53" y="0">ко</tspan><tspan x="86.35" y="0">м.74.49м2(38кв)</tspan></text>
      <rect id="apt_f15_a04172" data-name="apt f15 a04172" class="cls-1" x="684.83" y="1165.3" width="500" height="117.3"/>
      <text class="cls-4" transform="translate(711.25 1232.05)"><tspan x="0" y="0">2 </tspan><tspan class="cls-9" x="37.53" y="0">ко</tspan><tspan x="86.35" y="0">м.74.60м2(37кв)</tspan></text>
      <rect id="apt_f15_a05272" data-name="apt f15 a05272" class="cls-1" x="170.83" y="1165.4" width="500" height="117.3"/>
      <text class="cls-4" transform="translate(183.03 1232.05)"><tspan x="0" y="0">1 </tspan><tspan class="cls-9" x="37.53" y="0">ко</tspan><tspan x="86.35" y="0">м.45.93м2(36кв)</tspan></text>
      <rect id="apt_f15_a01182" data-name="apt f15 a01182" class="cls-1" x="2226.83" y="1037.9" width="500" height="117.3"/>
      <text class="cls-4" transform="translate(2239.13 1096.52)"><tspan x="0" y="0">2 </tspan><tspan class="cls-9" x="37.53" y="0">ко</tspan><tspan x="86.35" y="0">м.75.47м2(45кв)</tspan></text>
      <rect id="apt_f15_a02182" data-name="apt f15 a02182" class="cls-1" x="1713.95" y="1038.05" width="500" height="117.3"/>
      <text class="cls-4" transform="translate(1730.53 1100.48)"><tspan x="0" y="0">2 </tspan><tspan class="cls-9" x="37.53" y="0">ко</tspan><tspan x="86.35" y="0">м. 81.33м2(44кв)</tspan></text>
      <rect id="apt_f15_a03182" data-name="apt f15 a03182" class="cls-1" x="1201.08" y="1037.9" width="500" height="117.3"/>
      <text class="cls-4" transform="translate(1208.53 1101.92)"><tspan x="0" y="0">2 </tspan><tspan class="cls-9" x="37.53" y="0">ко</tspan><tspan x="86.35" y="0">м.74.49м2(43кв)</tspan></text>
      <rect id="apt_f15_a04182" data-name="apt f15 a04182" class="cls-1" x="684.83" y="1037.9" width="500" height="117.3"/>
      <text class="cls-4" transform="translate(712.25 1104.65)"><tspan x="0" y="0">2 </tspan><tspan class="cls-9" x="37.53" y="0">ко</tspan><tspan x="86.35" y="0">м.74.60м2(42кв)</tspan></text>
      <rect id="apt_f15_a05282" data-name="apt f15 a05282" class="cls-1" x="170.83" y="1038" width="500" height="117.3"/>
      <text class="cls-4" transform="translate(186.03 1104.65)"><tspan x="0" y="0">1 </tspan><tspan class="cls-9" x="37.53" y="0">ко</tspan><tspan x="86.35" y="0">м.45.93м2(41кв)</tspan></text>
      <rect id="apt_f15_a01192" data-name="apt f15 a01192" class="cls-1" x="2226.83" y="910.5" width="500" height="117.3"/>
      <text class="cls-4" transform="translate(2237.13 969.12)"><tspan x="0" y="0">2 </tspan><tspan class="cls-9" x="37.53" y="0">ко</tspan><tspan x="86.35" y="0">м.75.47м2(50кв)</tspan></text>
      <rect id="apt_f15_a02192" data-name="apt f15 a02192" class="cls-1" x="1713.95" y="910.65" width="500" height="117.3"/>
      <text class="cls-4" transform="translate(1735.53 973.08)"><tspan x="0" y="0">2 </tspan><tspan class="cls-9" x="37.53" y="0">ко</tspan><tspan x="86.35" y="0">м. 81.33м2(49кв)</tspan></text>
      <rect id="apt_f15_a03192" data-name="apt f15 a03192" class="cls-1" x="1201.08" y="910.5" width="500" height="117.3"/>
      <text class="cls-4" transform="translate(1212.53 974.52)"><tspan x="0" y="0">2 </tspan><tspan class="cls-9" x="37.53" y="0">ко</tspan><tspan x="86.35" y="0">м.74.49м2(48кв)</tspan></text>
      <rect id="apt_f15_a04192" data-name="apt f15 a04192" class="cls-1" x="684.83" y="910.5" width="500" height="117.3"/>
      <text class="cls-4" transform="translate(714.25 977.26)"><tspan x="0" y="0">2 </tspan><tspan class="cls-9" x="37.53" y="0">ко</tspan><tspan x="86.35" y="0">м.74.60м2(47кв)</tspan></text>
      <rect id="apt_f15_a05292" data-name="apt f15 a05292" class="cls-1" x="170.83" y="910.6" width="500" height="117.3"/>
      <text class="cls-4" transform="translate(186.03 977.26)"><tspan x="0" y="0">1 </tspan><tspan class="cls-9" x="37.53" y="0">ко</tspan><tspan x="86.35" y="0">м.45.93м2(46кв)</tspan></text>
      <rect id="apt_f15_a011102" data-name="apt f15 a011102" class="cls-1" x="2226.83" y="783.1" width="500" height="117.3"/>
      <text class="cls-4" transform="translate(2240.13 841.72)"><tspan x="0" y="0">2 </tspan><tspan class="cls-9" x="37.53" y="0">ко</tspan><tspan x="86.35" y="0">м.75.47м2(55кв)</tspan></text>
      <rect id="apt_f15_a021102" data-name="apt f15 a021102" class="cls-1" x="1713.95" y="783.25" width="500" height="117.3"/>
      <text class="cls-4" transform="translate(1736.53 845.68)"><tspan x="0" y="0">2 </tspan><tspan class="cls-9" x="37.53" y="0">ко</tspan><tspan x="86.35" y="0">м. 81.33м2(54кв)</tspan></text>
      <rect id="apt_f15_a031102" data-name="apt f15 a031102" class="cls-1" x="1201.08" y="783.1" width="500" height="117.3"/>
      <text class="cls-4" transform="translate(1214.53 847.12)"><tspan x="0" y="0">2 </tspan><tspan class="cls-9" x="37.53" y="0">ко</tspan><tspan x="86.35" y="0">м.74.49м2(53кв)</tspan></text>
      <rect id="apt_f15_a041102" data-name="apt f15 a041102" class="cls-1" x="684.83" y="783.1" width="500" height="117.3"/>
      <text class="cls-4" transform="translate(713.25 849.85)"><tspan x="0" y="0">2 </tspan><tspan class="cls-9" x="37.53" y="0">ко</tspan><tspan x="86.35" y="0">м.74.60м2(52кв)</tspan></text>
      <rect id="apt_f15_a052102" data-name="apt f15 a052102" class="cls-1" x="170.83" y="783.2" width="500" height="117.3"/>
      <text class="cls-4" transform="translate(187.03 849.85)"><tspan x="0" y="0">1 </tspan><tspan class="cls-9" x="37.53" y="0">ко</tspan><tspan x="86.35" y="0">м.45.93м2(51кв)</tspan></text>
      <rect id="apt_f15_a011112" data-name="apt f15 a011112" class="cls-1" x="2226.83" y="655.7" width="500" height="117.3"/>
      <text class="cls-4" transform="translate(2238.13 715.32)"><tspan x="0" y="0">2 </tspan><tspan class="cls-9" x="37.53" y="0">ко</tspan><tspan x="86.35" y="0">м.75.47м2(60кв)</tspan></text>
      <rect id="apt_f15_a021112" data-name="apt f15 a021112" class="cls-1" x="1713.95" y="655.85" width="500" height="117.3"/>
      <text class="cls-4" transform="translate(1734.53 718.28)"><tspan x="0" y="0">2 </tspan><tspan class="cls-9" x="37.53" y="0">ко</tspan><tspan x="86.35" y="0">м. 81.33м2(59кв)</tspan></text>
      <rect id="apt_f15_a031112" data-name="apt f15 a031112" class="cls-1" x="1201.08" y="655.7" width="500" height="117.3"/>
      <text class="cls-4" transform="translate(1212.53 719.72)"><tspan x="0" y="0">2 </tspan><tspan class="cls-9" x="37.53" y="0">ко</tspan><tspan x="86.35" y="0">м.74.49м2(58кв)</tspan></text>
      <rect id="apt_f15_a041112" data-name="apt f15 a041112" class="cls-1" x="684.83" y="655.7" width="500" height="117.3"/>
      <text class="cls-4" transform="translate(713.25 722.45)"><tspan x="0" y="0">2 </tspan><tspan class="cls-9" x="37.53" y="0">ко</tspan><tspan x="86.35" y="0">м.74.60м2(57кв)</tspan></text>
      <rect id="apt_f15_a052112" data-name="apt f15 a052112" class="cls-1" x="170.83" y="655.8" width="500" height="117.3"/>
      <text class="cls-4" transform="translate(187.03 722.45)"><tspan x="0" y="0">1 </tspan><tspan class="cls-9" x="37.53" y="0">ко</tspan><tspan x="86.35" y="0">м.45.93м2(56кв)</tspan></text>
      <rect id="apt_f15_a011122" data-name="apt f15 a011122" class="cls-1" x="2226.83" y="528.3" width="500" height="117.3"/>
      <text class="cls-4" transform="translate(2239.13 586.92)"><tspan x="0" y="0">2 </tspan><tspan class="cls-9" x="37.53" y="0">ко</tspan><tspan x="86.35" y="0">м.75.47м2(65кв)</tspan></text>
      <rect id="apt_f15_a021122" data-name="apt f15 a021122" class="cls-1" x="1713.95" y="528.45" width="500" height="117.3"/>
      <text class="cls-4" transform="translate(1735.53 590.88)"><tspan x="0" y="0">2 </tspan><tspan class="cls-9" x="37.53" y="0">ко</tspan><tspan x="86.35" y="0">м. 81.33м2(64кв)</tspan></text>
      <rect id="apt_f15_a031122" data-name="apt f15 a031122" class="cls-1" x="1201.08" y="528.3" width="500" height="117.3"/>
      <text class="cls-4" transform="translate(1211.53 592.32)"><tspan x="0" y="0">2 </tspan><tspan class="cls-9" x="37.53" y="0">ко</tspan><tspan x="86.35" y="0">м.74.49м2(63кв)</tspan></text>
      <rect id="apt_f15_a041122" data-name="apt f15 a041122" class="cls-1" x="684.83" y="528.3" width="500" height="117.3"/>
      <text class="cls-4" transform="translate(714.25 595.05)"><tspan x="0" y="0">2 </tspan><tspan class="cls-9" x="37.53" y="0">ко</tspan><tspan x="86.35" y="0">м.74.60м2(62кв)</tspan></text>
      <rect id="apt_f15_a052122" data-name="apt f15 a052122" class="cls-1" x="170.83" y="528.4" width="500" height="117.3"/>
      <text class="cls-4" transform="translate(187.03 595.05)"><tspan x="0" y="0">1 </tspan><tspan class="cls-9" x="37.53" y="0">ко</tspan><tspan x="86.35" y="0">м.45.93м2(61кв)</tspan></text>
      <rect id="apt_f15_a011132" data-name="apt f15 a011132" class="cls-1" x="2226.83" y="400.9" width="500" height="117.3"/>
      <text class="cls-4" transform="translate(2237.13 459.53)"><tspan x="0" y="0">2 </tspan><tspan class="cls-9" x="37.53" y="0">ко</tspan><tspan x="86.35" y="0">м.75.47м2(70кв)</tspan></text>
      <rect id="apt_f15_a021132" data-name="apt f15 a021132" class="cls-1" x="1713.95" y="401.05" width="500" height="117.3"/>
      <text class="cls-4" transform="translate(1734.53 463.48)"><tspan x="0" y="0">2 </tspan><tspan class="cls-9" x="37.53" y="0">ко</tspan><tspan x="86.35" y="0">м. 81.33м2(69кв)</tspan></text>
      <rect id="apt_f15_a031132" data-name="apt f15 a031132" class="cls-1" x="1201.08" y="400.9" width="500" height="117.3"/>
      <text class="cls-4" transform="translate(1212.53 464.92)"><tspan x="0" y="0">2 </tspan><tspan class="cls-9" x="37.53" y="0">ко</tspan><tspan x="86.35" y="0">м.74.49м2(68кв)</tspan></text>
      <rect id="apt_f15_a041132" data-name="apt f15 a041132" class="cls-1" x="684.83" y="400.9" width="500" height="117.3"/>
      <text class="cls-4" transform="translate(716.25 467.66)"><tspan x="0" y="0">2 </tspan><tspan class="cls-9" x="37.53" y="0">ко</tspan><tspan x="86.35" y="0">м.74.60м2(67кв)</tspan></text>
      <rect id="apt_f15_a052132" data-name="apt f15 a052132" class="cls-1" x="170.83" y="401" width="500" height="117.3"/>
      <text class="cls-4" transform="translate(186.03 467.66)"><tspan x="0" y="0">1 </tspan><tspan class="cls-9" x="37.53" y="0">ко</tspan><tspan x="86.35" y="0">м.45.93м2(66кв)</tspan></text>
      <rect id="apt_f15_a011142" data-name="apt f15 a011142" class="cls-1" x="2226.83" y="273.5" width="500" height="117.3"/>
      <text class="cls-4" transform="translate(2238.13 332.12)"><tspan x="0" y="0">2 </tspan><tspan class="cls-9" x="37.53" y="0">ко</tspan><tspan x="86.35" y="0">м.75.47м2(75кв)</tspan></text>
      <rect id="apt_f15_a021142" data-name="apt f15 a021142" class="cls-1" x="1713.95" y="273.65" width="500" height="117.3"/>
      <text class="cls-4" transform="translate(1735.53 336.08)"><tspan x="0" y="0">2 </tspan><tspan class="cls-9" x="37.53" y="0">ко</tspan><tspan x="86.35" y="0">м. 81.33м2(74кв)</tspan></text>
      <rect id="apt_f15_a031142" data-name="apt f15 a031142" class="cls-1" x="1201.08" y="273.5" width="500" height="117.3"/>
      <text class="cls-4" transform="translate(1212.53 337.52)"><tspan x="0" y="0">2 </tspan><tspan class="cls-9" x="37.53" y="0">ко</tspan><tspan x="86.35" y="0">м.74.49м2(73кв)</tspan></text>
      <rect id="apt_f15_a041142" data-name="apt f15 a041142" class="cls-1" x="684.83" y="273.5" width="500" height="117.3"/>
      <text class="cls-4" transform="translate(714.25 340.26)"><tspan x="0" y="0">2 </tspan><tspan class="cls-9" x="37.53" y="0">ко</tspan><tspan x="86.35" y="0">м.74.60м2(72кв)</tspan></text>
      <rect id="apt_f15_a052142" data-name="apt f15 a052142" class="cls-1" x="170.83" y="273.6" width="500" height="117.3"/>
      <text class="cls-4" transform="translate(186.03 340.26)"><tspan x="0" y="0">1 </tspan><tspan class="cls-9" x="37.53" y="0">ко</tspan><tspan x="86.35" y="0">м.45.93м2(71кв)</tspan></text>
    </g>
  </g>
</svg>