<?xml version='1.0' encoding='utf-8'?>
<svg xmlns="http://www.w3.org/2000/svg" id="Layer_2" data-name="Layer 2" viewBox="0 0 3275.44 2240.54">
  <defs>
    <style>
      .cls-1 {
        fill: #00a651;
        stroke-width: 2px;
      }

      .cls-1, .cls-2 {
        stroke: #1a1a1a;
      }

      .cls-3 {
        fill: #f7f8f8;
        stroke: #131313;
      }

      .cls-3, .cls-2 {
        stroke-width: 3px;
      }

      .cls-2 {
        fill: #ae4e4e;
      }

      .cls-4 {
        font-size: 45px;
      }

      .cls-4, .cls-5 {
        fill: #fff;
      }

      .cls-4, .cls-5, .cls-6 {
        font-family: Arial-BoldMT, Arial;
        font-weight: 700;
        isolation: isolate;
      }

      .cls-5 {
        font-size: 210px;
      }

      .cls-6 {
        fill: #131313;
        font-size: 55px;
      }

      .cls-7 {
        letter-spacing: -.06em;
      }

      .cls-8 {
        letter-spacing: -.06em;
      }

      .cls-9 {
        letter-spacing: -.01em;
      }
    </style>
  </defs>
  <g id="Layer_1-2" data-name="Layer 1">
    <g>
      <path class="cls-2" d="M3270.88,299.04H141.91c-7.08,0-4.59-4.7-2.84-8L292.37,1.5h2827.06l153.89,290.66c1.5,2.84.07,6.88-2.45,6.88Z" />
      <path class="cls-3" d="M137.18,299.04h3133.32c1.9,0,3.44,1.54,3.44,3.44v1936.56H137.18V299.04h0Z" />
      <text class="cls-6" transform="translate(0 387.99)"><tspan x="0" y="0">15</tspan></text>
      <rect id="apt_b07_f15_a01" class="cls-1" x="165.75" y="319.09" width="500" height="117.3" data-name="apt_b07_f15_a01" />
      <rect id="apt_b07_f15_a02" class="cls-1" x="679.75" y="319.09" width="500" height="117.3" data-name="apt_b07_f15_a02" />
      <rect id="apt_b07_f15_a03" class="cls-1" x="1193.75" y="319.09" width="500" height="117.3" data-name="apt_b07_f15_a03" />
      <rect id="apt_b07_f15_a04" class="cls-1" x="1707.75" y="319.09" width="500" height="117.3" data-name="apt_b07_f15_a04" />
      <rect id="apt_b07_f15_a05" class="cls-1" x="2221.75" y="319.09" width="500" height="117.3" data-name="apt_b07_f15_a05" />
      <text class="cls-6" transform="translate(0 515.39)"><tspan x="0" y="0">14</tspan></text>
      <rect id="apt_b07_f14_a01" class="cls-1" x="165.75" y="446.39" width="500" height="117.3" data-name="apt_b07_f14_a01" />
      <rect id="apt_b07_f14_a02" class="cls-1" x="679.75" y="446.39" width="500" height="117.3" data-name="apt_b07_f14_a02" />
      <rect id="apt_b07_f14_a03" class="cls-1" x="1193.75" y="446.39" width="500" height="117.3" data-name="apt_b07_f14_a03" />
      <rect id="apt_b07_f14_a04" class="cls-1" x="1707.75" y="446.39" width="500" height="117.3" data-name="apt_b07_f14_a04" />
      <rect id="apt_b07_f14_a05" class="cls-1" x="2221.75" y="446.39" width="500" height="117.3" data-name="apt_b07_f14_a05" />
      <text class="cls-6" transform="translate(0 642.69)"><tspan x="0" y="0">13</tspan></text>
      <rect id="apt_b07_f13_a01" class="cls-1" x="165.75" y="573.69" width="500" height="117.3" data-name="apt_b07_f13_a01" />
      <rect id="apt_b07_f13_a02" class="cls-1" x="679.75" y="573.69" width="500" height="117.3" data-name="apt_b07_f13_a02" />
      <rect id="apt_b07_f13_a03" class="cls-1" x="1193.75" y="573.69" width="500" height="117.3" data-name="apt_b07_f13_a03" />
      <rect id="apt_b07_f13_a04" class="cls-1" x="1707.75" y="573.69" width="500" height="117.3" data-name="apt_b07_f13_a04" />
      <rect id="apt_b07_f13_a05" class="cls-1" x="2221.75" y="573.69" width="500" height="117.3" data-name="apt_b07_f13_a05" />
      <text class="cls-6" transform="translate(0 769.99)"><tspan x="0" y="0">12</tspan></text>
      <rect id="apt_b07_f12_a01" class="cls-1" x="165.75" y="701.09" width="500" height="117.3" data-name="apt_b07_f12_a01" />
      <rect id="apt_b07_f12_a02" class="cls-1" x="679.75" y="701.09" width="500" height="117.3" data-name="apt_b07_f12_a02" />
      <rect id="apt_b07_f12_a03" class="cls-1" x="1193.75" y="701.09" width="500" height="117.3" data-name="apt_b07_f12_a03" />
      <rect id="apt_b07_f12_a04" class="cls-1" x="1707.75" y="701.09" width="500" height="117.3" data-name="apt_b07_f12_a04" />
      <rect id="apt_b07_f12_a05" class="cls-1" x="2221.75" y="701.09" width="500" height="117.3" data-name="apt_b07_f12_a05" />
      <text class="cls-6" transform="translate(1 897.39)"><tspan class="cls-7" x="0" y="0">1</tspan><tspan x="27.55" y="0">1</tspan></text>
      <rect id="apt_b07_f11_a01" class="cls-1" x="165.75" y="828.39" width="500" height="117.3" data-name="apt_b07_f11_a01" />
      <rect id="apt_b07_f11_a02" class="cls-1" x="679.75" y="828.39" width="500" height="117.3" data-name="apt_b07_f11_a02" />
      <rect id="apt_b07_f11_a03" class="cls-1" x="1193.75" y="828.39" width="500" height="117.3" data-name="apt_b07_f11_a03" />
      <rect id="apt_b07_f11_a04" class="cls-1" x="1707.75" y="828.39" width="500" height="117.3" data-name="apt_b07_f11_a04" />
      <rect id="apt_b07_f11_a05" class="cls-1" x="2221.75" y="828.39" width="500" height="117.3" data-name="apt_b07_f11_a05" />
      <text class="cls-6" transform="translate(0 1024.69)"><tspan x="0" y="0">10</tspan></text>
      <rect id="apt_b07_f10_a01" class="cls-1" x="165.75" y="955.69" width="500" height="117.3" data-name="apt_b07_f10_a01" />
      <rect id="apt_b07_f10_a02" class="cls-1" x="679.75" y="955.69" width="500" height="117.3" data-name="apt_b07_f10_a02" />
      <rect id="apt_b07_f10_a03" class="cls-1" x="1193.75" y="955.69" width="500" height="117.3" data-name="apt_b07_f10_a03" />
      <rect id="apt_b07_f10_a04" class="cls-1" x="1707.75" y="955.69" width="500" height="117.3" data-name="apt_b07_f10_a04" />
      <rect id="apt_b07_f09_a04" class="cls-1" x="1707.75" y="1083.09" width="500" height="117.3" data-name="apt_b07_f09_a04" />
      <rect id="apt_b07_f10_a05" class="cls-1" x="2221.75" y="955.69" width="500" height="117.3" data-name="apt_b07_f10_a05" />
      <text class="cls-6" transform="translate(10 1151.99)"><tspan x="0" y="0">9</tspan></text>
      <rect id="apt_b07_f09_a01" class="cls-1" x="165.75" y="1083.09" width="500" height="117.3" data-name="apt_b07_f09_a01" />
      <rect id="apt_b07_f09_a02" class="cls-1" x="679.75" y="1083.09" width="500" height="117.3" data-name="apt_b07_f09_a02" />
      <rect id="apt_b07_f09_a03" class="cls-1" x="1193.75" y="1083.09" width="500" height="117.3" data-name="apt_b07_f09_a03" />
      <rect id="apt_b07_f09_a05" class="cls-1" x="2221.75" y="1083.09" width="500" height="117.3" data-name="apt_b07_f09_a05" />
      <text class="cls-6" transform="translate(10 1279.39)"><tspan x="0" y="0">8</tspan></text>
      <rect id="apt_b07_f08_a01" class="cls-1" x="165.75" y="1210.39" width="500" height="117.3" data-name="apt_b07_f08_a01" />
      <rect id="apt_b07_f08_a02" class="cls-1" x="679.75" y="1210.39" width="500" height="117.3" data-name="apt_b07_f08_a02" />
      <rect id="apt_b07_f08_a03" class="cls-1" x="1193.75" y="1210.39" width="500" height="117.3" data-name="apt_b07_f08_a03" />
      <rect id="apt_b07_f07_a03" class="cls-1" x="1193.75" y="1337.69" width="500" height="117.3" data-name="apt_b07_f07_a03" />
      <rect id="apt_b07_f08_a04" class="cls-1" x="1707.75" y="1210.39" width="500" height="117.3" data-name="apt_b07_f08_a04" />
      <rect id="apt_b07_f08_a05" class="cls-1" x="2221.75" y="1210.39" width="500" height="117.3" data-name="apt_b07_f08_a05" />
      <text class="cls-6" transform="translate(10 1406.69)"><tspan x="0" y="0">7</tspan></text>
      <rect id="apt_b07_f07_a01" class="cls-1" x="165.75" y="1337.69" width="500" height="117.3" data-name="apt_b07_f07_a01" />
      <rect id="apt_b07_f06_a01" class="cls-1" x="165.75" y="1465.09" width="500" height="117.3" data-name="apt_b07_f06_a01" />
      <rect id="apt_b07_f07_a02" class="cls-1" x="679.75" y="1337.69" width="500" height="117.3" data-name="apt_b07_f07_a02" />
      <rect id="apt_b07_f07_a04" class="cls-1" x="1707.75" y="1337.69" width="500" height="117.3" data-name="apt_b07_f07_a04" />
      <rect id="apt_b07_f07_a05" class="cls-1" x="2221.75" y="1337.69" width="500" height="117.3" data-name="apt_b07_f07_a05" />
      <text class="cls-6" transform="translate(10 1533.99)"><tspan x="0" y="0">6</tspan></text>
      <rect id="apt_b07_f06_a02" class="cls-1" x="679.75" y="1465.09" width="500" height="117.3" data-name="apt_b07_f06_a02" />
      <rect id="apt_b07_f06_a03" class="cls-1" x="1193.75" y="1465.09" width="500" height="117.3" data-name="apt_b07_f06_a03" />
      <rect id="apt_b07_f06_a04" class="cls-1" x="1707.75" y="1465.09" width="500" height="117.3" data-name="apt_b07_f06_a04" />
      <rect id="apt_b07_f06_a05" class="cls-1" x="2221.75" y="1465.09" width="500" height="117.3" data-name="apt_b07_f06_a05" />
      <text class="cls-6" transform="translate(10 1661.39)"><tspan x="0" y="0">5</tspan></text>
      <rect id="apt_b07_f05_a01" class="cls-1" x="165.75" y="1592.39" width="500" height="117.3" data-name="apt_b07_f05_a01" />
      <rect id="apt_b07_f05_a02" class="cls-1" x="679.75" y="1592.39" width="500" height="117.3" data-name="apt_b07_f05_a02" />
      <rect id="apt_b07_f05_a03" class="cls-1" x="1193.75" y="1592.39" width="500" height="117.3" data-name="apt_b07_f05_a03" />
      <rect id="apt_b07_f05_a04" class="cls-1" x="1707.75" y="1592.39" width="500" height="117.3" data-name="apt_b07_f05_a04" />
      <rect id="apt_b07_f05_a05" class="cls-1" x="2221.75" y="1592.39" width="500" height="117.3" data-name="apt_b07_f05_a05" />
      <text class="cls-6" transform="translate(10 1788.69)"><tspan x="0" y="0">4</tspan></text>
      <rect id="apt_b07_f04_a01" class="cls-1" x="165.75" y="1719.69" width="500" height="117.3" data-name="apt_b07_f04_a01" />
      <rect id="apt_b07_f04_a02" class="cls-1" x="679.75" y="1719.69" width="500" height="117.3" data-name="apt_b07_f04_a02" />
      <rect id="apt_b07_f04_a03" class="cls-1" x="1193.75" y="1719.69" width="500" height="117.3" data-name="apt_b07_f04_a03" />
      <rect id="apt_b07_f04_a04" class="cls-1" x="1707.75" y="1719.69" width="500" height="117.3" data-name="apt_b07_f04_a04" />
      <rect id="apt_b07_f04_a05" class="cls-1" x="2221.75" y="1719.69" width="500" height="117.3" data-name="apt_b07_f04_a05" />
      <text class="cls-6" transform="translate(10 1915.99)"><tspan x="0" y="0">3</tspan></text>
      <rect id="apt_b07_f03_a01" class="cls-1" x="165.75" y="1847.09" width="500" height="117.3" data-name="apt_b07_f03_a01" />
      <rect id="apt_b07_f03_a02" class="cls-1" x="679.75" y="1847.09" width="500" height="117.3" data-name="apt_b07_f03_a02" />
      <rect id="apt_b07_f02_a02" class="cls-1" x="679.75" y="1974.39" width="500" height="117.3" data-name="apt_b07_f02_a02" />
      <rect id="apt_b07_f03_a03" class="cls-1" x="1193.75" y="1847.09" width="500" height="117.3" data-name="apt_b07_f03_a03" />
      <rect id="apt_b07_f02_a03" class="cls-1" x="1193.75" y="1974.39" width="500" height="117.3" data-name="apt_b07_f02_a03" />
      <rect id="apt_b07_f03_a04" class="cls-1" x="1707.75" y="1847.09" width="500" height="117.3" data-name="apt_b07_f03_a04" />
      <rect id="apt_b07_f03_a05" class="cls-1" x="2221.75" y="1847.09" width="500" height="117.3" data-name="apt_b07_f03_a05" />
      <text class="cls-6" transform="translate(10 2043.39)"><tspan x="0" y="0">2</tspan></text>
      <rect id="apt_b07_f02_a01" class="cls-1" x="165.75" y="1974.39" width="500" height="117.3" data-name="apt_b07_f02_a01" />
      <rect id="apt_b07_f02_a04" class="cls-1" x="1707.75" y="1974.39" width="500" height="117.3" data-name="apt_b07_f02_a04" />
      <rect id="apt_b07_f02_a05" class="cls-1" x="2221.75" y="1974.39" width="500" height="117.3" data-name="apt_b07_f02_a05" />
      <text class="cls-6" transform="translate(10 2170.69)"><tspan x="0" y="0">1</tspan></text>
      <rect id="apt_b07_f01_a01" class="cls-1" x="165.75" y="2101.69" width="500" height="117.3" data-name="apt_b07_f01_a01" />
      <text class="cls-4" transform="translate(212.56 2174.27)"><tspan x="0" y="0">2 </tspan><tspan class="cls-9" x="37.53" y="0">ко</tspan><tspan x="86.35" y="0">м.55.50м2(1кв)</tspan></text>
      <rect id="apt_b07_f01_a02" class="cls-1" x="679.75" y="2101.69" width="500" height="117.3" data-name="apt_b07_f01_a02" />
      <text class="cls-4" transform="translate(718.51 2172.63)"><tspan x="0" y="0">2 </tspan><tspan class="cls-9" x="37.53" y="0">ко</tspan><tspan x="86.35" y="0">м.91.</tspan><tspan class="cls-7" x="194.7" y="0">1</tspan><tspan x="217.24" y="0">1м2(2кв)</tspan></text>
      <rect id="apt_b07_f01_a03" class="cls-1" x="1193.75" y="2101.69" width="500" height="117.3" data-name="apt_b07_f01_a03" />
      <text class="cls-4" transform="translate(1223.98 2172.63)"><tspan x="0" y="0">1 </tspan><tspan class="cls-9" x="37.53" y="0">ко</tspan><tspan x="86.35" y="0">м.59.25м2(3кв)</tspan></text>
      <rect id="apt_b07_f01_a04" class="cls-1" x="1707.75" y="2101.69" width="500" height="117.3" data-name="apt_b07_f01_a04" />
      <text class="cls-4" transform="translate(1732.7 2170.89)"><tspan x="0" y="0">2 </tspan><tspan class="cls-9" x="37.53" y="0">ко</tspan><tspan x="86.35" y="0">м.80.14м2(4кв)</tspan></text>
      <rect id="apt_b07_f01_a05" class="cls-1" x="2221.75" y="2101.69" width="500" height="117.3" data-name="apt_b07_f01_a05" />
      <text class="cls-4" transform="translate(2248.61 2170.89)"><tspan x="0" y="0">3 </tspan><tspan class="cls-9" x="37.53" y="0">ко</tspan><tspan x="86.35" y="0">м.84.98м2(5кв)</tspan></text>
      <rect id="apt_b07_f15_a06" class="cls-1" x="2735.75" y="319.09" width="500" height="117.3" data-name="apt_b07_f15_a06" />
      <rect id="apt_b07_f14_a06" class="cls-1" x="2735.75" y="446.39" width="500" height="117.3" data-name="apt_b07_f14_a06" />
      <rect id="apt_b07_f13_a06" class="cls-1" x="2735.75" y="573.69" width="500" height="117.3" data-name="apt_b07_f13_a06" />
      <rect id="apt_b07_f12_a06" class="cls-1" x="2735.75" y="701.09" width="500" height="117.3" data-name="apt_b07_f12_a06" />
      <rect id="apt_b07_f11_a06" class="cls-1" x="2735.75" y="828.39" width="500" height="117.3" data-name="apt_b07_f11_a06" />
      <rect id="apt_b07_f10_a06" class="cls-1" x="2735.75" y="955.69" width="500" height="117.3" data-name="apt_b07_f10_a06" />
      <rect id="apt_b07_f09_a06" class="cls-1" x="2735.75" y="1083.09" width="500" height="117.3" data-name="apt_b07_f09_a06" />
      <rect id="apt_b07_f08_a06" class="cls-1" x="2735.75" y="1210.39" width="500" height="117.3" data-name="apt_b07_f08_a06" />
      <rect id="apt_b07_f07_a06" class="cls-1" x="2735.75" y="1337.69" width="500" height="117.3" data-name="apt_b07_f07_a06" />
      <rect id="apt_b07_f06_a06" class="cls-1" x="2735.75" y="1465.09" width="500" height="117.3" data-name="apt_b07_f06_a06" />
      <rect id="apt_b07_f05_a06" class="cls-1" x="2735.75" y="1592.39" width="500" height="117.3" data-name="apt_b07_f05_a06" />
      <rect id="apt_b07_f04_a06" class="cls-1" x="2735.75" y="1719.69" width="500" height="117.3" data-name="apt_b07_f04_a06" />
      <rect id="apt_b07_f03_a06" class="cls-1" x="2735.75" y="1847.09" width="500" height="117.3" data-name="apt_b07_f03_a06" />
      <rect id="apt_b07_f02_a06" class="cls-1" x="2735.75" y="1974.39" width="500" height="117.3" data-name="apt_b07_f02_a06" />
      <rect id="apt_b07_f01_a06" class="cls-1" x="2735.75" y="2101.69" width="500" height="117.3" data-name="apt_b07_f01_a06" />
      <text class="cls-4" transform="translate(2755 2170.89)"><tspan x="0" y="0">2 </tspan><tspan class="cls-9" x="37.53" y="0">ко</tspan><tspan x="86.35" y="0">м.82.</tspan><tspan class="cls-7" x="194.7" y="0">1</tspan><tspan x="217.24" y="0">1м2(6кв)</tspan></text>
      <text class="cls-4" transform="translate(205.91 2040.21)"><tspan x="0" y="0">2 </tspan><tspan class="cls-9" x="37.53" y="0">ко</tspan><tspan x="86.35" y="0">м.55.50м2(7кв)</tspan></text>
      <text class="cls-4" transform="translate(709.01 2041.85)"><tspan x="0" y="0">2 </tspan><tspan class="cls-9" x="37.53" y="0">ко</tspan><tspan x="86.35" y="0">м.91.</tspan><tspan class="cls-7" x="194.7" y="0">1</tspan><tspan x="217.24" y="0">1м2(8кв)</tspan></text>
      <text class="cls-4" transform="translate(1214 2043.49)"><tspan x="0" y="0">1 </tspan><tspan class="cls-9" x="37.53" y="0">ко</tspan><tspan x="86.35" y="0">м.59.25м2(9кв)</tspan></text>
      <text class="cls-4" transform="translate(1727 2043.49)"><tspan x="0" y="0">2 </tspan><tspan class="cls-9" x="37.53" y="0">ко</tspan><tspan x="86.35" y="0">м.80.14м2(10кв)</tspan></text>
      <text class="cls-4" transform="translate(2236.3 2043.49)"><tspan x="0" y="0">3 </tspan><tspan class="cls-9" x="37.53" y="0">ко</tspan><tspan x="86.35" y="0">м.84.98м2(</tspan><tspan class="cls-8" x="318.05" y="0">1</tspan><tspan x="340.6" y="0">1кв)</tspan></text>
      <text class="cls-4" transform="translate(2755 2043.49)"><tspan x="0" y="0">2 </tspan><tspan class="cls-9" x="37.53" y="0">ко</tspan><tspan x="86.35" y="0">м.82.</tspan><tspan class="cls-7" x="194.7" y="0">1</tspan><tspan x="217.24" y="0">1м2(12кв)</tspan></text>
      <text class="cls-4" transform="translate(202.11 1912.82)"><tspan x="0" y="0">2 </tspan><tspan class="cls-9" x="37.53" y="0">ко</tspan><tspan x="86.35" y="0">м.55.50м2(13кв)</tspan></text>
      <text class="cls-4" transform="translate(709.01 1914.45)"><tspan x="0" y="0">2 </tspan><tspan class="cls-9" x="37.53" y="0">ко</tspan><tspan x="86.35" y="0">м.91.</tspan><tspan class="cls-7" x="194.7" y="0">1</tspan><tspan x="217.24" y="0">1м2(14кв)</tspan></text>
      <text class="cls-4" transform="translate(1214 1916.09)"><tspan x="0" y="0">1 </tspan><tspan class="cls-9" x="37.53" y="0">ко</tspan><tspan x="86.35" y="0">м.59.25м2(15кв)</tspan></text>
      <text class="cls-4" transform="translate(1727 1916.09)"><tspan x="0" y="0">2 </tspan><tspan class="cls-9" x="37.53" y="0">ко</tspan><tspan x="86.35" y="0">м.80.14м2(16кв)</tspan></text>
      <text class="cls-4" transform="translate(2236.3 1916.09)"><tspan x="0" y="0">3 </tspan><tspan class="cls-9" x="37.53" y="0">ко</tspan><tspan x="86.35" y="0">м.84.98м2(17кв)</tspan></text>
      <text class="cls-4" transform="translate(2759.3 1916.09)"><tspan x="0" y="0">2 </tspan><tspan class="cls-9" x="37.53" y="0">ко</tspan><tspan x="86.35" y="0">м.82.</tspan><tspan class="cls-7" x="194.7" y="0">1</tspan><tspan x="217.24" y="0">1м2(18кв)</tspan></text>
      <text class="cls-4" transform="translate(202.11 1785.52)"><tspan x="0" y="0">2 </tspan><tspan class="cls-9" x="37.53" y="0">ко</tspan><tspan x="86.35" y="0">м.55.50м2(19кв)</tspan></text>
      <text class="cls-4" transform="translate(709.01 1787.15)"><tspan x="0" y="0">2 </tspan><tspan class="cls-9" x="37.53" y="0">ко</tspan><tspan x="86.35" y="0">м.91.</tspan><tspan class="cls-7" x="194.7" y="0">1</tspan><tspan x="217.24" y="0">1м2(20кв)</tspan></text>
      <text class="cls-4" transform="translate(1214 1788.79)"><tspan x="0" y="0">1 </tspan><tspan class="cls-9" x="37.53" y="0">ко</tspan><tspan x="86.35" y="0">м.59.25м2(21кв)</tspan></text>
      <text class="cls-4" transform="translate(1727 1788.79)"><tspan x="0" y="0">2 </tspan><tspan class="cls-9" x="37.53" y="0">ко</tspan><tspan x="86.35" y="0">м.80.14м2(22кв)</tspan></text>
      <text class="cls-4" transform="translate(2236.3 1788.79)"><tspan x="0" y="0">3 </tspan><tspan class="cls-9" x="37.53" y="0">ко</tspan><tspan x="86.35" y="0">м.84.98м2(23кв)</tspan></text>
      <text class="cls-4" transform="translate(2755 1788.79)"><tspan x="0" y="0">2 </tspan><tspan class="cls-9" x="37.53" y="0">ко</tspan><tspan x="86.35" y="0">м.82.</tspan><tspan class="cls-7" x="194.7" y="0">1</tspan><tspan x="217.24" y="0">1м2(24кв)</tspan></text>
      <text class="cls-4" transform="translate(202.11 1658.11)"><tspan x="0" y="0">2 </tspan><tspan class="cls-9" x="37.53" y="0">ко</tspan><tspan x="86.35" y="0">м.55.50м2(25кв)</tspan></text>
      <text class="cls-4" transform="translate(709.01 1659.75)"><tspan x="0" y="0">2 </tspan><tspan class="cls-9" x="37.53" y="0">ко</tspan><tspan x="86.35" y="0">м.91.</tspan><tspan class="cls-7" x="194.7" y="0">1</tspan><tspan x="217.24" y="0">1м2(26кв)</tspan></text>
      <text class="cls-4" transform="translate(1214 1661.39)"><tspan x="0" y="0">1 </tspan><tspan class="cls-9" x="37.53" y="0">ко</tspan><tspan x="86.35" y="0">м.59.25м2(27кв)</tspan></text>
      <text class="cls-4" transform="translate(1727 1661.39)"><tspan x="0" y="0">2 </tspan><tspan class="cls-9" x="37.53" y="0">ко</tspan><tspan x="86.35" y="0">м.80.14м2(28кв)</tspan></text>
      <text class="cls-4" transform="translate(2236.3 1661.39)"><tspan x="0" y="0">3 </tspan><tspan class="cls-9" x="37.53" y="0">ко</tspan><tspan x="86.35" y="0">м.84.98м2(29кв)</tspan></text>
      <text class="cls-4" transform="translate(2755 1661.39)"><tspan x="0" y="0">2 </tspan><tspan class="cls-9" x="37.53" y="0">ко</tspan><tspan x="86.35" y="0">м.82.</tspan><tspan class="cls-7" x="194.7" y="0">1</tspan><tspan x="217.24" y="0">1м2(30кв)</tspan></text>
      <text class="cls-4" transform="translate(202.11 1530.71)"><tspan x="0" y="0">2 </tspan><tspan class="cls-9" x="37.53" y="0">ко</tspan><tspan x="86.35" y="0">м.55.50м2(31кв)</tspan></text>
      <text class="cls-4" transform="translate(709.01 1532.35)"><tspan x="0" y="0">2 </tspan><tspan class="cls-9" x="37.53" y="0">ко</tspan><tspan x="86.35" y="0">м.91.</tspan><tspan class="cls-7" x="194.7" y="0">1</tspan><tspan x="217.24" y="0">1м2(32кв)</tspan></text>
      <text class="cls-4" transform="translate(1214 1533.99)"><tspan x="0" y="0">1 </tspan><tspan class="cls-9" x="37.53" y="0">ко</tspan><tspan x="86.35" y="0">м.59.25м2(33кв)</tspan></text>
      <text class="cls-4" transform="translate(1732.7 1533.99)"><tspan x="0" y="0">2 </tspan><tspan class="cls-9" x="37.53" y="0">ко</tspan><tspan x="86.35" y="0">м.80.14м2(34кв)</tspan></text>
      <text class="cls-4" transform="translate(2236.3 1533.99)"><tspan x="0" y="0">3 </tspan><tspan class="cls-9" x="37.53" y="0">ко</tspan><tspan x="86.35" y="0">м.84.98м2(35кв)</tspan></text>
      <text class="cls-4" transform="translate(2755 1533.99)"><tspan x="0" y="0">2 </tspan><tspan class="cls-9" x="37.53" y="0">ко</tspan><tspan x="86.35" y="0">м.82.</tspan><tspan class="cls-7" x="194.7" y="0">1</tspan><tspan x="217.24" y="0">1м2(36кв)</tspan></text>
      <text class="cls-4" transform="translate(202.11 1403.41)"><tspan x="0" y="0">2 </tspan><tspan class="cls-9" x="37.53" y="0">ко</tspan><tspan x="86.35" y="0">м.55.50м2(37кв)</tspan></text>
      <text class="cls-4" transform="translate(709.01 1405.05)"><tspan x="0" y="0">2 </tspan><tspan class="cls-9" x="37.53" y="0">ко</tspan><tspan x="86.35" y="0">м.91.</tspan><tspan class="cls-7" x="194.7" y="0">1</tspan><tspan x="217.24" y="0">1м2(38кв)</tspan></text>
      <text class="cls-4" transform="translate(1214 1406.69)"><tspan x="0" y="0">1 </tspan><tspan class="cls-9" x="37.53" y="0">ко</tspan><tspan x="86.35" y="0">м.59.25м2(39кв)</tspan></text>
      <text class="cls-4" transform="translate(1727 1406.69)"><tspan x="0" y="0">2 </tspan><tspan class="cls-9" x="37.53" y="0">ко</tspan><tspan x="86.35" y="0">м.80.14м2(40кв)</tspan></text>
      <text class="cls-4" transform="translate(2236.3 1406.69)"><tspan x="0" y="0">3 </tspan><tspan class="cls-9" x="37.53" y="0">ко</tspan><tspan x="86.35" y="0">м.84.98м2(41кв)</tspan></text>
      <text class="cls-4" transform="translate(2755 1406.69)"><tspan x="0" y="0">2 </tspan><tspan class="cls-9" x="37.53" y="0">ко</tspan><tspan x="86.35" y="0">м.82.</tspan><tspan class="cls-7" x="194.7" y="0">1</tspan><tspan x="217.24" y="0">1м2(42кв)</tspan></text>
      <text class="cls-4" transform="translate(205.91 1276.02)"><tspan x="0" y="0">2 </tspan><tspan class="cls-9" x="37.53" y="0">ко</tspan><tspan x="86.35" y="0">м.55.50м2(43кв)</tspan></text>
      <text class="cls-4" transform="translate(709.01 1277.65)"><tspan x="0" y="0">2 </tspan><tspan class="cls-9" x="37.53" y="0">ко</tspan><tspan x="86.35" y="0">м.91.</tspan><tspan class="cls-7" x="194.7" y="0">1</tspan><tspan x="217.24" y="0">1м2(44кв)</tspan></text>
      <text class="cls-4" transform="translate(1214 1279.29)"><tspan x="0" y="0">1 </tspan><tspan class="cls-9" x="37.53" y="0">ко</tspan><tspan x="86.35" y="0">м.59.25м2(45кв)</tspan></text>
      <text class="cls-4" transform="translate(1727 1279.29)"><tspan x="0" y="0">2 </tspan><tspan class="cls-9" x="37.53" y="0">ко</tspan><tspan x="86.35" y="0">м.80.14м2(46кв)</tspan></text>
      <text class="cls-4" transform="translate(2236.3 1279.29)"><tspan x="0" y="0">3 </tspan><tspan class="cls-9" x="37.53" y="0">ко</tspan><tspan x="86.35" y="0">м.84.98м2(47кв)</tspan></text>
      <text class="cls-4" transform="translate(2755 1279.29)"><tspan x="0" y="0">2 </tspan><tspan class="cls-9" x="37.53" y="0">ко</tspan><tspan x="86.35" y="0">м.82.</tspan><tspan class="cls-7" x="194.7" y="0">1</tspan><tspan x="217.24" y="0">1м2(48кв)</tspan></text>
      <text class="cls-4" transform="translate(202.11 1148.61)"><tspan x="0" y="0">2 </tspan><tspan class="cls-9" x="37.53" y="0">ко</tspan><tspan x="86.35" y="0">м.55.50м2(49кв)</tspan></text>
      <text class="cls-4" transform="translate(709.01 1150.25)"><tspan x="0" y="0">2 </tspan><tspan class="cls-9" x="37.53" y="0">ко</tspan><tspan x="86.35" y="0">м.91.</tspan><tspan class="cls-7" x="194.7" y="0">1</tspan><tspan x="217.24" y="0">1м2(50кв)</tspan></text>
      <text class="cls-4" transform="translate(1214 1151.89)"><tspan x="0" y="0">1 </tspan><tspan class="cls-9" x="37.53" y="0">ко</tspan><tspan x="86.35" y="0">м.59.25м2(51кв)</tspan></text>
      <text class="cls-4" transform="translate(1727 1151.89)"><tspan x="0" y="0">2 </tspan><tspan class="cls-9" x="37.53" y="0">ко</tspan><tspan x="86.35" y="0">м.80.14м2(52кв)</tspan></text>
      <text class="cls-4" transform="translate(2236.3 1151.89)"><tspan x="0" y="0">3 </tspan><tspan class="cls-9" x="37.53" y="0">ко</tspan><tspan x="86.35" y="0">м.84.98м2(53кв)</tspan></text>
      <text class="cls-4" transform="translate(2755 1151.89)"><tspan x="0" y="0">2 </tspan><tspan class="cls-9" x="37.53" y="0">ко</tspan><tspan x="86.35" y="0">м.82.</tspan><tspan class="cls-7" x="194.7" y="0">1</tspan><tspan x="217.24" y="0">1м2(54кв)</tspan></text>
      <text class="cls-4" transform="translate(202.11 1021.32)"><tspan x="0" y="0">2 </tspan><tspan class="cls-9" x="37.53" y="0">ко</tspan><tspan x="86.35" y="0">м.55.50м2(55кв)</tspan></text>
      <text class="cls-4" transform="translate(709.01 1022.95)"><tspan x="0" y="0">2 </tspan><tspan class="cls-9" x="37.53" y="0">ко</tspan><tspan x="86.35" y="0">м.91.</tspan><tspan class="cls-7" x="194.7" y="0">1</tspan><tspan x="217.24" y="0">1м2(56кв)</tspan></text>
      <text class="cls-4" transform="translate(1214 1024.59)"><tspan x="0" y="0">1 </tspan><tspan class="cls-9" x="37.53" y="0">ко</tspan><tspan x="86.35" y="0">м.59.25м2(57кв)</tspan></text>
      <text class="cls-4" transform="translate(1727 1024.59)"><tspan x="0" y="0">2 </tspan><tspan class="cls-9" x="37.53" y="0">ко</tspan><tspan x="86.35" y="0">м.80.14м2(58кв)</tspan></text>
      <text class="cls-4" transform="translate(2236.3 1024.59)"><tspan x="0" y="0">3 </tspan><tspan class="cls-9" x="37.53" y="0">ко</tspan><tspan x="86.35" y="0">м.84.98м2(59кв)</tspan></text>
      <text class="cls-4" transform="translate(2755 1024.59)"><tspan x="0" y="0">2 </tspan><tspan class="cls-9" x="37.53" y="0">ко</tspan><tspan x="86.35" y="0">м.82.</tspan><tspan class="cls-7" x="194.7" y="0">1</tspan><tspan x="217.24" y="0">1м2(60кв)</tspan></text>
      <text class="cls-4" transform="translate(205.91 893.91)"><tspan x="0" y="0">2 </tspan><tspan class="cls-9" x="37.53" y="0">ко</tspan><tspan x="86.35" y="0">м.55.50м2(61кв)</tspan></text>
      <text class="cls-4" transform="translate(709.01 895.55)"><tspan x="0" y="0">2 </tspan><tspan class="cls-9" x="37.53" y="0">ко</tspan><tspan x="86.35" y="0">м.91.</tspan><tspan class="cls-7" x="194.7" y="0">1</tspan><tspan x="217.24" y="0">1м2(62кв)</tspan></text>
      <text class="cls-4" transform="translate(1214 897.19)"><tspan x="0" y="0">1 </tspan><tspan class="cls-9" x="37.53" y="0">ко</tspan><tspan x="86.35" y="0">м.59.25м2(63кв)</tspan></text>
      <text class="cls-4" transform="translate(1727 897.19)"><tspan x="0" y="0">2 </tspan><tspan class="cls-9" x="37.53" y="0">ко</tspan><tspan x="86.35" y="0">м.80.14м2(64кв)</tspan></text>
      <text class="cls-4" transform="translate(2236.3 897.19)"><tspan x="0" y="0">3 </tspan><tspan class="cls-9" x="37.53" y="0">ко</tspan><tspan x="86.35" y="0">м.84.98м2(65кв)</tspan></text>
      <text class="cls-4" transform="translate(2755 897.19)"><tspan x="0" y="0">2 </tspan><tspan class="cls-9" x="37.53" y="0">ко</tspan><tspan x="86.35" y="0">м.82.</tspan><tspan class="cls-7" x="194.7" y="0">1</tspan><tspan x="217.24" y="0">1м2(66кв)</tspan></text>
      <text class="cls-4" transform="translate(202.11 766.52)"><tspan x="0" y="0">2 </tspan><tspan class="cls-9" x="37.53" y="0">ко</tspan><tspan x="86.35" y="0">м.55.50м2(67кв)</tspan></text>
      <text class="cls-4" transform="translate(709.01 768.15)"><tspan x="0" y="0">2 </tspan><tspan class="cls-9" x="37.53" y="0">ко</tspan><tspan x="86.35" y="0">м.91.</tspan><tspan class="cls-7" x="194.7" y="0">1</tspan><tspan x="217.24" y="0">1м2(68кв)</tspan></text>
      <text class="cls-4" transform="translate(1214 769.79)"><tspan x="0" y="0">1 </tspan><tspan class="cls-9" x="37.53" y="0">ко</tspan><tspan x="86.35" y="0">м.59.25м2(69кв)</tspan></text>
      <text class="cls-4" transform="translate(1727 769.79)"><tspan x="0" y="0">2 </tspan><tspan class="cls-9" x="37.53" y="0">ко</tspan><tspan x="86.35" y="0">м.80.14м2(70кв)</tspan></text>
      <text class="cls-4" transform="translate(2236.3 769.79)"><tspan x="0" y="0">3 </tspan><tspan class="cls-9" x="37.53" y="0">ко</tspan><tspan x="86.35" y="0">м.84.98м2(71кв)</tspan></text>
      <text class="cls-4" transform="translate(2755 769.79)"><tspan x="0" y="0">2 </tspan><tspan class="cls-9" x="37.53" y="0">ко</tspan><tspan x="86.35" y="0">м.82.</tspan><tspan class="cls-7" x="194.7" y="0">1</tspan><tspan x="217.24" y="0">1м2(72кв)</tspan></text>
      <text class="cls-4" transform="translate(202.11 639.22)"><tspan x="0" y="0">2 </tspan><tspan class="cls-9" x="37.53" y="0">ко</tspan><tspan x="86.35" y="0">м.55.50м2(73кв)</tspan></text>
      <text class="cls-4" transform="translate(709.01 640.85)"><tspan x="0" y="0">2 </tspan><tspan class="cls-9" x="37.53" y="0">ко</tspan><tspan x="86.35" y="0">м.91.</tspan><tspan class="cls-7" x="194.7" y="0">1</tspan><tspan x="217.24" y="0">1м2(74кв)</tspan></text>
      <text class="cls-4" transform="translate(1214 642.49)"><tspan x="0" y="0">1 </tspan><tspan class="cls-9" x="37.53" y="0">ко</tspan><tspan x="86.35" y="0">м.59.25м2(75кв)</tspan></text>
      <text class="cls-4" transform="translate(1727 642.49)"><tspan x="0" y="0">2 </tspan><tspan class="cls-9" x="37.53" y="0">ко</tspan><tspan x="86.35" y="0">м.80.14м2(76кв)</tspan></text>
      <text class="cls-4" transform="translate(2236.3 642.49)"><tspan x="0" y="0">3 </tspan><tspan class="cls-9" x="37.53" y="0">ко</tspan><tspan x="86.35" y="0">м.84.98м2(77кв)</tspan></text>
      <text class="cls-4" transform="translate(2755 642.49)"><tspan x="0" y="0">2 </tspan><tspan class="cls-9" x="37.53" y="0">ко</tspan><tspan x="86.35" y="0">м.82.</tspan><tspan class="cls-7" x="194.7" y="0">1</tspan><tspan x="217.24" y="0">1м2(78кв)</tspan></text>
      <text class="cls-4" transform="translate(202.11 511.82)"><tspan x="0" y="0">2 </tspan><tspan class="cls-9" x="37.53" y="0">ко</tspan><tspan x="86.35" y="0">м.55.50м2(79кв)</tspan></text>
      <text class="cls-4" transform="translate(709.01 513.45)"><tspan x="0" y="0">2 </tspan><tspan class="cls-9" x="37.53" y="0">ко</tspan><tspan x="86.35" y="0">м.91.</tspan><tspan class="cls-7" x="194.7" y="0">1</tspan><tspan x="217.24" y="0">1м2(80кв)</tspan></text>
      <text class="cls-4" transform="translate(1214 515.09)"><tspan x="0" y="0">1 </tspan><tspan class="cls-9" x="37.53" y="0">ко</tspan><tspan x="86.35" y="0">м.59.25м2(81кв)</tspan></text>
      <text class="cls-4" transform="translate(1727 515.09)"><tspan x="0" y="0">2 </tspan><tspan class="cls-9" x="37.53" y="0">ко</tspan><tspan x="86.35" y="0">м.80.14м2(82кв)</tspan></text>
      <text class="cls-4" transform="translate(2236.3 515.09)"><tspan x="0" y="0">3 </tspan><tspan class="cls-9" x="37.53" y="0">ко</tspan><tspan x="86.35" y="0">м.84.98м2(83кв)</tspan></text>
      <text class="cls-4" transform="translate(2755 515.09)"><tspan x="0" y="0">2 </tspan><tspan class="cls-9" x="37.53" y="0">ко</tspan><tspan x="86.35" y="0">м.82.</tspan><tspan class="cls-7" x="194.7" y="0">1</tspan><tspan x="217.24" y="0">1м2(84кв)</tspan></text>
      <text class="cls-4" transform="translate(202.11 384.41)"><tspan x="0" y="0">2 </tspan><tspan class="cls-9" x="37.53" y="0">ко</tspan><tspan x="86.35" y="0">м.55.50м2(85кв)</tspan></text>
      <text class="cls-4" transform="translate(709.01 386.05)"><tspan x="0" y="0">2 </tspan><tspan class="cls-9" x="37.53" y="0">ко</tspan><tspan x="86.35" y="0">м.91.</tspan><tspan class="cls-7" x="194.7" y="0">1</tspan><tspan x="217.24" y="0">1м2(86кв)</tspan></text>
      <text class="cls-4" transform="translate(1214 387.69)"><tspan x="0" y="0">1 </tspan><tspan class="cls-9" x="37.53" y="0">ко</tspan><tspan x="86.35" y="0">м.59.25м2(87кв)</tspan></text>
      <text class="cls-4" transform="translate(1727 387.69)"><tspan x="0" y="0">2 </tspan><tspan class="cls-9" x="37.53" y="0">ко</tspan><tspan x="86.35" y="0">м.80.14м2(88кв)</tspan></text>
      <text class="cls-4" transform="translate(2236.3 387.69)"><tspan x="0" y="0">3 </tspan><tspan class="cls-9" x="37.53" y="0">ко</tspan><tspan x="86.35" y="0">м.84.98м2(89кв)</tspan></text>
      <text class="cls-4" transform="translate(2755 387.69)"><tspan x="0" y="0">2 </tspan><tspan class="cls-9" x="37.53" y="0">ко</tspan><tspan x="86.35" y="0">м.82.</tspan><tspan class="cls-7" x="194.7" y="0">1</tspan><tspan x="217.24" y="0">1м2(90кв)</tspan></text>
      <text class="cls-5" transform="translate(1342.34 210.93)"><tspan x="0" y="0">Б</tspan><tspan class="cls-9" x="150.94" y="0">л</tspan><tspan x="281.57" y="0">ок 7 </tspan></text>
    </g>
  </g>
</svg>