<?xml version="1.0" encoding="UTF-8"?>
<svg id="Layer_2" data-name="Layer 2" xmlns="http://www.w3.org/2000/svg" viewBox="0 0 3275.44 2240.54">
  <defs>
    <style>
      .cls-1 {
        fill: #00a651;
        stroke-width: 2px;
      }

      .cls-1, .cls-2 {
        stroke: #1a1a1a;
      }

      .cls-3 {
        fill: #f7f8f8;
        stroke: #131313;
      }

      .cls-3, .cls-2 {
        stroke-width: 3px;
      }

      .cls-2 {
        fill: #ae4e4e;
      }

      .cls-4 {
        font-size: 45px;
      }

      .cls-4, .cls-5 {
        fill: #fff;
      }

      .cls-4, .cls-5, .cls-6 {
        font-family: Arial-BoldMT, Arial;
        font-weight: 700;
        isolation: isolate;
      }

      .cls-5 {
        font-size: 210px;
      }

      .cls-6 {
        fill: #131313;
        font-size: 55px;
      }

      .cls-7 {
        letter-spacing: -.06em;
      }

      .cls-8 {
        letter-spacing: -.06em;
      }

      .cls-9 {
        letter-spacing: -.01em;
      }
    </style>
  </defs>
  <g id="Layer_1-2" data-name="Layer 1">
    <g>
      <path class="cls-2" d="M3270.88,299.04H141.91c-7.08,0-4.59-4.7-2.84-8L292.37,1.5h2827.06l153.89,290.66c1.5,2.84.07,6.88-2.45,6.88Z"/>
      <path class="cls-3" d="M137.18,299.04h3133.32c1.9,0,3.44,1.54,3.44,3.44v1936.56H137.18V299.04h0Z"/>
      <text class="cls-6" transform="translate(0 387.99)"><tspan x="0" y="0">15</tspan></text>
      <rect id="uuid-b52427c4-67e5-4435-86c9-bfe96ad86a1b" class="cls-1" x="165.75" y="319.09" width="500" height="117.3"/>
      <rect id="uuid-1aa1e2b2-9b7a-44a3-9f4b-a41026971e5d" class="cls-1" x="679.75" y="319.09" width="500" height="117.3"/>
      <rect id="uuid-39280b8f-ffcd-4a2a-a756-98fe0b607843" class="cls-1" x="1193.75" y="319.09" width="500" height="117.3"/>
      <rect id="uuid-8bd86fcc-8645-4d6c-b738-2ba232fa64d1" class="cls-1" x="1707.75" y="319.09" width="500" height="117.3"/>
      <rect id="uuid-4abff483-1895-45ab-b2d9-d55f514cc4a0" class="cls-1" x="2221.75" y="319.09" width="500" height="117.3"/>
      <text class="cls-6" transform="translate(0 515.39)"><tspan x="0" y="0">14</tspan></text>
      <rect id="uuid-c9f378cc-ce7c-4458-87d3-a0230564cf42" class="cls-1" x="165.75" y="446.39" width="500" height="117.3"/>
      <rect id="uuid-3e2b645d-ba6d-4ecd-ae97-eb3690a4ae91" class="cls-1" x="679.75" y="446.39" width="500" height="117.3"/>
      <rect id="uuid-51aa8d1e-cd01-470a-9720-858662b3cb07" class="cls-1" x="1193.75" y="446.39" width="500" height="117.3"/>
      <rect id="uuid-e7ee78f2-38ef-40ea-b450-00b6a242f045" class="cls-1" x="1707.75" y="446.39" width="500" height="117.3"/>
      <rect id="uuid-d9ee821d-7600-4b59-925d-343a7d72b3cf" class="cls-1" x="2221.75" y="446.39" width="500" height="117.3"/>
      <text class="cls-6" transform="translate(0 642.69)"><tspan x="0" y="0">13</tspan></text>
      <rect id="uuid-c7f9ef00-fd1f-43db-9867-eb51a8baec2d" class="cls-1" x="165.75" y="573.69" width="500" height="117.3"/>
      <rect id="uuid-1b5f01ce-38be-4af1-b44c-de52a5cda128" class="cls-1" x="679.75" y="573.69" width="500" height="117.3"/>
      <rect id="uuid-096af7c1-396a-4a49-b71a-044db05a2511" class="cls-1" x="1193.75" y="573.69" width="500" height="117.3"/>
      <rect id="uuid-42bf30af-6585-4a6b-a9ab-87c12a8df50c" class="cls-1" x="1707.75" y="573.69" width="500" height="117.3"/>
      <rect id="uuid-cc045d44-1b63-4bbe-bab6-9432e92d68c0" class="cls-1" x="2221.75" y="573.69" width="500" height="117.3"/>
      <text class="cls-6" transform="translate(0 769.99)"><tspan x="0" y="0">12</tspan></text>
      <rect id="uuid-c96dc097-f577-48c0-abab-354cc69894d2" class="cls-1" x="165.75" y="701.09" width="500" height="117.3"/>
      <rect id="uuid-b074a707-6e82-4e96-aa4f-093eca3e91e7" class="cls-1" x="679.75" y="701.09" width="500" height="117.3"/>
      <rect id="uuid-25477cd0-e146-46a7-becd-14eb31f6e791" class="cls-1" x="1193.75" y="701.09" width="500" height="117.3"/>
      <rect id="uuid-5b149068-d3f4-430d-b24e-2bf97577d10a" class="cls-1" x="1707.75" y="701.09" width="500" height="117.3"/>
      <rect id="uuid-9dfdecad-0d25-4257-ac54-a3b485efee84" class="cls-1" x="2221.75" y="701.09" width="500" height="117.3"/>
      <text class="cls-6" transform="translate(1 897.39)"><tspan class="cls-7" x="0" y="0">1</tspan><tspan x="27.55" y="0">1</tspan></text>
      <rect id="uuid-8d6ca6ca-d6a4-4be6-8970-dab44360514e" class="cls-1" x="165.75" y="828.39" width="500" height="117.3"/>
      <rect id="uuid-78a3a4e3-33c8-4b1b-8141-d8746fe13cc4" class="cls-1" x="679.75" y="828.39" width="500" height="117.3"/>
      <rect id="uuid-07302255-8985-4d7c-828e-bc7bf233037b" class="cls-1" x="1193.75" y="828.39" width="500" height="117.3"/>
      <rect id="uuid-ae04f3ca-9967-415c-b262-8ac3f66df18a" class="cls-1" x="1707.75" y="828.39" width="500" height="117.3"/>
      <rect id="uuid-3d4fde94-5d75-4923-b3e3-a947ae78cae3" class="cls-1" x="2221.75" y="828.39" width="500" height="117.3"/>
      <text class="cls-6" transform="translate(0 1024.69)"><tspan x="0" y="0">10</tspan></text>
      <rect id="uuid-f6fc75a9-ee3b-46cd-8d00-cad64e551ee4" class="cls-1" x="165.75" y="955.69" width="500" height="117.3"/>
      <rect id="uuid-cb10e99b-81cb-480b-9859-dacaa0762646" class="cls-1" x="679.75" y="955.69" width="500" height="117.3"/>
      <rect id="uuid-d0258625-109d-4c71-a927-6fb9e508f4a3" class="cls-1" x="1193.75" y="955.69" width="500" height="117.3"/>
      <rect id="uuid-9836c449-048d-4ed2-a2c7-bfb650dac61a" class="cls-1" x="1707.75" y="955.69" width="500" height="117.3"/>
      <rect id="uuid-a04898ac-cb49-4b6d-8798-d723ccdf7cbb" class="cls-1" x="1707.75" y="1083.09" width="500" height="117.3"/>
      <rect id="uuid-14d25bf7-4386-41fd-8775-e869f539d0ce" class="cls-1" x="2221.75" y="955.69" width="500" height="117.3"/>
      <text class="cls-6" transform="translate(10 1151.99)"><tspan x="0" y="0">9</tspan></text>
      <rect id="uuid-c6bd0d9a-f71c-4c34-a018-1f0640052c50" class="cls-1" x="165.75" y="1083.09" width="500" height="117.3"/>
      <rect id="uuid-e2d7febd-3bb8-4131-b1e4-9a918d9fcb37" class="cls-1" x="679.75" y="1083.09" width="500" height="117.3"/>
      <rect id="uuid-c37925ee-b4f7-4488-98b7-41c443d13723" class="cls-1" x="1193.75" y="1083.09" width="500" height="117.3"/>
      <rect id="uuid-f070b19a-181c-4a71-bd82-d98062431597" class="cls-1" x="2221.75" y="1083.09" width="500" height="117.3"/>
      <text class="cls-6" transform="translate(10 1279.39)"><tspan x="0" y="0">8</tspan></text>
      <rect id="uuid-67832750-7adf-4f9e-a37b-0989e1be8342" class="cls-1" x="165.75" y="1210.39" width="500" height="117.3"/>
      <rect id="uuid-8dcb8ed0-2bdc-4d91-a29f-0a3322be2097" class="cls-1" x="679.75" y="1210.39" width="500" height="117.3"/>
      <rect id="uuid-1e142a5a-02f8-43e8-975b-451819110347" class="cls-1" x="1193.75" y="1210.39" width="500" height="117.3"/>
      <rect id="uuid-c1ea1983-04eb-4540-b16d-252bda7376cf" class="cls-1" x="1193.75" y="1337.69" width="500" height="117.3"/>
      <rect id="uuid-31d41465-25e0-4390-98c7-cc35878f5fd6" class="cls-1" x="1707.75" y="1210.39" width="500" height="117.3"/>
      <rect id="uuid-58b96c2a-b798-4a5d-ad5b-6361c102fb96" class="cls-1" x="2221.75" y="1210.39" width="500" height="117.3"/>
      <text class="cls-6" transform="translate(10 1406.69)"><tspan x="0" y="0">7</tspan></text>
      <rect id="uuid-faae537d-6501-4033-a4a2-8f7bc8bd5361" class="cls-1" x="165.75" y="1337.69" width="500" height="117.3"/>
      <rect id="uuid-bc2657b9-928b-434c-a393-5ca2e8ca47cf" class="cls-1" x="165.75" y="1465.09" width="500" height="117.3"/>
      <rect id="uuid-b162a32d-22ff-47b7-a96e-1386dc08f4c9" class="cls-1" x="679.75" y="1337.69" width="500" height="117.3"/>
      <rect id="uuid-2cfaa6ac-54fb-4780-b4ec-2f8b8ab5cdf1" class="cls-1" x="1707.75" y="1337.69" width="500" height="117.3"/>
      <rect id="uuid-0e1a784c-73b5-42ae-bf02-b4758df8fdda" class="cls-1" x="2221.75" y="1337.69" width="500" height="117.3"/>
      <text class="cls-6" transform="translate(10 1533.99)"><tspan x="0" y="0">6</tspan></text>
      <rect id="uuid-84d0a521-f409-4d46-b9e7-f415a5cc6bbf" class="cls-1" x="679.75" y="1465.09" width="500" height="117.3"/>
      <rect id="uuid-e62f186a-03e0-4247-9083-218d67876cb5" class="cls-1" x="1193.75" y="1465.09" width="500" height="117.3"/>
      <rect id="uuid-da00a95a-c9ac-4df8-ac70-958b1da4c8d9" class="cls-1" x="1707.75" y="1465.09" width="500" height="117.3"/>
      <rect id="uuid-3af54317-b45c-40b6-97f8-4177289226b6" class="cls-1" x="2221.75" y="1465.09" width="500" height="117.3"/>
      <text class="cls-6" transform="translate(10 1661.39)"><tspan x="0" y="0">5</tspan></text>
      <rect id="uuid-faec540b-9179-4cf2-884c-560a0122cc1c" class="cls-1" x="165.75" y="1592.39" width="500" height="117.3"/>
      <rect id="uuid-52c5bd7d-8b6e-4a21-a003-90cf87a9d1e7" class="cls-1" x="679.75" y="1592.39" width="500" height="117.3"/>
      <rect id="uuid-f126304e-39ab-4b7e-9c0b-31d07f2807b0" class="cls-1" x="1193.75" y="1592.39" width="500" height="117.3"/>
      <rect id="uuid-b6be7b38-e13e-448c-8f10-8494778570aa" class="cls-1" x="1707.75" y="1592.39" width="500" height="117.3"/>
      <rect id="uuid-64481399-4c53-4fd8-bf2d-adc983ff35e4" class="cls-1" x="2221.75" y="1592.39" width="500" height="117.3"/>
      <text class="cls-6" transform="translate(10 1788.69)"><tspan x="0" y="0">4</tspan></text>
      <rect id="uuid-77715098-d1bd-48d6-9658-6c7421f7a3dd" class="cls-1" x="165.75" y="1719.69" width="500" height="117.3"/>
      <rect id="uuid-4cc6664e-77d6-425e-8738-c9c1865b0781" class="cls-1" x="679.75" y="1719.69" width="500" height="117.3"/>
      <rect id="uuid-1d242009-1ca3-41bf-8e7f-566e5d29732a" class="cls-1" x="1193.75" y="1719.69" width="500" height="117.3"/>
      <rect id="uuid-3d803be7-3058-46b8-a287-ee7a49882bb1" class="cls-1" x="1707.75" y="1719.69" width="500" height="117.3"/>
      <rect id="uuid-424ac639-8bce-4405-9ccc-505dbc37e9fb" class="cls-1" x="2221.75" y="1719.69" width="500" height="117.3"/>
      <text class="cls-6" transform="translate(10 1915.99)"><tspan x="0" y="0">3</tspan></text>
      <rect id="uuid-6c446b3c-5f53-454e-a97d-87e224f24789" class="cls-1" x="165.75" y="1847.09" width="500" height="117.3"/>
      <rect id="uuid-8bf48e1f-7176-4b7c-9629-534249ff20a7" class="cls-1" x="679.75" y="1847.09" width="500" height="117.3"/>
      <rect id="uuid-910f99f8-f052-4b0a-ae73-76ae143fadba" class="cls-1" x="679.75" y="1974.39" width="500" height="117.3"/>
      <rect id="uuid-27c6e4e8-b0c1-4c2c-af1c-d625fe38f06e" class="cls-1" x="1193.75" y="1847.09" width="500" height="117.3"/>
      <rect id="uuid-574db422-b4e5-4f5b-9091-eb331924be03" class="cls-1" x="1193.75" y="1974.39" width="500" height="117.3"/>
      <rect id="uuid-e453bbb4-7935-4011-94ad-05328c361e4d" class="cls-1" x="1707.75" y="1847.09" width="500" height="117.3"/>
      <rect id="uuid-d29c34bc-e89a-472d-9e58-7124775006a7" class="cls-1" x="2221.75" y="1847.09" width="500" height="117.3"/>
      <text class="cls-6" transform="translate(10 2043.39)"><tspan x="0" y="0">2</tspan></text>
      <rect id="uuid-6f8fdebe-8112-4862-a911-7a45aab58f6a" class="cls-1" x="165.75" y="1974.39" width="500" height="117.3"/>
      <rect id="uuid-31a6954d-f179-4563-b747-d7a3d1e188d8" class="cls-1" x="1707.75" y="1974.39" width="500" height="117.3"/>
      <rect id="uuid-6cd9b828-db41-4570-9365-a695e9ab778b" class="cls-1" x="2221.75" y="1974.39" width="500" height="117.3"/>
      <text class="cls-6" transform="translate(10 2170.69)"><tspan x="0" y="0">1</tspan></text>
      <rect id="uuid-84a78384-ba71-4918-a56c-c7c03aba9016" class="cls-1" x="165.75" y="2101.69" width="500" height="117.3"/>
      <text class="cls-4" transform="translate(212.56 2174.27)"><tspan x="0" y="0">2 </tspan><tspan class="cls-9" x="37.53" y="0">ко</tspan><tspan x="86.35" y="0">м.55.50м2(1кв)</tspan></text>
      <rect id="uuid-28e9f6dc-a61e-4038-a420-0f9a14048506" class="cls-1" x="679.75" y="2101.69" width="500" height="117.3"/>
      <text class="cls-4" transform="translate(718.51 2172.63)"><tspan x="0" y="0">2 </tspan><tspan class="cls-9" x="37.53" y="0">ко</tspan><tspan x="86.35" y="0">м.91.</tspan><tspan class="cls-7" x="194.7" y="0">1</tspan><tspan x="217.24" y="0">1м2(2кв)</tspan></text>
      <rect id="uuid-2562fe3f-7255-47c5-8a28-ebbb71da3d07" class="cls-1" x="1193.75" y="2101.69" width="500" height="117.3"/>
      <text class="cls-4" transform="translate(1223.98 2172.63)"><tspan x="0" y="0">1 </tspan><tspan class="cls-9" x="37.53" y="0">ко</tspan><tspan x="86.35" y="0">м.59.25м2(3кв)</tspan></text>
      <rect id="uuid-3cd53999-cf07-4ce8-af75-777460f5fd46" class="cls-1" x="1707.75" y="2101.69" width="500" height="117.3"/>
      <text class="cls-4" transform="translate(1732.7 2170.89)"><tspan x="0" y="0">2 </tspan><tspan class="cls-9" x="37.53" y="0">ко</tspan><tspan x="86.35" y="0">м.80.14м2(4кв)</tspan></text>
      <rect id="uuid-82d0ffe8-23a4-422c-9a8d-f3be14f63a39" class="cls-1" x="2221.75" y="2101.69" width="500" height="117.3"/>
      <text class="cls-4" transform="translate(2248.61 2170.89)"><tspan x="0" y="0">3 </tspan><tspan class="cls-9" x="37.53" y="0">ко</tspan><tspan x="86.35" y="0">м.84.98м2(5кв)</tspan></text>
      <rect id="uuid-c6d7fd17-009c-4b29-9967-b5a61dc953e9" class="cls-1" x="2735.75" y="319.09" width="500" height="117.3"/>
      <rect id="uuid-5b9c81cf-57ca-404b-a66c-5165034068c5" class="cls-1" x="2735.75" y="446.39" width="500" height="117.3"/>
      <rect id="uuid-97b80d75-4f38-41bd-9af6-e73bd743ad80" class="cls-1" x="2735.75" y="573.69" width="500" height="117.3"/>
      <rect id="uuid-2ce6ee40-55e3-45aa-aafd-dfb7951ab936" class="cls-1" x="2735.75" y="701.09" width="500" height="117.3"/>
      <rect id="uuid-096eebd3-a13b-477a-ba24-87c66f293d84" class="cls-1" x="2735.75" y="828.39" width="500" height="117.3"/>
      <rect id="uuid-df4e0110-bf4a-49b5-a357-852e26b1b54d" class="cls-1" x="2735.75" y="955.69" width="500" height="117.3"/>
      <rect id="uuid-4728fd37-2785-4347-a6ea-12c3ef6faef4" class="cls-1" x="2735.75" y="1083.09" width="500" height="117.3"/>
      <rect id="uuid-fdcda59b-ad18-4528-bf74-fcf53900123a" class="cls-1" x="2735.75" y="1210.39" width="500" height="117.3"/>
      <rect id="uuid-161cfae0-da5f-4209-bd4f-393f2e4a1a19" class="cls-1" x="2735.75" y="1337.69" width="500" height="117.3"/>
      <rect id="uuid-bea27c2a-9560-4d91-80c8-d20e0bde23e4" class="cls-1" x="2735.75" y="1465.09" width="500" height="117.3"/>
      <rect id="uuid-33d36315-9585-40e0-a02a-461ce62a819f" class="cls-1" x="2735.75" y="1592.39" width="500" height="117.3"/>
      <rect id="uuid-8d51f2d7-ad7d-44dd-86d6-4f954807ce00" class="cls-1" x="2735.75" y="1719.69" width="500" height="117.3"/>
      <rect id="uuid-d0ea42d1-72c0-48a2-852f-135615eff334" class="cls-1" x="2735.75" y="1847.09" width="500" height="117.3"/>
      <rect id="uuid-7752c826-5561-412f-833e-03faf10544f7" class="cls-1" x="2735.75" y="1974.39" width="500" height="117.3"/>
      <rect id="uuid-4acaaccc-13e3-40f4-8651-7fa3620aa4cc" class="cls-1" x="2735.75" y="2101.69" width="500" height="117.3"/>
      <text class="cls-4" transform="translate(2755 2170.89)"><tspan x="0" y="0">2 </tspan><tspan class="cls-9" x="37.53" y="0">ко</tspan><tspan x="86.35" y="0">м.82.</tspan><tspan class="cls-7" x="194.7" y="0">1</tspan><tspan x="217.24" y="0">1м2(6кв)</tspan></text>
      <text class="cls-4" transform="translate(205.91 2040.21)"><tspan x="0" y="0">2 </tspan><tspan class="cls-9" x="37.53" y="0">ко</tspan><tspan x="86.35" y="0">м.55.50м2(7кв)</tspan></text>
      <text class="cls-4" transform="translate(709.01 2041.85)"><tspan x="0" y="0">2 </tspan><tspan class="cls-9" x="37.53" y="0">ко</tspan><tspan x="86.35" y="0">м.91.</tspan><tspan class="cls-7" x="194.7" y="0">1</tspan><tspan x="217.24" y="0">1м2(8кв)</tspan></text>
      <text class="cls-4" transform="translate(1214 2043.49)"><tspan x="0" y="0">1 </tspan><tspan class="cls-9" x="37.53" y="0">ко</tspan><tspan x="86.35" y="0">м.59.25м2(9кв)</tspan></text>
      <text class="cls-4" transform="translate(1727 2043.49)"><tspan x="0" y="0">2 </tspan><tspan class="cls-9" x="37.53" y="0">ко</tspan><tspan x="86.35" y="0">м.80.14м2(10кв)</tspan></text>
      <text class="cls-4" transform="translate(2236.3 2043.49)"><tspan x="0" y="0">3 </tspan><tspan class="cls-9" x="37.53" y="0">ко</tspan><tspan x="86.35" y="0">м.84.98м2(</tspan><tspan class="cls-8" x="318.05" y="0">1</tspan><tspan x="340.6" y="0">1кв)</tspan></text>
      <text class="cls-4" transform="translate(2755 2043.49)"><tspan x="0" y="0">2 </tspan><tspan class="cls-9" x="37.53" y="0">ко</tspan><tspan x="86.35" y="0">м.82.</tspan><tspan class="cls-7" x="194.7" y="0">1</tspan><tspan x="217.24" y="0">1м2(12кв)</tspan></text>
      <text class="cls-4" transform="translate(202.11 1912.82)"><tspan x="0" y="0">2 </tspan><tspan class="cls-9" x="37.53" y="0">ко</tspan><tspan x="86.35" y="0">м.55.50м2(13кв)</tspan></text>
      <text class="cls-4" transform="translate(709.01 1914.45)"><tspan x="0" y="0">2 </tspan><tspan class="cls-9" x="37.53" y="0">ко</tspan><tspan x="86.35" y="0">м.91.</tspan><tspan class="cls-7" x="194.7" y="0">1</tspan><tspan x="217.24" y="0">1м2(14кв)</tspan></text>
      <text class="cls-4" transform="translate(1214 1916.09)"><tspan x="0" y="0">1 </tspan><tspan class="cls-9" x="37.53" y="0">ко</tspan><tspan x="86.35" y="0">м.59.25м2(15кв)</tspan></text>
      <text class="cls-4" transform="translate(1727 1916.09)"><tspan x="0" y="0">2 </tspan><tspan class="cls-9" x="37.53" y="0">ко</tspan><tspan x="86.35" y="0">м.80.14м2(16кв)</tspan></text>
      <text class="cls-4" transform="translate(2236.3 1916.09)"><tspan x="0" y="0">3 </tspan><tspan class="cls-9" x="37.53" y="0">ко</tspan><tspan x="86.35" y="0">м.84.98м2(17кв)</tspan></text>
      <text class="cls-4" transform="translate(2759.3 1916.09)"><tspan x="0" y="0">2 </tspan><tspan class="cls-9" x="37.53" y="0">ко</tspan><tspan x="86.35" y="0">м.82.</tspan><tspan class="cls-7" x="194.7" y="0">1</tspan><tspan x="217.24" y="0">1м2(18кв)</tspan></text>
      <text class="cls-4" transform="translate(202.11 1785.52)"><tspan x="0" y="0">2 </tspan><tspan class="cls-9" x="37.53" y="0">ко</tspan><tspan x="86.35" y="0">м.55.50м2(19кв)</tspan></text>
      <text class="cls-4" transform="translate(709.01 1787.15)"><tspan x="0" y="0">2 </tspan><tspan class="cls-9" x="37.53" y="0">ко</tspan><tspan x="86.35" y="0">м.91.</tspan><tspan class="cls-7" x="194.7" y="0">1</tspan><tspan x="217.24" y="0">1м2(20кв)</tspan></text>
      <text class="cls-4" transform="translate(1214 1788.79)"><tspan x="0" y="0">1 </tspan><tspan class="cls-9" x="37.53" y="0">ко</tspan><tspan x="86.35" y="0">м.59.25м2(21кв)</tspan></text>
      <text class="cls-4" transform="translate(1727 1788.79)"><tspan x="0" y="0">2 </tspan><tspan class="cls-9" x="37.53" y="0">ко</tspan><tspan x="86.35" y="0">м.80.14м2(22кв)</tspan></text>
      <text class="cls-4" transform="translate(2236.3 1788.79)"><tspan x="0" y="0">3 </tspan><tspan class="cls-9" x="37.53" y="0">ко</tspan><tspan x="86.35" y="0">м.84.98м2(23кв)</tspan></text>
      <text class="cls-4" transform="translate(2755 1788.79)"><tspan x="0" y="0">2 </tspan><tspan class="cls-9" x="37.53" y="0">ко</tspan><tspan x="86.35" y="0">м.82.</tspan><tspan class="cls-7" x="194.7" y="0">1</tspan><tspan x="217.24" y="0">1м2(24кв)</tspan></text>
      <text class="cls-4" transform="translate(202.11 1658.11)"><tspan x="0" y="0">2 </tspan><tspan class="cls-9" x="37.53" y="0">ко</tspan><tspan x="86.35" y="0">м.55.50м2(25кв)</tspan></text>
      <text class="cls-4" transform="translate(709.01 1659.75)"><tspan x="0" y="0">2 </tspan><tspan class="cls-9" x="37.53" y="0">ко</tspan><tspan x="86.35" y="0">м.91.</tspan><tspan class="cls-7" x="194.7" y="0">1</tspan><tspan x="217.24" y="0">1м2(26кв)</tspan></text>
      <text class="cls-4" transform="translate(1214 1661.39)"><tspan x="0" y="0">1 </tspan><tspan class="cls-9" x="37.53" y="0">ко</tspan><tspan x="86.35" y="0">м.59.25м2(27кв)</tspan></text>
      <text class="cls-4" transform="translate(1727 1661.39)"><tspan x="0" y="0">2 </tspan><tspan class="cls-9" x="37.53" y="0">ко</tspan><tspan x="86.35" y="0">м.80.14м2(28кв)</tspan></text>
      <text class="cls-4" transform="translate(2236.3 1661.39)"><tspan x="0" y="0">3 </tspan><tspan class="cls-9" x="37.53" y="0">ко</tspan><tspan x="86.35" y="0">м.84.98м2(29кв)</tspan></text>
      <text class="cls-4" transform="translate(2755 1661.39)"><tspan x="0" y="0">2 </tspan><tspan class="cls-9" x="37.53" y="0">ко</tspan><tspan x="86.35" y="0">м.82.</tspan><tspan class="cls-7" x="194.7" y="0">1</tspan><tspan x="217.24" y="0">1м2(30кв)</tspan></text>
      <text class="cls-4" transform="translate(202.11 1530.71)"><tspan x="0" y="0">2 </tspan><tspan class="cls-9" x="37.53" y="0">ко</tspan><tspan x="86.35" y="0">м.55.50м2(31кв)</tspan></text>
      <text class="cls-4" transform="translate(709.01 1532.35)"><tspan x="0" y="0">2 </tspan><tspan class="cls-9" x="37.53" y="0">ко</tspan><tspan x="86.35" y="0">м.91.</tspan><tspan class="cls-7" x="194.7" y="0">1</tspan><tspan x="217.24" y="0">1м2(32кв)</tspan></text>
      <text class="cls-4" transform="translate(1214 1533.99)"><tspan x="0" y="0">1 </tspan><tspan class="cls-9" x="37.53" y="0">ко</tspan><tspan x="86.35" y="0">м.59.25м2(33кв)</tspan></text>
      <text class="cls-4" transform="translate(1732.7 1533.99)"><tspan x="0" y="0">2 </tspan><tspan class="cls-9" x="37.53" y="0">ко</tspan><tspan x="86.35" y="0">м.80.14м2(34кв)</tspan></text>
      <text class="cls-4" transform="translate(2236.3 1533.99)"><tspan x="0" y="0">3 </tspan><tspan class="cls-9" x="37.53" y="0">ко</tspan><tspan x="86.35" y="0">м.84.98м2(35кв)</tspan></text>
      <text class="cls-4" transform="translate(2755 1533.99)"><tspan x="0" y="0">2 </tspan><tspan class="cls-9" x="37.53" y="0">ко</tspan><tspan x="86.35" y="0">м.82.</tspan><tspan class="cls-7" x="194.7" y="0">1</tspan><tspan x="217.24" y="0">1м2(36кв)</tspan></text>
      <text class="cls-4" transform="translate(202.11 1403.41)"><tspan x="0" y="0">2 </tspan><tspan class="cls-9" x="37.53" y="0">ко</tspan><tspan x="86.35" y="0">м.55.50м2(37кв)</tspan></text>
      <text class="cls-4" transform="translate(709.01 1405.05)"><tspan x="0" y="0">2 </tspan><tspan class="cls-9" x="37.53" y="0">ко</tspan><tspan x="86.35" y="0">м.91.</tspan><tspan class="cls-7" x="194.7" y="0">1</tspan><tspan x="217.24" y="0">1м2(38кв)</tspan></text>
      <text class="cls-4" transform="translate(1214 1406.69)"><tspan x="0" y="0">1 </tspan><tspan class="cls-9" x="37.53" y="0">ко</tspan><tspan x="86.35" y="0">м.59.25м2(39кв)</tspan></text>
      <text class="cls-4" transform="translate(1727 1406.69)"><tspan x="0" y="0">2 </tspan><tspan class="cls-9" x="37.53" y="0">ко</tspan><tspan x="86.35" y="0">м.80.14м2(40кв)</tspan></text>
      <text class="cls-4" transform="translate(2236.3 1406.69)"><tspan x="0" y="0">3 </tspan><tspan class="cls-9" x="37.53" y="0">ко</tspan><tspan x="86.35" y="0">м.84.98м2(41кв)</tspan></text>
      <text class="cls-4" transform="translate(2755 1406.69)"><tspan x="0" y="0">2 </tspan><tspan class="cls-9" x="37.53" y="0">ко</tspan><tspan x="86.35" y="0">м.82.</tspan><tspan class="cls-7" x="194.7" y="0">1</tspan><tspan x="217.24" y="0">1м2(42кв)</tspan></text>
      <text class="cls-4" transform="translate(205.91 1276.02)"><tspan x="0" y="0">2 </tspan><tspan class="cls-9" x="37.53" y="0">ко</tspan><tspan x="86.35" y="0">м.55.50м2(43кв)</tspan></text>
      <text class="cls-4" transform="translate(709.01 1277.65)"><tspan x="0" y="0">2 </tspan><tspan class="cls-9" x="37.53" y="0">ко</tspan><tspan x="86.35" y="0">м.91.</tspan><tspan class="cls-7" x="194.7" y="0">1</tspan><tspan x="217.24" y="0">1м2(44кв)</tspan></text>
      <text class="cls-4" transform="translate(1214 1279.29)"><tspan x="0" y="0">1 </tspan><tspan class="cls-9" x="37.53" y="0">ко</tspan><tspan x="86.35" y="0">м.59.25м2(45кв)</tspan></text>
      <text class="cls-4" transform="translate(1727 1279.29)"><tspan x="0" y="0">2 </tspan><tspan class="cls-9" x="37.53" y="0">ко</tspan><tspan x="86.35" y="0">м.80.14м2(46кв)</tspan></text>
      <text class="cls-4" transform="translate(2236.3 1279.29)"><tspan x="0" y="0">3 </tspan><tspan class="cls-9" x="37.53" y="0">ко</tspan><tspan x="86.35" y="0">м.84.98м2(47кв)</tspan></text>
      <text class="cls-4" transform="translate(2755 1279.29)"><tspan x="0" y="0">2 </tspan><tspan class="cls-9" x="37.53" y="0">ко</tspan><tspan x="86.35" y="0">м.82.</tspan><tspan class="cls-7" x="194.7" y="0">1</tspan><tspan x="217.24" y="0">1м2(48кв)</tspan></text>
      <text class="cls-4" transform="translate(202.11 1148.61)"><tspan x="0" y="0">2 </tspan><tspan class="cls-9" x="37.53" y="0">ко</tspan><tspan x="86.35" y="0">м.55.50м2(49кв)</tspan></text>
      <text class="cls-4" transform="translate(709.01 1150.25)"><tspan x="0" y="0">2 </tspan><tspan class="cls-9" x="37.53" y="0">ко</tspan><tspan x="86.35" y="0">м.91.</tspan><tspan class="cls-7" x="194.7" y="0">1</tspan><tspan x="217.24" y="0">1м2(50кв)</tspan></text>
      <text class="cls-4" transform="translate(1214 1151.89)"><tspan x="0" y="0">1 </tspan><tspan class="cls-9" x="37.53" y="0">ко</tspan><tspan x="86.35" y="0">м.59.25м2(51кв)</tspan></text>
      <text class="cls-4" transform="translate(1727 1151.89)"><tspan x="0" y="0">2 </tspan><tspan class="cls-9" x="37.53" y="0">ко</tspan><tspan x="86.35" y="0">м.80.14м2(52кв)</tspan></text>
      <text class="cls-4" transform="translate(2236.3 1151.89)"><tspan x="0" y="0">3 </tspan><tspan class="cls-9" x="37.53" y="0">ко</tspan><tspan x="86.35" y="0">м.84.98м2(53кв)</tspan></text>
      <text class="cls-4" transform="translate(2755 1151.89)"><tspan x="0" y="0">2 </tspan><tspan class="cls-9" x="37.53" y="0">ко</tspan><tspan x="86.35" y="0">м.82.</tspan><tspan class="cls-7" x="194.7" y="0">1</tspan><tspan x="217.24" y="0">1м2(54кв)</tspan></text>
      <text class="cls-4" transform="translate(202.11 1021.32)"><tspan x="0" y="0">2 </tspan><tspan class="cls-9" x="37.53" y="0">ко</tspan><tspan x="86.35" y="0">м.55.50м2(55кв)</tspan></text>
      <text class="cls-4" transform="translate(709.01 1022.95)"><tspan x="0" y="0">2 </tspan><tspan class="cls-9" x="37.53" y="0">ко</tspan><tspan x="86.35" y="0">м.91.</tspan><tspan class="cls-7" x="194.7" y="0">1</tspan><tspan x="217.24" y="0">1м2(56кв)</tspan></text>
      <text class="cls-4" transform="translate(1214 1024.59)"><tspan x="0" y="0">1 </tspan><tspan class="cls-9" x="37.53" y="0">ко</tspan><tspan x="86.35" y="0">м.59.25м2(57кв)</tspan></text>
      <text class="cls-4" transform="translate(1727 1024.59)"><tspan x="0" y="0">2 </tspan><tspan class="cls-9" x="37.53" y="0">ко</tspan><tspan x="86.35" y="0">м.80.14м2(58кв)</tspan></text>
      <text class="cls-4" transform="translate(2236.3 1024.59)"><tspan x="0" y="0">3 </tspan><tspan class="cls-9" x="37.53" y="0">ко</tspan><tspan x="86.35" y="0">м.84.98м2(59кв)</tspan></text>
      <text class="cls-4" transform="translate(2755 1024.59)"><tspan x="0" y="0">2 </tspan><tspan class="cls-9" x="37.53" y="0">ко</tspan><tspan x="86.35" y="0">м.82.</tspan><tspan class="cls-7" x="194.7" y="0">1</tspan><tspan x="217.24" y="0">1м2(60кв)</tspan></text>
      <text class="cls-4" transform="translate(205.91 893.91)"><tspan x="0" y="0">2 </tspan><tspan class="cls-9" x="37.53" y="0">ко</tspan><tspan x="86.35" y="0">м.55.50м2(61кв)</tspan></text>
      <text class="cls-4" transform="translate(709.01 895.55)"><tspan x="0" y="0">2 </tspan><tspan class="cls-9" x="37.53" y="0">ко</tspan><tspan x="86.35" y="0">м.91.</tspan><tspan class="cls-7" x="194.7" y="0">1</tspan><tspan x="217.24" y="0">1м2(62кв)</tspan></text>
      <text class="cls-4" transform="translate(1214 897.19)"><tspan x="0" y="0">1 </tspan><tspan class="cls-9" x="37.53" y="0">ко</tspan><tspan x="86.35" y="0">м.59.25м2(63кв)</tspan></text>
      <text class="cls-4" transform="translate(1727 897.19)"><tspan x="0" y="0">2 </tspan><tspan class="cls-9" x="37.53" y="0">ко</tspan><tspan x="86.35" y="0">м.80.14м2(64кв)</tspan></text>
      <text class="cls-4" transform="translate(2236.3 897.19)"><tspan x="0" y="0">3 </tspan><tspan class="cls-9" x="37.53" y="0">ко</tspan><tspan x="86.35" y="0">м.84.98м2(65кв)</tspan></text>
      <text class="cls-4" transform="translate(2755 897.19)"><tspan x="0" y="0">2 </tspan><tspan class="cls-9" x="37.53" y="0">ко</tspan><tspan x="86.35" y="0">м.82.</tspan><tspan class="cls-7" x="194.7" y="0">1</tspan><tspan x="217.24" y="0">1м2(66кв)</tspan></text>
      <text class="cls-4" transform="translate(202.11 766.52)"><tspan x="0" y="0">2 </tspan><tspan class="cls-9" x="37.53" y="0">ко</tspan><tspan x="86.35" y="0">м.55.50м2(67кв)</tspan></text>
      <text class="cls-4" transform="translate(709.01 768.15)"><tspan x="0" y="0">2 </tspan><tspan class="cls-9" x="37.53" y="0">ко</tspan><tspan x="86.35" y="0">м.91.</tspan><tspan class="cls-7" x="194.7" y="0">1</tspan><tspan x="217.24" y="0">1м2(68кв)</tspan></text>
      <text class="cls-4" transform="translate(1214 769.79)"><tspan x="0" y="0">1 </tspan><tspan class="cls-9" x="37.53" y="0">ко</tspan><tspan x="86.35" y="0">м.59.25м2(69кв)</tspan></text>
      <text class="cls-4" transform="translate(1727 769.79)"><tspan x="0" y="0">2 </tspan><tspan class="cls-9" x="37.53" y="0">ко</tspan><tspan x="86.35" y="0">м.80.14м2(70кв)</tspan></text>
      <text class="cls-4" transform="translate(2236.3 769.79)"><tspan x="0" y="0">3 </tspan><tspan class="cls-9" x="37.53" y="0">ко</tspan><tspan x="86.35" y="0">м.84.98м2(71кв)</tspan></text>
      <text class="cls-4" transform="translate(2755 769.79)"><tspan x="0" y="0">2 </tspan><tspan class="cls-9" x="37.53" y="0">ко</tspan><tspan x="86.35" y="0">м.82.</tspan><tspan class="cls-7" x="194.7" y="0">1</tspan><tspan x="217.24" y="0">1м2(72кв)</tspan></text>
      <text class="cls-4" transform="translate(202.11 639.22)"><tspan x="0" y="0">2 </tspan><tspan class="cls-9" x="37.53" y="0">ко</tspan><tspan x="86.35" y="0">м.55.50м2(73кв)</tspan></text>
      <text class="cls-4" transform="translate(709.01 640.85)"><tspan x="0" y="0">2 </tspan><tspan class="cls-9" x="37.53" y="0">ко</tspan><tspan x="86.35" y="0">м.91.</tspan><tspan class="cls-7" x="194.7" y="0">1</tspan><tspan x="217.24" y="0">1м2(74кв)</tspan></text>
      <text class="cls-4" transform="translate(1214 642.49)"><tspan x="0" y="0">1 </tspan><tspan class="cls-9" x="37.53" y="0">ко</tspan><tspan x="86.35" y="0">м.59.25м2(75кв)</tspan></text>
      <text class="cls-4" transform="translate(1727 642.49)"><tspan x="0" y="0">2 </tspan><tspan class="cls-9" x="37.53" y="0">ко</tspan><tspan x="86.35" y="0">м.80.14м2(76кв)</tspan></text>
      <text class="cls-4" transform="translate(2236.3 642.49)"><tspan x="0" y="0">3 </tspan><tspan class="cls-9" x="37.53" y="0">ко</tspan><tspan x="86.35" y="0">м.84.98м2(77кв)</tspan></text>
      <text class="cls-4" transform="translate(2755 642.49)"><tspan x="0" y="0">2 </tspan><tspan class="cls-9" x="37.53" y="0">ко</tspan><tspan x="86.35" y="0">м.82.</tspan><tspan class="cls-7" x="194.7" y="0">1</tspan><tspan x="217.24" y="0">1м2(78кв)</tspan></text>
      <text class="cls-4" transform="translate(202.11 511.82)"><tspan x="0" y="0">2 </tspan><tspan class="cls-9" x="37.53" y="0">ко</tspan><tspan x="86.35" y="0">м.55.50м2(79кв)</tspan></text>
      <text class="cls-4" transform="translate(709.01 513.45)"><tspan x="0" y="0">2 </tspan><tspan class="cls-9" x="37.53" y="0">ко</tspan><tspan x="86.35" y="0">м.91.</tspan><tspan class="cls-7" x="194.7" y="0">1</tspan><tspan x="217.24" y="0">1м2(80кв)</tspan></text>
      <text class="cls-4" transform="translate(1214 515.09)"><tspan x="0" y="0">1 </tspan><tspan class="cls-9" x="37.53" y="0">ко</tspan><tspan x="86.35" y="0">м.59.25м2(81кв)</tspan></text>
      <text class="cls-4" transform="translate(1727 515.09)"><tspan x="0" y="0">2 </tspan><tspan class="cls-9" x="37.53" y="0">ко</tspan><tspan x="86.35" y="0">м.80.14м2(82кв)</tspan></text>
      <text class="cls-4" transform="translate(2236.3 515.09)"><tspan x="0" y="0">3 </tspan><tspan class="cls-9" x="37.53" y="0">ко</tspan><tspan x="86.35" y="0">м.84.98м2(83кв)</tspan></text>
      <text class="cls-4" transform="translate(2755 515.09)"><tspan x="0" y="0">2 </tspan><tspan class="cls-9" x="37.53" y="0">ко</tspan><tspan x="86.35" y="0">м.82.</tspan><tspan class="cls-7" x="194.7" y="0">1</tspan><tspan x="217.24" y="0">1м2(84кв)</tspan></text>
      <text class="cls-4" transform="translate(202.11 384.41)"><tspan x="0" y="0">2 </tspan><tspan class="cls-9" x="37.53" y="0">ко</tspan><tspan x="86.35" y="0">м.55.50м2(85кв)</tspan></text>
      <text class="cls-4" transform="translate(709.01 386.05)"><tspan x="0" y="0">2 </tspan><tspan class="cls-9" x="37.53" y="0">ко</tspan><tspan x="86.35" y="0">м.91.</tspan><tspan class="cls-7" x="194.7" y="0">1</tspan><tspan x="217.24" y="0">1м2(86кв)</tspan></text>
      <text class="cls-4" transform="translate(1214 387.69)"><tspan x="0" y="0">1 </tspan><tspan class="cls-9" x="37.53" y="0">ко</tspan><tspan x="86.35" y="0">м.59.25м2(87кв)</tspan></text>
      <text class="cls-4" transform="translate(1727 387.69)"><tspan x="0" y="0">2 </tspan><tspan class="cls-9" x="37.53" y="0">ко</tspan><tspan x="86.35" y="0">м.80.14м2(88кв)</tspan></text>
      <text class="cls-4" transform="translate(2236.3 387.69)"><tspan x="0" y="0">3 </tspan><tspan class="cls-9" x="37.53" y="0">ко</tspan><tspan x="86.35" y="0">м.84.98м2(89кв)</tspan></text>
      <text class="cls-4" transform="translate(2755 387.69)"><tspan x="0" y="0">2 </tspan><tspan class="cls-9" x="37.53" y="0">ко</tspan><tspan x="86.35" y="0">м.82.</tspan><tspan class="cls-7" x="194.7" y="0">1</tspan><tspan x="217.24" y="0">1м2(90кв)</tspan></text>
      <text class="cls-5" transform="translate(1342.34 210.93)"><tspan x="0" y="0">Б</tspan><tspan class="cls-9" x="150.94" y="0">л</tspan><tspan x="281.57" y="0">ок 7 </tspan></text>
    </g>
  </g>
</svg>